/* XPM */
static char *naveB6[] = {
/* columns rows colors chars-per-pixel */
"64 64 2 1 ",
"  c #27FF8D",
". c None",
/* pixels */
"...............................   ..............................",
"..............................     .............................",
"..............................  .   ............................",
".............................   ..   ...........................",
".............................  ....   ..........................",
"............................   .....   .........................",
"............................  .......   ........................",
"............................  ........   .......................",
"...........................   .........   ......................",
"...........................  ...........   .....................",
"..........................   ............   ....................",
"..........................  ..............   ...................",
".........................   ...............   ..................",
".........................  .................   .................",
".........................  ..................   ................",
"........................   ...................   ...............",
"........................  .....................   ..............",
".......................   ......................   .............",
".......................  ........................   ............",
"......................   .........................   ...........",
"......................  ...........................   ..........",
"......................  ............................   .........",
".....................   .............................   ........",
".....................  ...............................   .......",
"....................   ................................   ......",
"....................  ..................................   .....",
"....................  ...................................   ....",
"...................   ....................................   ...",
"...................  ......................................   ..",
"..................   .......................................   .",
"..................  .........................................   ",
".................   .........................................   ",
".................  ........................................     ",
".................  ......................................     ..",
"................   ...................................      ....",
"................  ..................................      ......",
"...............   ................................     .........",
"...............  ...............................     ...........",
"..............   ............................      .............",
"..............  ...........................      ...............",
"..............  .........................     ..................",
".............   ......................      ....................",
".............  .....................      ......................",
"............   ...................     .........................",
"............  .................      ...........................",
"...........   ...............      .............................",
"...........  ..............     ................................",
"...........  ...........      ..................................",
"..........   .........      ....................................",
"..........  ........     .......................................",
".........   ......     .........................................",
".........  ....      ...........................................",
"........   ..      .............................................",
"........        ................................................",
"........      ..................................................",
".........   ....................................................",
"................................................................",
"................................................................",
"................................................................",
"................................................................",
"................................................................",
"................................................................",
"................................................................",
"................................................................"
};
