/* XPM */
static char *naveB12[] = {
/* columns rows colors chars-per-pixel */
"64 64 2 1 ",
"  c #27FF8D",
". c None",
/* pixels */
"................................................................",
"................................................................",
"................................................................",
"................................................................",
"................................................................",
"................................................................",
"................................................................",
"................................................................",
"................................................................",
".........   ....................................................",
".........     ..................................................",
".........        ...............................................",
".........  ..      .............................................",
".........  .....      ..........................................",
".........  .......      ........................................",
".........  ..........      .....................................",
".........  ............      ...................................",
".........  ...............      ................................",
".........  .................      ..............................",
".........  ....................      ...........................",
".........  ......................       ........................",
".........  .........................      ......................",
".........  ............................      ...................",
".........  ..............................      .................",
".........  .................................      ..............",
".........  ...................................      ............",
".........  ......................................      .........",
".........  ........................................      .......",
".........  ...........................................      ....",
".........  .............................................      ..",
".........  ................................................     ",
".........  ..................................................   ",
".........  ..................................................   ",
".........  ................................................     ",
".........  .............................................      ..",
".........  ...........................................      ....",
".........  ........................................      .......",
".........  ......................................      .........",
".........  ...................................      ............",
".........  .................................      ..............",
".........  ..............................      .................",
".........  ............................      ...................",
".........  .........................      ......................",
".........  ......................       ........................",
".........  ....................      ...........................",
".........  .................      ..............................",
".........  ...............      ................................",
".........  ............      ...................................",
".........  ..........      .....................................",
".........  .......      ........................................",
".........  .....      ..........................................",
".........  ..      .............................................",
".........        ...............................................",
".........     ..................................................",
".........   ....................................................",
"................................................................",
"................................................................",
"................................................................",
"................................................................",
"................................................................",
"................................................................",
"................................................................",
"................................................................",
"................................................................"
};
