/* XPM */
static char *naveA0[] = {
/* columns rows colors chars-per-pixel */
"64 64 2 1 ",
"  c #2796FF",
". c None",
/* pixels */
"..............................    ..............................",
"..............................    ..............................",
".............................      .............................",
".............................  ..  .............................",
"............................   ..   ............................",
"............................  ....  ............................",
"............................  ....  ............................",
"...........................   ....   ...........................",
"...........................  ......  ...........................",
"..........................   ......   ..........................",
"..........................  ........  ..........................",
"..........................  ........  ..........................",
".........................   ........   .........................",
".........................  ..........  .........................",
"........................   ..........   ........................",
"........................  ............  ........................",
"........................  ............  ........................",
".......................   ............   .......................",
".......................  ..............  .......................",
"......................   ..............   ......................",
"......................  ................  ......................",
"......................  ................  ......................",
".....................   ................   .....................",
".....................  ..................  .....................",
"....................   ..................   ....................",
"....................  ....................  ....................",
"....................  ....................  ....................",
"...................   ....................   ...................",
"...................  ......................  ...................",
"...................  ......................  ...................",
"..................   ......................   ..................",
"..................  ........................  ..................",
".................   ........................   .................",
".................  ..........................  .................",
".................  ..........................  .................",
"................   ..........................   ................",
"................  ............................  ................",
"...............   ............................   ...............",
"...............  ..............................  ...............",
"...............  ..............................  ...............",
"..............   ..............................   ..............",
"..............  ................................  ..............",
".............   ................................   .............",
".............  ..................................  .............",
".............  ..................................  .............",
"............   ..................................   ............",
"............  ....................................  ............",
"...........   ....................................   ...........",
"...........  ......................................  ...........",
"...........  ......................................  ...........",
"..........   ......................................   ..........",
"..........  ........................................  ..........",
".........   ........................................   .........",
".........                                              .........",
".........                                              .........",
"................................................................",
"................................................................",
"................................................................",
"................................................................",
"................................................................",
"................................................................",
"................................................................",
"................................................................",
"................................................................"
};
