/* XPM */
static char *Free_Converter_com_tiro4_13483710[] = {
/* columns rows colors chars-per-pixel */
"16 16 2 1 ",
"  c #2796FF",
". c None",
/* pixels */
"........    ....",
"........ .. ....",
".......  .. ....",
"....... ..  ....",
"......  .. .....",
"...... ..  .....",
".....  .. ......",
"..... ..  ......",
"....  .. .......",
".... ..  .......",
"...  .. ........",
"... ..  ........",
"..  .. .........",
".. ..  .........",
".. .. ..........",
"..    .........."
};
