/* XPM */
static char *tiroB6[] = {
/* columns rows colors chars-per-pixel */
"16 16 2 1 ",
"  c #27FF8D",
". c None",
/* pixels */
"............ ...",
"...........   ..",
"..........  .  .",
".........  ...  ",
"........  ...  .",
".......  ...  ..",
"......  ...  ...",
".....  ...  ....",
"....  ...  .....",
"...  ...  ......",
"..  ...  .......",
".  ...  ........",
"  ...  .........",
".  .  ..........",
"..   ...........",
"... ............"
};
