/* XPM */
static char * x_wing5_xpm[] = {
"64 64 398 2",
"  	c None",
". 	c #B8B8B8",
"+ 	c #B4B4B4",
"@ 	c #B3B3B3",
"# 	c #B1B1B1",
"$ 	c #ADADAD",
"% 	c #9D9D9D",
"& 	c #8B8B8B",
"* 	c #A0A0A0",
"= 	c #B2B2B2",
"- 	c #BABABA",
"; 	c #BBBBBB",
"> 	c #8C8C8C",
", 	c #A8A8A8",
"' 	c #AEAEAE",
") 	c #C0C0C0",
"! 	c #D0D0D0",
"~ 	c #888888",
"{ 	c #B0B0B0",
"] 	c #CFD0D0",
"^ 	c #DDDCDC",
"/ 	c #797979",
"( 	c #BBBFBF",
"_ 	c #CECFCF",
": 	c #D6D1D1",
"< 	c #DBDDDD",
"[ 	c #E4E4E4",
"} 	c #C1C1C1",
"| 	c #D1D1D1",
"1 	c #D8D8D8",
"2 	c #DEDEDE",
"3 	c #E5E5E5",
"4 	c #D9D9D9",
"5 	c #514E4E",
"6 	c #C5A1A1",
"7 	c #DC9A9A",
"8 	c #DCB0B0",
"9 	c #DBD6D6",
"0 	c #E3E6E6",
"a 	c #AAAAAA",
"b 	c #A5A5A5",
"c 	c #AFAFAF",
"d 	c #C7C7C7",
"e 	c #D7D7D7",
"f 	c #DFDFDF",
"g 	c #BA7474",
"h 	c #E16868",
"i 	c #E28080",
"j 	c #DEC9C9",
"k 	c #E3E7E7",
"l 	c #686868",
"m 	c #666666",
"n 	c #CACACA",
"o 	c #D2D2D2",
"p 	c #DCDCDC",
"q 	c #E0E0E0",
"r 	c #C3C3C3",
"s 	c #9A6767",
"t 	c #DF6565",
"u 	c #E17171",
"v 	c #DEAAAA",
"w 	c #E1B5B5",
"x 	c #A1A1A1",
"y 	c #D3D3D3",
"z 	c #E2E2E2",
"A 	c #E6E6E6",
"B 	c #BDBDBD",
"C 	c #7E6B6B",
"D 	c #C89292",
"E 	c #D79999",
"F 	c #DA9E9E",
"G 	c #DFA3A3",
"H 	c #E3A6A6",
"I 	c #CFCFCF",
"J 	c #D5D5D5",
"K 	c #D4D4D4",
"L 	c #939494",
"M 	c #737070",
"N 	c #ABA8A8",
"O 	c #CBC3C3",
"P 	c #D5A9A9",
"Q 	c #DCA3A3",
"R 	c #E1ABAB",
"S 	c #6B6B6B",
"T 	c #C9C9C9",
"U 	c #CECECE",
"V 	c #BFBFBF",
"W 	c #999999",
"X 	c #A3A4A4",
"Y 	c #C4C6C6",
"Z 	c #D0BBBB",
"` 	c #D6C5C5",
" .	c #DDD4D4",
"..	c #6A6A6A",
"+.	c #C5C5C5",
"@.	c #C8C8C8",
"#.	c #D7D8D8",
"$.	c #DBDCDC",
"%.	c #828282",
"&.	c #BCBCBC",
"*.	c #BEBEBE",
"=.	c #C2C2C2",
"-.	c #7D7D7D",
";.	c #B7B7B7",
">.	c #A9A9A9",
",.	c #A2A2A2",
"'.	c #A7A7A7",
").	c #B6B6B6",
"!.	c #C6C6C6",
"~.	c #858585",
"{.	c #969696",
"].	c #9A9A9A",
"^.	c #3F3F3F",
"/.	c #7B7B7B",
"(.	c #A4A4A4",
"_.	c #9F9F9F",
":.	c #9C9C9C",
"<.	c #4D4D4D",
"[.	c #818181",
"}.	c #959595",
"|.	c #989898",
"1.	c #878787",
"2.	c #8A8A8A",
"3.	c #949494",
"4.	c #313131",
"5.	c #646464",
"6.	c #7C7C7C",
"7.	c #838383",
"8.	c #939393",
"9.	c #898989",
"0.	c #555555",
"a.	c #757575",
"b.	c #B9B9B9",
"c.	c #818080",
"d.	c #989696",
"e.	c #B9B3B3",
"f.	c #5D5D5D",
"g.	c #606060",
"h.	c #717171",
"i.	c #707070",
"j.	c #8D8D8D",
"k.	c #898787",
"l.	c #A79C9C",
"m.	c #767676",
"n.	c #6F6F6F",
"o.	c #6D6D6D",
"p.	c #9B9B9B",
"q.	c #919191",
"r.	c #7F7F7F",
"s.	c #525252",
"t.	c #545454",
"u.	c #4B4B4B",
"v.	c #848484",
"w.	c #7E7E7E",
"x.	c #636363",
"y.	c #868686",
"z.	c #777777",
"A.	c #424242",
"B.	c #747474",
"C.	c #DBDBDB",
"D.	c #737373",
"E.	c #787878",
"F.	c #7A7A7A",
"G.	c #8E8E8E",
"H.	c #808080",
"I.	c #6D6F6F",
"J.	c #535454",
"K.	c #5A5A5A",
"L.	c #5C5C5C",
"M.	c #8B8B8C",
"N.	c #B5B5B5",
"O.	c #5A5B5B",
"P.	c #616060",
"Q.	c #514D4D",
"R.	c #565454",
"S.	c #5F5F5F",
"T.	c #7A7A79",
"U.	c #5C2D2D",
"V.	c #734141",
"W.	c #685656",
"X.	c #5B5A5A",
"Y.	c #5E5E5E",
"Z.	c #636362",
"`.	c #632424",
" +	c #813535",
".+	c #7C4242",
"++	c #604848",
"@+	c #464242",
"#+	c #484848",
"$+	c #585858",
"%+	c #737375",
"&+	c #7B7B81",
"*+	c #929292",
"=+	c #979797",
"-+	c #ACACAC",
";+	c #903E3E",
">+	c #915353",
",+	c #805F5F",
"'+	c #5D5353",
")+	c #313030",
"!+	c #333333",
"~+	c #626261",
"{+	c #8B8B91",
"]+	c #91919B",
"^+	c #838386",
"/+	c #A6A6A6",
"(+	c #9B4A4A",
"_+	c #A65C5C",
":+	c #9B6666",
"<+	c #775E5E",
"[+	c #454141",
"}+	c #1F2121",
"|+	c #101111",
"1+	c #747477",
"2+	c #7D7D83",
"3+	c #606062",
"4+	c #CCCCCC",
"5+	c #C36565",
"6+	c #BC7474",
"7+	c #AA8A8A",
"8+	c #787676",
"9+	c #454A4A",
"0+	c #1E1F1F",
"a+	c #020202",
"b+	c #080808",
"c+	c #282828",
"d+	c #565656",
"e+	c #5E5F5F",
"f+	c #4E4E4E",
"g+	c #727272",
"h+	c #908E8E",
"i+	c #B9B2B2",
"j+	c #C46262",
"k+	c #C37979",
"l+	c #A98888",
"m+	c #A29D9D",
"n+	c #B9BBBB",
"o+	c #949595",
"p+	c #525151",
"q+	c #222222",
"r+	c #181A1A",
"s+	c #2D2F2F",
"t+	c #3A3939",
"u+	c #373636",
"v+	c #393838",
"w+	c #515151",
"x+	c #909090",
"y+	c #BF6666",
"z+	c #C27E7E",
"A+	c #BE9898",
"B+	c #C0B3B3",
"C+	c #AFAEAE",
"D+	c #9C9D9D",
"E+	c #C8CACA",
"F+	c #6C6D6D",
"G+	c #434747",
"H+	c #3F4242",
"I+	c #4B4444",
"J+	c #534747",
"K+	c #4F3F3F",
"L+	c #503535",
"M+	c #4D4444",
"N+	c #525454",
"O+	c #4F4F4F",
"P+	c #AF6666",
"Q+	c #C57F7F",
"R+	c #C48F8F",
"S+	c #C1A7A7",
"T+	c #C8C4C4",
"U+	c #D9DCDC",
"V+	c #C4C8C8",
"W+	c #A1A2A2",
"X+	c #827D7D",
"Y+	c #735B5B",
"Z+	c #7D5555",
"`+	c #7C4D4D",
" @	c #7C4040",
".@	c #7F3232",
"+@	c #6C3939",
"@@	c #4D4848",
"#@	c #454545",
"$@	c #5B5B5B",
"%@	c #ABABAB",
"&@	c #BB7474",
"*@	c #C88D8D",
"=@	c #B99D9D",
"-@	c #B2B1B1",
";@	c #BAC2C2",
">@	c #C5CCCC",
",@	c #C7BDBD",
"'@	c #A39797",
")@	c #9D8282",
"!@	c #AF7676",
"~@	c #A35C5C",
"{@	c #974F4F",
"]@	c #8D3E3E",
"^@	c #7E2F2F",
"/@	c #571C1C",
"(@	c #4E4C4C",
"_@	c #919292",
":@	c #9B8585",
"<@	c #AE8787",
"[@	c #C0ABAB",
"}@	c #B7B4B4",
"|@	c #A9ACAC",
"1@	c #B0B1B1",
"2@	c #BCB0B0",
"3@	c #C5A4A4",
"4@	c #C49999",
"5@	c #C28989",
"6@	c #C16B6B",
"7@	c #BE5A5A",
"8@	c #A04949",
"9@	c #666767",
"0@	c #767878",
"a@	c #5F6060",
"b@	c #6E6E6E",
"c@	c #C2C1C1",
"d@	c #CDC7C7",
"e@	c #C3BABA",
"f@	c #C5BFBF",
"g@	c #C3B8B8",
"h@	c #BF9C9C",
"i@	c #CA8D8D",
"j@	c #C98484",
"k@	c #C37474",
"l@	c #BF6060",
"m@	c #B14D4D",
"n@	c #7F8080",
"o@	c #616161",
"p@	c #474747",
"q@	c #D6D2D2",
"r@	c #C3B3B3",
"s@	c #BD9090",
"t@	c #CC7C7C",
"u@	c #CB7575",
"v@	c #B06161",
"w@	c #535353",
"x@	c #8F8F8F",
"y@	c #A3A3A3",
"z@	c #978787",
"A@	c #676767",
"B@	c #505050",
"C@	c #575757",
"D@	c #595959",
"E@	c #D1D0D0",
"F@	c #3C3C3C",
"G@	c #D9DADA",
"H@	c #9E9E9E",
"I@	c #DBD7D7",
"J@	c #E1D2D2",
"K@	c #414141",
"L@	c #D0C8C8",
"M@	c #DAB9B9",
"N@	c #E1A7A7",
"O@	c #C3C4C4",
"P@	c #CFB4B4",
"Q@	c #D9A5A5",
"R@	c #DFA4A4",
"S@	c #E3ADAD",
"T@	c #C4C4C4",
"U@	c #B2B8B8",
"V@	c #CDBEBE",
"W@	c #D8A0A0",
"X@	c #DEA2A2",
"Y@	c #E2BBBB",
"Z@	c #989191",
"`@	c #CDA8A8",
" #	c #DB8585",
".#	c #DEA6A6",
"+#	c #E0DCDC",
"@#	c #E4E9E9",
"##	c #6B6C6C",
"$#	c #716565",
"%#	c #C56F6F",
"&#	c #E26060",
"*#	c #E18181",
"=#	c #DCC3C3",
"-#	c #DEE4E4",
";#	c #CDCDCD",
">#	c #969898",
",#	c #986767",
"'#	c #DB6F6F",
")#	c #E28383",
"!#	c #DBBDBD",
"~#	c #E3E3E3",
"{#	c #DADADA",
"]#	c #555050",
"^#	c #BF8B8B",
"/#	c #D3B2B2",
"(#	c #D3D1D1",
"_#	c #D4D5D5",
":#	c #D8D7D7",
"<#	c #D6D6D6",
"[#	c #848383",
"}#	c #999A9A",
"|#	c #656565",
"1#	c #E1E1E1",
"                                                                . + @ # #                                                       ",
"                                                        $ % & * = - . + ;                                                       ",
"                                                                > , ' ) !                                                       ",
"                                                                ~ { ) ] ^                                                       ",
"                                                                / ( _ : < [                                                     ",
"                                              } | 1 2 3 4       5 6 7 8 9 0                                                     ",
"                                          a b c d e 4 f 2 !       g h i j k                                                     ",
"                                            l m * n o 1 p q r     s t u v w                                                     ",
"                                                  x n y 4 z A B   C D E F G H                                                   ",
"                                                    ' I J 4 f K L M N O P Q R                                                   ",
"                                                    S { T ! | U V W X Y Z `  .                                                  ",
"                                                      ..# +.@.d T } # ; T ! #.$.                                                ",
"                                                        %.' &.*.=.} + $ B ) @.I                                                 ",
"                                                          -.$ . ;.;.>.,.>.'.).!.                                                ",
"                                                            ~.b $ ' ,.{.{.].= *.+                                               ",
"                                                            ^./.% (._.& {.% (.:.,                                               ",
"                                                              <.[.}.|.1.2.3.% '.* x                                             ",
"                                                              4.5.6.> 1.-.7.8.b ~ 9.                                            ",
"                                                                0.m a.[./ /.> {.& }.c b.* c.d.e.                                ",
"                                                                ^.f.g...h.i.6.3.a c { + _.j.k.l.                                ",
"                                                                  0.m <.S m.n.o.W a p.3.q.r.                                    ",
"                                                                  s.t.u...i.a.m t.v.1.w./.                                      ",
"                                                                n.i.x.f.1.y.z.n.A.B.z.[.' C.                                    ",
"                                                                D.z.o.^.[.%.E.F./ G.' @.o y I                                   ",
"                                                                H.[.I.J.K.L.n.M.,.# c { N.} ; ).                                ",
"                                                                O.i.P.Q.R.S.m.T.w.%.G.}.x V =.).                                ",
"                                                                    U.V.W.X.Y.Z.S.i.~.8.:.) d .                                 ",
"                                                                `. +.+++@+#+$+%+&+> %.*+=+-+V r !.                              ",
"                                                              ;+>+,+'+)+!+K.~+{+]+^+/.> |./+*.U 4                               ",
"                                                          (+_+:+<+[+}+|+!+i.T.1+2+3+m ~.|.= !.4+                                ",
"                                                        5+6+7+8+9+0+a+b+c+d+e+f+Y.Y.h.*+a '.9.g+D./ m.h+i+                      ",
"                                                    j+k+l+m+n+o+p+q+b+r+s+t+u+v+w+S v.*+%.B.D./ j.8.& x+                        ",
"                                                y+z+A+B+C+D+E+$ F+G+H+I+J+K+L+M+N+Y././ O+m 1.*+_.>.*+                          ",
"                                            P+Q+R+S+T+U+V+W+c -+X+Y+Z+`+ @.@+@@@#@g.a.a.$@$+p.' %@).                            ",
"                                          &@*@=@-@;@>@| ,@'@)@!@~@{@]@^@/@  (@s.0.[.& / F.m >./+x %                             ",
"                                    _@:@<@[@}@|@1@2@3@4@5@6@7@8@          9@0@a@^.1.-.b@B.[.x q.r.&                             ",
"                                m._.c@d@e@f@g@h@i@j@k@l@m@                n@%.z.Y.o@x.h.g+-.3.p.q.'.                            ",
"                            p@g+_.' I q@r@s@t@u@v@                        b@m.E.o@w@u.S b@/.x@y@, c                             ",
"                          <.i.q.a a = -+z@                                  S A@B@A@C@h.-./.9.:.y@(..                           ",
"                          D@D.v.2.%.r.                                            $+5.D.v.w.q.% %@) d                           ",
"                                                                                  f+x.w.G.y.x@|.:.{ !.E@                        ",
"                                                                                  F@x.[.|.}.G.|.,.@ n G@                        ",
"                                                                                    $+y.H@b ]._.# =.! I@J@                      ",
"                                                                                    K@~ (.' -+>.= !.L@M@N@                      ",
"                                                                                    !+~.$ + &.- c O@P@Q@R@S@                    ",
"                                                                                      G.@ &.T@} , U@V@W@X@Y@                    ",
"                                                                                      G.).) +.B ~ Z@`@ #.#+#@#                  ",
"                                                                                      9.- !.4+n ##$#%#&#*#=#-#                  ",
"                                                                                      x+*.;#e 4 >#  ,#'#)#!#C.~#                ",
"                                                                                      7.r ! {#[ b   ]#^#/#(#_#:#                ",
"                                                                                      6.@.<#f A ,     [#( O@} B N.@             ",
"                                                                                      -.r K 4 2 )       }#a -+@ N.{             ",
"                                                                                      5.r | C.2 !.      |#% ;.N.,               ",
"                                                                                      $@} o p z |         ].) {                 ",
"                                                                                      S.; J p 1#          |.                    ",
"                                                                                      [.V y e         j.:.                      ",
"                                                                                      :.) T                                     ",
"                                                                                  1.].                                          ",
"                                                                                                                                ",
"                                                                                                                                ",
"                                                                                                                                ",
"                                                                          w.                                                    ",
"                                                                                                                                ",
"                                                                                                                                "};
