/* XPM */
static char * x_wing7_xpm[] = {
"64 64 397 2",
"  	c None",
". 	c #B0B0B0",
"+ 	c #B7B7B7",
"@ 	c #ADADAD",
"# 	c #B5B5B5",
"$ 	c #B9B9B9",
"% 	c #AEAEAE",
"& 	c #B8B8B8",
"* 	c #B4B4B4",
"= 	c #BCBCBC",
"- 	c #D5D5D5",
"; 	c #E2E2E2",
"> 	c #BFBFBF",
", 	c #BABABA",
"' 	c #ABABAB",
") 	c #BDBDBD",
"! 	c #D2D3D3",
"~ 	c #DADADA",
"{ 	c #DDE2E2",
"] 	c #E4EAEA",
"^ 	c #A6A6A6",
"/ 	c #A1A1A1",
"( 	c #9B9B9B",
"_ 	c #BFC0C0",
": 	c #D0D0D0",
"< 	c #DAC0C0",
"[ 	c #DCC3C3",
"} 	c #E0DEDE",
"| 	c #E2BFBF",
"1 	c #E3ACAC",
"2 	c #858585",
"3 	c #626262",
"4 	c #959696",
"5 	c #B8BBBB",
"6 	c #D2B4B4",
"7 	c #E18787",
"8 	c #E28282",
"9 	c #DEA8A8",
"0 	c #DEA6A6",
"a 	c #E0A2A2",
"b 	c #E1A5A5",
"c 	c #E1D0D0",
"d 	c #BAB4B4",
"e 	c #9F9F9F",
"f 	c #828080",
"g 	c #BF8D8D",
"h 	c #DB7171",
"i 	c #E35F5F",
"j 	c #DD8080",
"k 	c #D89F9F",
"l 	c #D9A3A3",
"m 	c #DAB6B6",
"n 	c #DBD6D6",
"o 	c #DBDCDC",
"p 	c #D3D3D3",
"q 	c #908F8F",
"r 	c #939090",
"s 	c #9D9292",
"t 	c #544E4E",
"u 	c #986767",
"v 	c #C56E6E",
"w 	c #CEA3A3",
"x 	c #CDBFBF",
"y 	c #D0B3B3",
"z 	c #D1C7C7",
"A 	c #D1D1D1",
"B 	c #CBCCCC",
"C 	c #C7C7C7",
"D 	c #C8C8C8",
"E 	c #969797",
"F 	c #8E8E8E",
"G 	c #7B7A7A",
"H 	c #706464",
"I 	c #989090",
"J 	c #B1B8B8",
"K 	c #C2C4C4",
"L 	c #C4C4C4",
"M 	c #C1C1C1",
"N 	c #A3A3A3",
"O 	c #AAAAAA",
"P 	c #AFAFAF",
"Q 	c #959595",
"R 	c #7E7F7F",
"S 	c #D2D2D2",
"T 	c #C6C6C6",
"U 	c #A5A5A5",
"V 	c #A2A2A2",
"W 	c #939696",
"X 	c #6A6B6B",
"Y 	c #838383",
"Z 	c #A7A7A7",
"` 	c #B3B3B3",
" .	c #9C9C9C",
"..	c #8F8F8F",
"+.	c #808080",
"@.	c #B2B2B2",
"#.	c #929292",
"$.	c #7A7A7A",
"%.	c #DEDEDE",
"&.	c #C9C9C9",
"*.	c #E3E3E3",
"=.	c #DFDFDF",
"-.	c #DDDDDD",
";.	c #E6E6E6",
">.	c #E5E5E5",
",.	c #D9D9D9",
"'.	c #CACACA",
").	c #BEBEBE",
"!.	c #C2C2C2",
"~.	c #999999",
"{.	c #989898",
"].	c #9D9D9D",
"^.	c #797979",
"/.	c #C3C3C3",
"(.	c #B6B6B6",
"_.	c #A39C9C",
":.	c #B9B2B2",
"<.	c #D6D6D6",
"[.	c #DCDCDC",
"}.	c #DBDBDB",
"|.	c #CECECE",
"1.	c #898989",
"2.	c #949494",
"3.	c #ACACAC",
"4.	c #8C8C8C",
"5.	c #BBBBBB",
"6.	c #CBCBCB",
"7.	c #868484",
"8.	c #979696",
"9.	c #D7D7D7",
"0.	c #979797",
"a.	c #868686",
"b.	c #7F7F7F",
"c.	c #7C7C7C",
"d.	c #7E7E7E",
"e.	c #7D7D7D",
"f.	c #676767",
"g.	c #595959",
"h.	c #6B6B6B",
"i.	c #7B7B7B",
"j.	c #A9A9A9",
"k.	c #C0C0C0",
"l.	c #CFCFCF",
"m.	c #797A7A",
"n.	c #8A8A8A",
"o.	c #C5C5C5",
"p.	c #A0A0A0",
"q.	c #9A9A9A",
"r.	c #909090",
"s.	c #6F6F6F",
"t.	c #727272",
"u.	c #707070",
"v.	c #777777",
"w.	c #5B5B5B",
"x.	c #4E4E4E",
"y.	c #9E9E9E",
"z.	c #CCCCCC",
"A.	c #747474",
"B.	c #8D8D8D",
"C.	c #636363",
"D.	c #606060",
"E.	c #939393",
"F.	c #919191",
"G.	c #888888",
"H.	c #8B8B8B",
"I.	c #818181",
"J.	c #767676",
"K.	c #6D6D6D",
"L.	c #878787",
"M.	c #787878",
"N.	c #363636",
"O.	c #434343",
"P.	c #565656",
"Q.	c #646464",
"R.	c #4A4A4A",
"S.	c #787877",
"T.	c #696969",
"U.	c #3B3B3B",
"V.	c #575757",
"W.	c #505050",
"X.	c #5D5D5D",
"Y.	c #636365",
"Z.	c #8E8E91",
"`.	c #6E6E6D",
" +	c #4D4D4D",
".+	c #3F3F3F",
"++	c #5B5A5A",
"@+	c #666666",
"#+	c #616161",
"$+	c #656565",
"%+	c #828288",
"&+	c #92929C",
"*+	c #737379",
"=+	c #5C5C5D",
"-+	c #969696",
";+	c #424242",
">+	c #535353",
",+	c #A4A4A4",
"'+	c #757575",
")+	c #626363",
"!+	c #555555",
"~+	c #585353",
"{+	c #655E5E",
"]+	c #4D4C4C",
"^+	c #737375",
"/+	c #8A8A91",
"(+	c #6F6F71",
"_+	c #5E5E5E",
":+	c #717171",
"<+	c #CDCDCD",
"[+	c #D9DBDB",
"}+	c #818080",
"|+	c #777878",
"1+	c #535050",
"2+	c #6D4343",
"3+	c #5B4747",
"4+	c #414141",
"5+	c #656564",
"6+	c #505150",
"7+	c #737373",
"8+	c #D5D6D6",
"9+	c #DDD6D6",
"0+	c #E1ADAD",
"a+	c #E2A6A6",
"b+	c #3D2727",
"c+	c #7C3939",
"d+	c #554A4A",
"e+	c #2F2F2F",
"f+	c #3A3838",
"g+	c #444242",
"h+	c #4D4E4E",
"i+	c #525252",
"j+	c #6E6E6E",
"k+	c #D6C8C8",
"l+	c #DCA6A6",
"m+	c #DFA4A4",
"n+	c #E1B0B0",
"o+	c #E4E5E5",
"p+	c #E4E7E7",
"q+	c #5A1F1F",
"r+	c #7F4A4A",
"s+	c #504949",
"t+	c #151616",
"u+	c #212121",
"v+	c #3E3E3E",
"w+	c #3C3C3C",
"x+	c #393333",
"y+	c #553F3F",
"z+	c #4A4848",
"A+	c #6C6C6C",
"B+	c #6A6A6A",
"C+	c #CFBBBB",
"D+	c #D5A9A9",
"E+	c #DA9E9E",
"F+	c #DEA7A7",
"G+	c #DEC8C8",
"H+	c #DCD7D7",
"I+	c #DCDEDE",
"J+	c #803333",
"K+	c #835E5E",
"L+	c #403C3C",
"M+	c #0D0E0E",
"N+	c #080808",
"O+	c #232424",
"P+	c #403D3D",
"Q+	c #5B3C3C",
"R+	c #733737",
"S+	c #4C4949",
"T+	c #515151",
"U+	c #5F5F5F",
"V+	c #686868",
"W+	c #C4C6C6",
"X+	c #CBC3C3",
"Y+	c #D59E9E",
"Z+	c #E07474",
"`+	c #E18080",
" @	c #DDADAD",
".@	c #D8D1D1",
"+@	c #B1B1B1",
"@@	c #924747",
"#@	c #826262",
"$@	c #333535",
"%@	c #070707",
"&@	c #040404",
"*@	c #313333",
"=@	c #5D4B4B",
"-@	c #7C3A3A",
";@	c #582525",
">@	c #A4A5A5",
",@	c #ABA9A9",
"'@	c #C79696",
")@	c #DF6666",
"!@	c #E26767",
"~@	c #DD9595",
"{@	c #D2D0D0",
"]@	c #9F5C5C",
"^@	c #746060",
"/@	c #3D4141",
"(@	c #222222",
"_@	c #222424",
":@	c #4F4848",
"<@	c #794E4E",
"[@	c #803131",
"}@	c #828282",
"|@	c #545454",
"1@	c #757272",
"2@	c #7E6B6B",
"3@	c #9A6767",
"4@	c #BA7373",
"5@	c #C6A0A0",
"6@	c #BFC2C2",
"7@	c #AB6B6B",
"8@	c #4C5151",
"9@	c #765757",
"0@	c #8B4747",
"a@	c #595A5A",
"b@	c #939494",
"c@	c #555252",
"d@	c #7C7D7D",
"e@	c #8B8C8C",
"f@	c #AC5656",
"g@	c #B78383",
"h@	c #B1B4B4",
"i@	c #ADAEAE",
"j@	c #767272",
"k@	c #945757",
"l@	c #8A3737",
"m@	c #353535",
"n@	c #4B4B4B",
"o@	c #C56767",
"p@	c #A48B8B",
"q@	c #B1B2B2",
"r@	c #C8CACA",
"s@	c #B4B5B5",
"t@	c #A37E7E",
"u@	c #9D4F4F",
"v@	c #C57373",
"w@	c #A39D9D",
"x@	c #A1A3A3",
"y@	c #9C9595",
"z@	c #B46767",
"A@	c #E1E1E1",
"B@	c #B85757",
"C@	c #C08E8E",
"D@	c #C4C0C0",
"E@	c #C4C8C8",
"F@	c #AFACAC",
"G@	c #A68080",
"H@	c #BC5858",
"I@	c #D4D4D4",
"J@	c #D8D8D8",
"K@	c #C26868",
"L@	c #BE9C9C",
"M@	c #D9DCDC",
"N@	c #C4AFAF",
"O@	c #C07272",
"P@	c #E4E4E4",
"Q@	c #C37B7B",
"R@	c #C2A7A7",
"S@	c #C5CCCC",
"T@	c #C9C3C3",
"U@	c #C49494",
"V@	c #BF5A5A",
"W@	c #C48787",
"X@	c #B9B1B1",
"Y@	c #BAC2C2",
"Z@	c #C5A4A4",
"`@	c #C37878",
" #	c #B66A6A",
".#	c #C59292",
"+#	c #ADB0B0",
"@#	c #B5B1B1",
"##	c #CA8C8C",
"$#	c #B85D5D",
"%#	c #C27979",
"&#	c #BA9D9D",
"*#	c #A9ACAC",
"=#	c #C77878",
"-#	c #BC7B7B",
";#	c #BFB8B8",
">#	c #D28A8A",
",#	c #845757",
"'#	c #B39090",
")#	c #C5C1C1",
"!#	c #C7AAAA",
"~#	c #CB7474",
"{#	c #9C8E8E",
"]#	c #BFB5B5",
"^#	c #C5B9B9",
"/#	c #B88888",
"(#	c #D8D3D3",
"_#	c #CDC5C5",
":#	c #9B8181",
"<#	c #CFCECE",
"[#	c #B9B8B8",
"}#	c #949595",
"|#	c #444444",
"                                                                                                                                ",
"                                                                                                                                ",
"                                                                                                                                ",
"                                                                                                                                ",
"                                                                                                                                ",
"                                                                                                                                ",
"                        . +                                                                                                     ",
"                      @ # $                                                                                                     ",
"                    % & * = - ;                                                                                                 ",
"                    > , ' ) ! ~ { ]                                                                                             ",
"                  ^ / ( ^ _ : < [ } | 1                                                                                         ",
"                  2   3 4 5 6 7 8 9 0 a b c                       d                                                             ",
"                e         f g h i j k l m n o p                 q r s                                                           ",
"                            t u v w x y z A B C D ,           E F G                                                             ",
"                                H I J K C L + . M N O N F   , P Q R                                                             ",
"                    S T ) U V W X Y Z P ` ` U  .O V U ..+.U @.N #.$.  %.&.                                                      ",
"                  ; *.=.-.;.>.,.'.).!.= ' / ~.{.]. .N  .F N * Q +.^.p p /.& (.#         _.:.                                    ",
"                <.[.-.}.,.=.-.<.|.C T ).P  .....#.1...2. .3./ 4.$.#.|.> , T /.5.6.      7.8.                                    ",
"              C - 9.p S - <.S |.D > ) (.. Z 0.a.b.c.c.d.e.f.g.h.i.@.$ U j.k.M L l.-   m.n.+.                                    ",
"              !.M ) !.o.o.&.L k.).& # P ^ p.q.r.2 e.s.t.u.v.w.x.2 & ].#.2.y.U # z.Z A.B. .q.                                    ",
"              N 2 C.D.f.d.b.2 E.B.F.#.G.H.G.Y I.J.t.K.t.s.J.A.i.( ].2 L.#.0.~.' ).^.v.r.P #                                     ",
"            O M.                      N.O.P.3 Q.Q.g.R.D.i.L.^.Y ..S.T.I.I.G.r.U V u.+.{.j.'                                     ",
"            Q                               U.x.V.T.W.X.2 a.T.h.J.3 Y.Z.+.`.+.N L.K.+.U 3.Q a.N                                 ",
"                                                   +X.X..+++x.@+#+$+%+&+*+=+J.-+M.;+>+E.P F 1.,+3.@.                            ",
"                                                  3 '+v.)+!+~+{+]+!+^+/+(+_+:+Y M.u.f.s.0.-+N O y.) T <+[+                      ",
"                                                  f.A.}+|+1+2+3+4+_+S.5+W.6+@+$+'+$.v.7+c.4.E.y.U @.(.T 8+9+0+a+                ",
"                                                    K.R T.b+c+d+e+ +7+w.f+g+h+i+d.n.s.v.j+$.Y 2.].q.,+= l.k+l+m+n+o+p+>.        ",
"                                                          q+r+s+t+u+v+w+x+y+z+i+e.n.A+B+:+$.c.n.-+Q ^ 5.D C+D+E+F+G+H+I+%.p # ` ",
"                                                          J+K+L+M+N+O+P+Q+R+S+T+.+U+W. +V+b.a.a.1.2.p.3.5.W+X+Y+Z+`+ @.@! /.` +@",
"                                                          @@#@$@%@&@*@=@-@;@_+A+A+@+V.$+D.t.1.-+].p.Z @.+@>@,@'@)@!@~@{@L . * . ",
"                                                          ]@^@/@(@_@:@<@[@  j+}@$.7+!+|@_+$+$.E.V 3.# ).k.].1@2@3@4@5@6@* O + (.",
"                                                          7@7.X >+8@9@0@    a@+.'+t.    v+!+$++.( O # k.C ).b@      c@d@e@F . + ",
"                                                        f@g@h@i@2.j@k@l@        T+          m@n@M./ (.).L |.- ).            F.  ",
"                                                        o@p@q@r@s@t@u@                          w+I.O 5.T A -.>.o.              ",
"                                                        v@w@x@ .y@z@                                ^.' !.l.<.; A@A         H.  ",
"                                                      B@C@D@E@F@G@H@                                  b.. &.I@,.[.%.J@      ~.  ",
"                                                      K@L@A M@N@O@                                      @+% |.S J@%.P@          ",
"                                                      Q@R@S@T@U@V@                                        B+' D A J@-.          ",
"                                                      W@X@Y@Z@`@                                              e &.- J@          ",
"                                                     #.#+#@###$#                                                 .o.S           ",
"                                                    %#&#*#L@=#                                                  C.3.k.          ",
"                                                    -#;#d >#                                                      (             ",
"                                                  ,#'#)#!#~#                                                      q.            ",
"                                                  {#]#^#/#                                                                      ",
"                                                  + (#_#:#                                                                      ",
"                                                n.& <#[#                                                                        ",
"                                                Y 3.' }#                                                                        ",
"                                                2 ' e t.                                                                        ",
"                                              |#b.#.^.                                                                          ",
"                                                :+J.                                                                            ",
"                                                g.                                                                              ",
"                                                                                                                                ",
"                                                                                                                                ",
"                                                                                                                                ",
"                                                                                                                                ",
"                                                                                                                                ",
"                                                                                                                                ",
"                                                                                                                                ",
"                                                                                                                                ",
"                                                                                                                                ",
"                                                                                                                                ",
"                                                                                                                                ",
"                                                                                                                                ",
"                                                                                                                                "};
