/* XPM */
static char * x_wing11_xpm[] = {
"64 64 397 2",
"  	c None",
". 	c #B3B3B3",
"+ 	c #B1B1B1",
"@ 	c #B0B0B0",
"# 	c #B6B6B6",
"$ 	c #B7B7B7",
"% 	c #B5B5B5",
"& 	c #B4B4B4",
"* 	c #919191",
"= 	c #8B8B8B",
"- 	c #999999",
"; 	c #D3D3D3",
"> 	c #C3C3C3",
", 	c #AAAAAA",
"' 	c #8E8E8E",
") 	c #DEDEDE",
"! 	c #D2D3D3",
"~ 	c #C4C4C4",
"{ 	c #8B8C8C",
"] 	c #E5E5E5",
"^ 	c #DCDEDE",
"/ 	c #D8D1D1",
"( 	c #D2D0D0",
"_ 	c #BFC2C2",
": 	c #7C7D7D",
"< 	c #E4E7E7",
"[ 	c #DCD7D7",
"} 	c #DDADAD",
"| 	c #DD9595",
"1 	c #C6A0A0",
"2 	c #555252",
"3 	c #D8D8D8",
"4 	c #E4E4E4",
"5 	c #DDDDDD",
"6 	c #D2D2D2",
"7 	c #C0C0C0",
"8 	c #E4E5E5",
"9 	c #DEC8C8",
"0 	c #E18080",
"a 	c #E26767",
"b 	c #BA7373",
"c 	c #D1D1D1",
"d 	c #D5D5D5",
"e 	c #C5C5C5",
"f 	c #ACACAC",
"g 	c #9B9B9B",
"h 	c #9A9A9A",
"i 	c #E1B0B0",
"j 	c #DEA7A7",
"k 	c #E07474",
"l 	c #DF6666",
"m 	c #9A6767",
"n 	c #E1E1E1",
"o 	c #DCDCDC",
"p 	c #C9C9C9",
"q 	c #9C9C9C",
"r 	c #636363",
"s 	c #E2A6A6",
"t 	c #DFA4A4",
"u 	c #DA9E9E",
"v 	c #D59E9E",
"w 	c #C79696",
"x 	c #7E6B6B",
"y 	c #BEBEBE",
"z 	c #E2E2E2",
"A 	c #D9D9D9",
"B 	c #C8C8C8",
"C 	c #9F9F9F",
"D 	c #E1ADAD",
"E 	c #DCA6A6",
"F 	c #D5A9A9",
"G 	c #CBC3C3",
"H 	c #ABA9A9",
"I 	c #757272",
"J 	c #939494",
"K 	c #D6D6D6",
"L 	c #D4D4D4",
"M 	c #CECECE",
"N 	c #ABABAB",
"O 	c #DDD6D6",
"P 	c #D6C8C8",
"Q 	c #CFBBBB",
"R 	c #C4C6C6",
"S 	c #A4A5A5",
"T 	c #9D9D9D",
"U 	c #CFCFCF",
"V 	c #AEAEAE",
"W 	c #6A6A6A",
"X 	c #D9DBDB",
"Y 	c #D5D6D6",
"Z 	c #BBBBBB",
"` 	c #C7C7C7",
" .	c #C6C6C6",
"..	c #C2C2C2",
"+.	c #666666",
"@.	c #CDCDCD",
"#.	c #BCBCBC",
"$.	c #B2B2B2",
"%.	c #7F7F7F",
"&.	c #A4A4A4",
"*.	c #A6A6A6",
"=.	c #A0A0A0",
"-.	c #A7A7A7",
";.	c #797979",
">.	c #BDBDBD",
",.	c #959595",
"'.	c #949494",
").	c #A1A1A1",
"!.	c #818181",
"~.	c #9E9E9E",
"{.	c #A5A5A5",
"].	c #969696",
"^.	c #898989",
"/.	c #A2A2A2",
"(.	c #787878",
"_.	c #3C3C3C",
":.	c #A3A3A3",
"<.	c #8A8A8A",
"[.	c #868686",
"}.	c #939393",
"|.	c #808080",
"1.	c #4B4B4B",
"2.	c #838383",
"3.	c #7C7C7C",
"4.	c #7A7A7A",
"5.	c #656565",
"6.	c #353535",
"7.	c #B9B2B2",
"8.	c #979696",
"9.	c #8C8C8C",
"0.	c #727272",
"a.	c #555555",
"b.	c #A39C9C",
"c.	c #868484",
"d.	c #AFAFAF",
"e.	c #A9A9A9",
"f.	c #979797",
"g.	c #6E6E6E",
"h.	c #717171",
"i.	c #686868",
"j.	c #606060",
"k.	c #5E5E5E",
"l.	c #3E3E3E",
"m.	c #797A7A",
"n.	c #8D8D8D",
"o.	c #909090",
"p.	c #989898",
"q.	c #6F6F6F",
"r.	c #737373",
"s.	c #777777",
"t.	c #4D4D4D",
"u.	c #545454",
"v.	c #747474",
"w.	c #535353",
"x.	c #676767",
"y.	c #6C6C6C",
"z.	c #505050",
"A.	c #575757",
"B.	c #707070",
"C.	c #6D6D6D",
"D.	c #424242",
"E.	c #5F5F5F",
"F.	c #CBCBCB",
"G.	c #CCCCCC",
"H.	c #878787",
"I.	c #757575",
"J.	c #7E7E7E",
"K.	c #7D7D7D",
"L.	c #3F3F3F",
"M.	c #515151",
"N.	c #525252",
"O.	c #828282",
"P.	c #C1C1C1",
"Q.	c #767676",
"R.	c #4D4E4E",
"S.	c #4A4848",
"T.	c #4C4949",
"U.	c #595A5A",
"V.	c #B8B8B8",
"W.	c #888888",
"X.	c #6E6E6D",
"Y.	c #5C5C5D",
"Z.	c #505150",
"`.	c #444242",
" +	c #553F3F",
".+	c #733737",
"++	c #582525",
"@+	c #BABABA",
"#+	c #929292",
"$+	c #737379",
"%+	c #6F6F71",
"&+	c #3A3838",
"*+	c #393333",
"=+	c #5B3C3C",
"-+	c #7C3A3A",
";+	c #803131",
">+	c #BFBFBF",
",+	c #8E8E91",
"'+	c #92929C",
")+	c #8A8A91",
"!+	c #656564",
"~+	c #5B5B5B",
"{+	c #403D3D",
"]+	c #5D4B4B",
"^+	c #794E4E",
"/+	c #8B4747",
"(+	c #8A3737",
"_+	c #9D9292",
":+	c #B9B9B9",
"<+	c #858585",
"[+	c #696969",
"}+	c #636365",
"|+	c #828288",
"1+	c #737375",
"2+	c #787877",
"3+	c #232424",
"4+	c #313333",
"5+	c #4F4848",
"6+	c #765757",
"7+	c #945757",
"8+	c #9D4F4F",
"9+	c #BAB4B4",
"0+	c #939090",
"a+	c #7B7A7A",
"b+	c #7E7F7F",
"c+	c #626262",
"d+	c #212121",
"e+	c #080808",
"f+	c #040404",
"g+	c #222424",
"h+	c #4C5151",
"i+	c #767272",
"j+	c #A37E7E",
"k+	c #B46767",
"l+	c #BC5858",
"m+	c #908F8F",
"n+	c #7B7B7B",
"o+	c #8F8F8F",
"p+	c #616161",
"q+	c #4D4C4C",
"r+	c #414141",
"s+	c #2F2F2F",
"t+	c #151616",
"u+	c #0D0E0E",
"v+	c #070707",
"w+	c #222222",
"x+	c #B4B5B5",
"y+	c #9C9595",
"z+	c #A68080",
"A+	c #C07272",
"B+	c #BF5A5A",
"C+	c #969797",
"D+	c #6B6B6B",
"E+	c #4E4E4E",
"F+	c #655E5E",
"G+	c #5B4747",
"H+	c #554A4A",
"I+	c #504949",
"J+	c #403C3C",
"K+	c #333535",
"L+	c #3D4141",
"M+	c #6A6B6B",
"N+	c #ADAEAE",
"O+	c #C8CACA",
"P+	c #AFACAC",
"Q+	c #C4AFAF",
"R+	c #C49494",
"S+	c #C37878",
"T+	c #B85D5D",
"U+	c #595959",
"V+	c #585353",
"W+	c #6D4343",
"X+	c #7C3939",
"Y+	c #7F4A4A",
"Z+	c #835E5E",
"`+	c #826262",
" @	c #746060",
".@	c #B1B4B4",
"+@	c #B1B2B2",
"@@	c #A1A3A3",
"#@	c #C4C8C8",
"$@	c #D9DCDC",
"%@	c #C9C3C3",
"&@	c #C5A4A4",
"*@	c #CA8C8C",
"=@	c #C77878",
"-@	c #5B5A5A",
";@	c #535050",
">@	c #3D2727",
",@	c #5A1F1F",
"'@	c #803333",
")@	c #924747",
"!@	c #9F5C5C",
"~@	c #AB6B6B",
"{@	c #B78383",
"]@	c #A48B8B",
"^@	c #A39D9D",
"/@	c #C4C0C0",
"(@	c #C5CCCC",
"_@	c #BAC2C2",
":@	c #B5B1B1",
"<@	c #BE9C9C",
"[@	c #D28A8A",
"}@	c #CB7474",
"|@	c #626363",
"1@	c #777878",
"2@	c #AC5656",
"3@	c #C56767",
"4@	c #C57373",
"5@	c #C08E8E",
"6@	c #C2A7A7",
"7@	c #B9B1B1",
"8@	c #ADB0B0",
"9@	c #A9ACAC",
"0@	c #C7AAAA",
"a@	c #B88888",
"b@	c #9B8181",
"c@	c #5D5D5D",
"d@	c #818080",
"e@	c #B85757",
"f@	c #C26868",
"g@	c #C37B7B",
"h@	c #C48787",
"i@	c #C59292",
"j@	c #BA9D9D",
"k@	c #BFB8B8",
"l@	c #C5C1C1",
"m@	c #C5B9B9",
"n@	c #CDC5C5",
"o@	c #B9B8B8",
"p@	c #949595",
"q@	c #4A4A4A",
"r@	c #B66A6A",
"s@	c #C27979",
"t@	c #BC7B7B",
"u@	c #B39090",
"v@	c #BFB5B5",
"w@	c #D8D3D3",
"x@	c #CFCECE",
"y@	c #845757",
"z@	c #9C8E8E",
"A@	c #646464",
"B@	c #444444",
"C@	c #DBDCDC",
"D@	c #CBCCCC",
"E@	c #3B3B3B",
"F@	c #E1D0D0",
"G@	c #DBD6D6",
"H@	c #565656",
"I@	c #E1A5A5",
"J@	c #DAB6B6",
"K@	c #D1C7C7",
"L@	c #434343",
"M@	c #E3ACAC",
"N@	c #E0A2A2",
"O@	c #D9A3A3",
"P@	c #D0B3B3",
"Q@	c #C2C4C4",
"R@	c #363636",
"S@	c #E2BFBF",
"T@	c #DEA6A6",
"U@	c #D89F9F",
"V@	c #CDBFBF",
"W@	c #B1B8B8",
"X@	c #E4EAEA",
"Y@	c #E0DEDE",
"Z@	c #DEA8A8",
"`@	c #DD8080",
" #	c #CEA3A3",
".#	c #989090",
"+#	c #DDE2E2",
"@#	c #DCC3C3",
"##	c #E28282",
"$#	c #E35F5F",
"%#	c #C56E6E",
"&#	c #706464",
"*#	c #CACACA",
"=#	c #DADADA",
"-#	c #DAC0C0",
";#	c #E18787",
">#	c #DB7171",
",#	c #986767",
"'#	c #939696",
")#	c #D0D0D0",
"!#	c #D2B4B4",
"~#	c #BF8D8D",
"{#	c #544E4E",
"]#	c #BFC0C0",
"^#	c #B8BBBB",
"/#	c #828080",
"(#	c #E6E6E6",
"_#	c #DFDFDF",
":#	c #959696",
"<#	c #ADADAD",
"[#	c #DBDBDB",
"}#	c #E3E3E3",
"|#	c #D7D7D7",
"                                                      . + @ # $                                                                 ",
"                                                      % . & $ @ *   = -                                                         ",
"                                                      ; > @ , '                                                                 ",
"                                                      ) ! ~ & {                                                                 ",
"                                                    ] ^ / ( _ :                                                                 ",
"                                                    < [ } | 1 2       3 4 5 3 6 7                                               ",
"                                                    8 9 0 a b       c ) ) 3 d e f g h                                           ",
"                                                    i j k l m     e n o 3 c p q r                                               ",
"                                                  s t u v w x   y ] z A 6 B C                                                   ",
"                                                  D E F G H I J d 5 K L M N                                                     ",
"                                                  O P Q R S T y M c U p V W                                                     ",
"                                                X Y U B Z + 7 ` ~  ...@ +.                                                      ",
"                                                @. .#.Z f $.y 7 y Z N %.                                                        ",
"                                                 .# &.*.=.-.% % # , ;.                                                          ",
"                                              $.>.$.h ,.'.=.f , ).!.                                                            ",
"                                              f ~.{.T ].^.T /.g (._.                                                            ",
"                                            :.&., ~.'.<.[.].}.|.1.                                                              ",
"                                            [.^.:.}.2.3.[.^.4.5.6.                                                              ",
"                                7.8.|.h % N ,.' ].9.4.4.%.0.5.a.                                                                ",
"                                b.c.<.q d.e.f d.f.3.g.h.i.j.k.l.                                                                ",
"                                    m.n.o.p.{.}.q.r.s.W t.5.u.                                                                  ",
"                                      v.s.|.|.w.x.s.q.y.z.A.a.                                                                  ",
"                                    d -.;.B.C.D.B.4.<.<.E.+.r.0.                                                                ",
"                                  F.U G.y /.H.(.(.I.J.K.L.y.4.I.M.                                                              ",
"                                % Z ~ % N {.:.].2.5.N.N.M.y.O.|.                                                                ",
"                                # > P.{.- o.|.Q.h.+.R.S.T.k.g.U.                                                                ",
"                                V. .7 ~.f.W.X.Y.k.Z.`. +.+++                                                                    ",
"                              p > @+e.'.#+!.|.$+%+z.&+*+=+-+;+                                                                  ",
"                              ) ; >+{.#+H.!.,+'+)+!+~+_.{+]+^+/+(+                                                              ",
"                        _+      ; M :+T <+[+}+|+1+2+r.l.3+4+5+6+7+8+                                                            ",
"                      9+0+a+b+4.;.#+$.V.T 2+c+5.a.k.t.d+e+f+g+h+i+j+k+l+                                                        ",
"                        m+' ,.#+|.4.n+<+g o+Q.p+q+r+s+t+u+v+w+w.'.x+y+z+A+B+                                                    ",
"                          C+d.:.,.9.D+E+n+2.D++.F+G+H+I+J+K+L+M+N+O+q P+Q+R+S+T+                                                ",
"                            @+$.& ).U+~+v.;.[+E+V+W+X+Y+Z+`+ @c..@+@@@#@$@%@&@*@=@                                              ",
"                              {.:.f x.s.Q.H.[.-@a.;@>@,@'@)@!@~@{@]@^@/@c (@_@:@<@[@}@                                          ",
"                            ' |.' q K.B.q.n+<+L.|@1@[+          2@3@4@5@<@6@7@8@9@9+0@a@b@                                      ",
"                            :.o+q '.J.0.0.j.c@c@s.d@b+                e@f@g@h@i@j@k@l@m@n@o@p@0.                                ",
"                            , {.:.o+3.q.C.q@z.c@I.v.C.                        r@s@t@u@v@w@x@N C ;.                              ",
"                          @+:./.q ^.3.K.0.U+[+t.c+x.                                y@z@$ V.f N #+Q.                            ",
"                          B P., T #+%.<+Q.A@A.                                            <.2.<+%.h.U+                          ",
"                        ; ` @ q p.o+[.o.!.A@E+                                                  B@                              ",
"                        C@D@$ {.- o+f.h 2.c+E@                                                                                  ",
"                      F@G@c ~ . ).q -.=.W.H@                                                                                    ",
"                      I@J@K@` . N d.@ *.= L@                                                                                    ",
"                    M@N@O@P@Q@d.#.y # d.W.R@                                                                                    ",
"                    S@T@U@V@W@-... .>.% #+                                                                                      ",
"                  X@Y@Z@`@ #.#2.y ` >+V.*                                                                                       ",
"                  +#@###$#%#&#M+*#M B y n.                                                                                      ",
"                z =#-#;#>#,#  '#A K M 7 }.                                                                                      ",
"                d ! )#!#~#{#  /.] 5 6 ~ <+                                                                                      ",
"            $ :+#.>.]#^#/#    {.(#_#K p %.                                                                                      ",
"            @ % & N *.:#      >.5 A d e J.                                                                                      ",
"              <#V.@+g c+       ._#[#6 e x.                                                                                      ",
"                V >+).        6 }#5 ; ..j.                                                                                      ",
"                    *.<+        z o |#>.r                                                                                       ",
"                        C         K d P.<+                                                                                      ",
"                                    ` ..:.(.                                                                                    ",
"                                          , ,.                                                                                  ",
"                                                                                                                                ",
"                                                                                                                                ",
"                                                                                                                                ",
"                                                                                                                                ",
"                                                                                                                                ",
"                                                                                                                                "};
