/* XPM */
static char * x_wing4_xpm[] = {
"64 64 360 2",
"  	c None",
". 	c #969695",
"+ 	c #929292",
"@ 	c #ACACAC",
"# 	c #ADADAD",
"$ 	c #848484",
"% 	c #BFBFBF",
"& 	c #B3B3B3",
"* 	c #9E9E9E",
"= 	c #A8A8A8",
"- 	c #ABABAB",
"; 	c #AEAEAE",
"> 	c #C9C9C9",
", 	c #D1D1D1",
"' 	c #D2D2D2",
") 	c #7D7D7D",
"! 	c #BABABA",
"~ 	c #B9B9B9",
"{ 	c #B2B2B2",
"] 	c #B0B0B0",
"^ 	c #747474",
"/ 	c #969696",
"( 	c #D4D4D4",
"_ 	c #DADADA",
": 	c #E1E1E1",
"< 	c #E4E4E4",
"[ 	c #878787",
"} 	c #A5A5A5",
"| 	c #B8B8B8",
"1 	c #A3A3A3",
"2 	c #D0D0D0",
"3 	c #D7D7D7",
"4 	c #DFDFDF",
"5 	c #E0E0E0",
"6 	c #9F9F9F",
"7 	c #CBCBCB",
"8 	c #777777",
"9 	c #C7C7C7",
"0 	c #DBDBDB",
"a 	c #DDDDDD",
"b 	c #CECECE",
"c 	c #B6B3B3",
"d 	c #CBCCCC",
"e 	c #D0D2D2",
"f 	c #D8D8D8",
"g 	c #D6D6D6",
"h 	c #DCDCDC",
"i 	c #5A5151",
"j 	c #CB8E8E",
"k 	c #DD9A9A",
"l 	c #DABFBF",
"m 	c #DADBDB",
"n 	c #E2E2E2",
"o 	c #A0A0A0",
"p 	c #E7E7E7",
"q 	c #726060",
"r 	c #D66C6C",
"s 	c #E46767",
"t 	c #DDA7A7",
"u 	c #DCDEDE",
"v 	c #7B7B7B",
"w 	c #C4C4C4",
"x 	c #D9D9D9",
"y 	c #C8C8C8",
"z 	c #846767",
"A 	c #D96A6A",
"B 	c #E26767",
"C 	c #DEB0B0",
"D 	c #E1E2E2",
"E 	c #E7E9E9",
"F 	c #494949",
"G 	c #B1B1B1",
"H 	c #CACACA",
"I 	c #5B5B5B",
"J 	c #8D8181",
"K 	c #CDA2A2",
"L 	c #DA9090",
"M 	c #DDA3A3",
"N 	c #E1B4B4",
"O 	c #9B9B9B",
"P 	c #C0C0C0",
"Q 	c #C5C5C5",
"R 	c #979797",
"S 	c #C5C8C8",
"T 	c #D3ABAB",
"U 	c #DBA0A0",
"V 	c #E1A5A5",
"W 	c #767676",
"X 	c #BDBDBD",
"Y 	c #C1C1C1",
"Z 	c #A9A9A9",
"` 	c #C5C6C6",
" .	c #D2B0B0",
"..	c #DAA7A7",
"+.	c #E0A4A4",
"@.	c #4A4A4A",
"#.	c #A4A4A4",
"$.	c #C2C2C2",
"%.	c #BCBCBC",
"&.	c #CECBCB",
"*.	c #D7CECE",
"=.	c #DFD1D1",
"-.	c #888888",
";.	c #B7B7B7",
">.	c #BEBEBE",
",.	c #D3D4D4",
"'.	c #646464",
").	c #A1A1A1",
"!.	c #AFAFAF",
"~.	c #D3D3D3",
"{.	c #4F4F4F",
"].	c #8C8C8C",
"^.	c #919191",
"/.	c #4B4B4B",
"(.	c #797979",
"_.	c #959595",
":.	c #989898",
"<.	c #9D9D9D",
"[.	c #C3C3C3",
"}.	c #505050",
"|.	c #696969",
"1.	c #8E8E8E",
"2.	c #808080",
"3.	c #9C9C9C",
"4.	c #4D4D4D",
"5.	c #636363",
"6.	c #757575",
"7.	c #7C7C7C",
"8.	c #838383",
"9.	c #A7A7A7",
"0.	c #474747",
"a.	c #616161",
"b.	c #606060",
"c.	c #7F7F7F",
"d.	c #939393",
"e.	c #909090",
"f.	c #4E4E4E",
"g.	c #6D6D6D",
"h.	c #6C6C6C",
"i.	c #7A7A7A",
"j.	c #949494",
"k.	c #8A8A8A",
"l.	c #666666",
"m.	c #727272",
"n.	c #5F5F5F",
"o.	c #6B6B6B",
"p.	c #6F6F6F",
"q.	c #8B8B8B",
"r.	c #A6A6A6",
"s.	c #9A9A9A",
"t.	c #737373",
"u.	c #545454",
"v.	c #6E6E6E",
"w.	c #676767",
"x.	c #555555",
"y.	c #7E7E7E",
"z.	c #686868",
"A.	c #3F3F3F",
"B.	c #464646",
"C.	c #949393",
"D.	c #B9B3B3",
"E.	c #6A6A6A",
"F.	c #757676",
"G.	c #616262",
"H.	c #515151",
"I.	c #434343",
"J.	c #8D8D8D",
"K.	c #868686",
"L.	c #898383",
"M.	c #B9ABAB",
"N.	c #453636",
"O.	c #514848",
"P.	c #525151",
"Q.	c #626262",
"R.	c #858585",
"S.	c #903A3A",
"T.	c #8A3A3A",
"U.	c #853939",
"V.	c #813838",
"W.	c #7C3939",
"X.	c #744444",
"Y.	c #685D5D",
"Z.	c #BBBBBB",
"`.	c #CCCCCC",
" +	c #B95F5F",
".+	c #BF6363",
"++	c #C26565",
"@+	c #C66666",
"#+	c #C86969",
"$+	c #C46C6C",
"%+	c #B96C6C",
"&+	c #AA6B6B",
"*+	c #9A6666",
"=+	c #8D6464",
"-+	c #7E6161",
";+	c #6D5B5B",
">+	c #594F4F",
",+	c #494343",
"'+	c #494747",
")+	c #525252",
"!+	c #686867",
"~+	c #CDCDCD",
"{+	c #8F8F8F",
"]+	c #A4A1A1",
"^+	c #9B7777",
"/+	c #AB6D6D",
"(+	c #C27F7F",
"_+	c #CB8888",
":+	c #C78B8B",
"<+	c #C38E8E",
"[+	c #C19595",
"}+	c #BE9C9C",
"|+	c #BDA7A7",
"1+	c #A89B9B",
"2+	c #999090",
"3+	c #B3ADAD",
"4+	c #9A9999",
"5+	c #606262",
"6+	c #444646",
"7+	c #313232",
"8+	c #242525",
"9+	c #1C1C1C",
"0+	c #333333",
"a+	c #6C6C6D",
"b+	c #5E5E5F",
"c+	c #818181",
"d+	c #CFCECE",
"e+	c #D3CECE",
"f+	c #C0B7B7",
"g+	c #C2BABA",
"h+	c #BEB8B8",
"i+	c #ACA8A8",
"j+	c #ADACAC",
"k+	c #B5B7B7",
"l+	c #C0C2C2",
"m+	c #CBCDCD",
"n+	c #D7D8D8",
"o+	c #B7B8B8",
"p+	c #9C9D9D",
"q+	c #C7C8C8",
"r+	c #292929",
"s+	c #070707",
"t+	c #060606",
"u+	c #161616",
"v+	c #656565",
"w+	c #919199",
"x+	c #8D8D96",
"y+	c #828282",
"z+	c #C6C6C6",
"A+	c #AAAAAA",
"B+	c #D2CDCD",
"C+	c #C3B4B4",
"D+	c #C5B7B7",
"E+	c #C2B8B8",
"F+	c #AFA8A8",
"G+	c #B0ACAC",
"H+	c #C6C7C7",
"I+	c #5D5D5D",
"J+	c #2A2A2A",
"K+	c #080808",
"L+	c #0B0B0B",
"M+	c #202020",
"N+	c #8F8F97",
"O+	c #84848C",
"P+	c #787878",
"Q+	c #9A9797",
"R+	c #A27777",
"S+	c #BB6F6F",
"T+	c #D27F7F",
"U+	c #D38484",
"V+	c #CC8686",
"W+	c #C98B8B",
"X+	c #C69090",
"Y+	c #C49999",
"Z+	c #C2A2A2",
"`+	c #A99595",
" @	c #948888",
".@	c #ACA4A4",
"+@	c #949090",
"@@	c #4E5050",
"#@	c #3E3F3F",
"$@	c #373838",
"%@	c #343535",
"&@	c #3C3C3C",
"*@	c #676768",
"=@	c #5C5C5E",
"-@	c #BA5959",
";@	c #BF5D5D",
">@	c #C15E5E",
",@	c #C35F5F",
"'@	c #BD5F5F",
")@	c #B15E5E",
"!@	c #A25C5C",
"~@	c #935757",
"{@	c #865555",
"]@	c #775050",
"^@	c #684D4D",
"/@	c #554545",
"(@	c #403636",
"_@	c #353131",
":@	c #5A5A5A",
"<@	c #717171",
"[@	c #873434",
"}@	c #833434",
"|@	c #813333",
"1@	c #7F3232",
"2@	c #733838",
"3@	c #524444",
"4@	c #525353",
"5@	c #A2A2A2",
"6@	c #D5D5D5",
"7@	c #3C2F2F",
"8@	c #4B4242",
"9@	c #4A4949",
"0@	c #585858",
"a@	c #747575",
"b@	c #858181",
"c@	c #B5ACAC",
"d@	c #898989",
"e@	c #929191",
"f@	c #B9B2B2",
"g@	c #B5B5B5",
"h@	c #4C4C4C",
"i@	c #5E5E5E",
"j@	c #DBDCDC",
"k@	c #454545",
"l@	c #CDCBCB",
"m@	c #D7D0D0",
"n@	c #DFD3D3",
"o@	c #D1B1B1",
"p@	c #DAAAAA",
"q@	c #E0A6A6",
"r@	c #D3AAAA",
"s@	c #DBA1A1",
"t@	c #CFCFCF",
"u@	c #8D8282",
"v@	c #CCA7A7",
"w@	c #D89595",
"x@	c #DDA0A0",
"y@	c #E1B0B0",
"z@	c #D96B6B",
"A@	c #E16969",
"B@	c #DEAFAF",
"C@	c #E1E0E0",
"D@	c #E8E8E8",
"E@	c #E46666",
"F@	c #DDA6A6",
"G@	c #DDDFDF",
"H@	c #E5E5E5",
"I@	c #DEDEDE",
"J@	c #5C5353",
"K@	c #CB8B8B",
"L@	c #DE9595",
"M@	c #DBBCBC",
"N@	c #E3E3E3",
"O@	c #B8B5B5",
"P@	c #CECDCD",
"Q@	c #B4B4B4",
"R@	c #B6B6B6",
"S@	c #999999",
"                                                                                                                                ",
"                                                                        .                                                       ",
"                                                  +                             @ #                                             ",
"                                                                                    $ @ % & @                                   ",
"                                                            * = - ; > , '             ) & ! ~ { ]                               ",
"                                                                ^ / % ( _ : <         [ } - { |                                 ",
"                                                                    1 2 3 4 5         6 ~ % 7 2                                 ",
"                                                                    8 9 ' 0 a b       c d e f :                                 ",
"                                                                      ! 2 g h a     i j k l m n                                 ",
"                                                                      o 2 f 5 p }   q r s t u <                                 ",
"                                                                      v w , x : y   z A B C D E                                 ",
"                                                                      F G H 2 ' y I J K L M N                                   ",
"                                                                        O P y 7 Q + R S T U V                                   ",
"                                                                        W & X Y > ! Z `  ...+.                                  ",
"                                                                        @.#.~ X $.%.] w &.*.=.                                  ",
"                                                                          -.; & ;.; Z >.> ,.a                                   ",
"                                                                          '.6 Z # 6 ).!.;.y ~.                                  ",
"                                                                          {.].o 1 ^.R / #.P y                                   ",
"                                                                          /.(._.:.[ / <.; [.Q                                   ",
"                                                                          }.|.-.1.2.+ 3.1 3.Z                                   ",
"                                                                          4.5.6.$ 7.8.+ 9.} ]                                   ",
"                                                                          0.a.b.) 8 c.d.} e.O                                   ",
"                                                                          @.|.f.g.h.i.^.j.) k.                                  ",
"                                                                      l.m.n.f.@.o.W p.q.r.s.- G                                 ",
"                                                                      t.6.8 u.^ ^ v.^ w.@ ;.!.%.r.)                             ",
"                                                                    x.8.y.z.A.].q.8 y.B.8.<.j.6 :.].C.D.                        ",
"                                                                      E.F.G.H.p.) 6.h.I.W 8.2.J.K.6.L.M.                        ",
"                                                                        N.O.P.f.Q.8.R.i.2.v v i.                                ",
"                                                                S.T.U.V.W.X.Y.z.W $ 6 G Z.w `.0                                 ",
"                                                 +.+++@+#+$+%+&+*+=+-+;+>+,+'+)+5.!+8 k.* !.% ~+'                               ",
"                          B.n.8 {+- ]+^+/+(+_+:+<+[+}+|+1+2+3+4+5+6+7+8+9+0+/.x.a+b+l.c+J.:.Z Y !                               ",
"                        l.8 j.@ # d+e+f+g+h+i+j+k+l+m+n+o+p+q+#.I r+s+t+u+@.7.v+w+x+].y+d.R %.z+;.                              ",
"                        z.7./ A+A+H B+C+D+E+F+G+;.l+m+n+o+3.H+1 I+J+K+L+M+)+2.|.N+O+2.c+_.s.X 9 |                               ",
"                            l.P+[ O Q+R+S+T+U+V+W+X+Y+Z+`+ @.@+@Q.@@#@$@%@&@0.f.*@=@Q.8._.O ; Q ~                               ",
"                                                  -@;@>@,@'@)@!@~@{@]@^@/@(@_@A.:@5.<@[ :.- %.H b                               ",
"                                                                [@[@}@|@1@2@3@4@l.i.+ 5@; ~ [.6@                                ",
"                                                                        7@8@9@I.0@v y+(.(.^ t.^                                 ",
"                                                                      z.a@b.4.l.8 ^ h.I.p.v (.K.c+p.b@c@                        ",
"                                                                      $ c.v+A.q.{+v c.B.2.s.^.3./ d@e@f@                        ",
"                                                                      ^ P+i.x.i.6.v.P+w.} ] = g@o 7.O                           ",
"                                                                      E.6.5.H.{.E.8 t.1.# * r.{                                 ",
"                                                                          h@w.4.o.o.P++ j.y.R.                                  ",
"                                                                          B.5.i@) P+y.d.1 + <.                                  ",
"                                                                          4.5.m.y+i.8.+ Z Z ;.                                  ",
"                                                                          H.z.R.J.c+^.3.#.* =                                   ",
"                                                                          {.P+d./ K./ <.; $.w                                   ",
"                                                                          4.k.* ).{+/ _.#.P 9                                   ",
"                                                                          a.3.9.- <.6 @ & z+,                                   ",
"                                                                          $ - G g@- = %.9 ' j@                                  ",
"                                                                        k@).;.Z.P ! !.w l@m@n@                                  ",
"                                                                        m.G X $.9 Z.A+` o@p@q@                                  ",
"                                                                        :.%.z+9 [./ :.S r@s@q@                                  ",
"                                                                        ] > t@6@y I+u@v@w@x@y@                                  ",
"                                                                      P+[.t@6@4 >   z z@A@B@C@D@                                ",
"                                                                      * t@f 5 p =   q r E@F@G@H@                                ",
"                                                                      | t@g h I@    J@K@L@M@j@N@                                ",
"                                                                    t.z+, 0 a t@      O@P@,.x n                                 ",
"                                                                    6 t@g I@4         1 X [.t@~.                                ",
"                                                                |.^.X ' x 5 N@        k.= # { Q@                                ",
"                                                            {+:.O = > ~.(             c.{ g@R@Q@{                               ",
"                                                                                    t.6 % g@Z S@                                ",
"                                                  (.                            :.O                                             ",
"                                                                        <@                                                      ",
"                                                                                                                                "};
