/* XPM */
static char * x_wing6_xpm[] = {
"64 64 379 2",
"  	c None",
". 	c #ADADAD",
"+ 	c #B1B1B1",
"@ 	c #B4B4B4",
"# 	c #B5B5B5",
"$ 	c #B3B3B3",
"% 	c #BDBDBD",
"& 	c #A1A1A1",
"* 	c #AFAFAF",
"= 	c #B6B6B6",
"- 	c #C9C9C9",
"; 	c #D8D8D8",
"> 	c #787878",
", 	c #7E7E7E",
"' 	c #999999",
") 	c #ABABAB",
"! 	c #BEBEBE",
"~ 	c #D0CFCF",
"{ 	c #D9DADA",
"] 	c #DCDEDE",
"^ 	c #808080",
"/ 	c #AEADAD",
"( 	c #C5C3C3",
"_ 	c #D4C6C6",
": 	c #D9CECE",
"< 	c #4F4F4F",
"[ 	c #A09B9B",
"} 	c #C9ABAB",
"| 	c #D99B9B",
"1 	c #DCA7A7",
"2 	c #DDCCCC",
"3 	c #E1D3D3",
"4 	c #6F6161",
"5 	c #B87E7E",
"6 	c #DA7272",
"7 	c #DF7A7A",
"8 	c #DDA4A4",
"9 	c #DEB1B1",
"0 	c #E1AAAA",
"a 	c #D7D7D7",
"b 	c #C6C6C6",
"c 	c #895D5D",
"d 	c #C66868",
"e 	c #D97777",
"f 	c #D99494",
"g 	c #DAA2A2",
"h 	c #DDA2A2",
"i 	c #DFADAD",
"j 	c #CDCDCD",
"k 	c #DADADA",
"l 	c #DFDFDF",
"m 	c #DCDCDC",
"n 	c #D3D3D3",
"o 	c #BCBCBC",
"p 	c #888888",
"q 	c #986E6E",
"r 	c #C09595",
"s 	c #CEADAD",
"t 	c #D3AAAA",
"u 	c #D8B0B0",
"v 	c #DBC4C4",
"w 	c #DDD7D7",
"x 	c #C2C2C2",
"y 	c #CFCFCF",
"z 	c #D6D6D6",
"A 	c #DBDBDB",
"B 	c #DDDDDD",
"C 	c #D4D4D4",
"D 	c #7A7A7A",
"E 	c #736E6E",
"F 	c #A09A9A",
"G 	c #BBB9B9",
"H 	c #CABCBC",
"I 	c #CFC2C2",
"J 	c #D3D0D0",
"K 	c #D6D5D5",
"L 	c #A4A4A4",
"M 	c #CECECE",
"N 	c #D5D5D5",
"O 	c #A0A0A0",
"P 	c #BEBDBD",
"Q 	c #C5C4C4",
"R 	c #C5C5C5",
"S 	c #C8C8C8",
"T 	c #CACACA",
"U 	c #8E8E8E",
"V 	c #838383",
"W 	c #868686",
"X 	c #C4C4C4",
"Y 	c #CCCCCC",
"Z 	c #D1D1D1",
"` 	c #BABABA",
" .	c #B0B0B0",
"..	c #B8B8B8",
"+.	c #AEAEAE",
"@.	c #C1C1C1",
"#.	c #6F6F6F",
"$.	c #A2A2A2",
"%.	c #C7C7C7",
"&.	c #BFBFBF",
"*.	c #A8A8A8",
"=.	c #A3A3A3",
"-.	c #9C9C9C",
";.	c #9D9D9D",
">.	c #A7A7A7",
",.	c #A5A0A0",
"'.	c #B7B0B0",
").	c #7C7C7C",
"!.	c #B9B9B9",
"~.	c #969696",
"{.	c #959595",
"].	c #9A9A9A",
"^.	c #8B8A8A",
"/.	c #929090",
"(.	c #A29999",
"_.	c #4C4C4C",
":.	c #949494",
"<.	c #A5A5A5",
"[.	c #AAAAAA",
"}.	c #929292",
"|.	c #8B8B8B",
"1.	c #919191",
"2.	c #898989",
"3.	c #8F8F8F",
"4.	c #B2B2B2",
"5.	c #8D8D8D",
"6.	c #807E7E",
"7.	c #484848",
"8.	c #6D6D6D",
"9.	c #9B9B9B",
"0.	c #9E9E9E",
"a.	c #9F9F9F",
"b.	c #979797",
"c.	c #848484",
"d.	c #818181",
"e.	c #393939",
"f.	c #606060",
"g.	c #8A8A8A",
"h.	c #7D7D7D",
"i.	c #797979",
"j.	c #7F7F7F",
"k.	c #878787",
"l.	c #7B7B7B",
"m.	c #545454",
"n.	c #696969",
"o.	c #757575",
"p.	c #767676",
"q.	c #707070",
"r.	c #6E6E6E",
"s.	c #777777",
"t.	c #505050",
"u.	c #5F5F5F",
"v.	c #616161",
"w.	c #5E5E5E",
"x.	c #666666",
"y.	c #5A5A5A",
"z.	c #626262",
"A.	c #5D5D5D",
"B.	c #535353",
"C.	c #8C8C8C",
"D.	c #BBBBBB",
"E.	c #555555",
"F.	c #434343",
"G.	c #585858",
"H.	c #676767",
"I.	c #747474",
"J.	c #6C6C6C",
"K.	c #858585",
"L.	c #ACACAC",
"M.	c #A09999",
"N.	c #B6AEAE",
"O.	c #727272",
"P.	c #565656",
"Q.	c #5C5C5C",
"R.	c #686868",
"S.	c #737373",
"T.	c #C0C0C0",
"U.	c #7C7B7B",
"V.	c #8F8E8E",
"W.	c #A4A1A1",
"X.	c #575757",
"Y.	c #6A6A6A",
"Z.	c #555252",
"`.	c #585050",
" +	c #5E5B5B",
".+	c #6C6C6E",
"++	c #7E7E82",
"@+	c #848485",
"#+	c #989898",
"$+	c #585252",
"%+	c #5C3F3F",
"&+	c #644747",
"*+	c #544C4C",
"=+	c #4E4E4E",
"-+	c #5F5F60",
";+	c #7D7D82",
">+	c #898992",
",+	c #78787B",
"'+	c #6E6E6F",
")+	c #828282",
"!+	c #909090",
"~+	c #7E3737",
"{+	c #614848",
"]+	c #3E3D3D",
"^+	c #4B4B4B",
"/+	c #727274",
"(+	c #89898F",
"_+	c #616164",
":+	c #717171",
"<+	c #B7B7B7",
"[+	c #743A3A",
"}+	c #704D4D",
"|+	c #453E3E",
"1+	c #2D2B2B",
"2+	c #494949",
"3+	c #59595A",
"4+	c #A6A6A6",
"5+	c #7E3D3D",
"6+	c #825555",
"7+	c #5B4B4B",
"8+	c #272525",
"9+	c #171717",
"0+	c #313131",
"a+	c #4C4B4B",
"b+	c #403E3E",
"c+	c #595959",
"d+	c #8A4242",
"e+	c #925959",
"f+	c #725959",
"g+	c #393535",
"h+	c #111111",
"i+	c #0B0B0B",
"j+	c #212121",
"k+	c #393737",
"l+	c #3E3838",
"m+	c #433838",
"n+	c #4B4646",
"o+	c #646464",
"p+	c #A55F5F",
"q+	c #926F6F",
"r+	c #615B5B",
"s+	c #353535",
"t+	c #131313",
"u+	c #161616",
"v+	c #343131",
"w+	c #4A3F3F",
"x+	c #583939",
"y+	c #5C3939",
"z+	c #4D4444",
"A+	c #A9A9A9",
"B+	c #B36161",
"C+	c #B08080",
"D+	c #A19696",
"E+	c #525252",
"F+	c #383838",
"G+	c #3F4141",
"H+	c #614C4C",
"I+	c #734848",
"J+	c #813131",
"K+	c #533232",
"L+	c #515151",
"M+	c #C3C3C3",
"N+	c #B75F5F",
"O+	c #B57A7A",
"P+	c #A79797",
"Q+	c #B4B3B3",
"R+	c #595C5C",
"S+	c #765757",
"T+	c #854D4D",
"U+	c #823333",
"V+	c #545555",
"W+	c #5D5E5E",
"X+	c #D2D2D2",
"Y+	c #B75656",
"Z+	c #C37E7E",
"`+	c #A99F9F",
" @	c #9E9F9F",
".@	c #ACAEAE",
"+@	c #C2C3C3",
"@@	c #9C9A9A",
"#@	c #906565",
"$@	c #955050",
"%@	c #873333",
"&@	c #6F7070",
"*@	c #DCD6D6",
"=@	c #C37A7A",
"-@	c #C0A8A8",
";@	c #CECDCD",
">@	c #BABDBD",
",@	c #9E9D9D",
"'@	c #9C9595",
")@	c #AF7676",
"!@	c #A15151",
"~@	c #E1A9A9",
"{@	c #C27676",
"]@	c #C19A9A",
"^@	c #C8C4C4",
"/@	c #D1D2D2",
"(@	c #C6BFBF",
"_@	c #AA9999",
":@	c #B36F6F",
"<@	c #B25353",
"[@	c #6B6B6B",
"}@	c #4A4A4A",
"|@	c #CEC3C3",
"1@	c #D8B2B2",
"2@	c #DFA9A9",
"3@	c #B87474",
"4@	c #BD9191",
"5@	c #BBAEAE",
"6@	c #C1C3C3",
"7@	c #C7BCBC",
"8@	c #C6A4A4",
"9@	c #C17777",
"0@	c #B95252",
"a@	c #D2ABAB",
"b@	c #D9A2A2",
"c@	c #DDAEAE",
"d@	c #E1D1D1",
"e@	c #AD6C6C",
"f@	c #BF8D8D",
"g@	c #B4A3A3",
"h@	c #B2B3B3",
"i@	c #BCADAD",
"j@	c #C69595",
"k@	c #C47575",
"l@	c #B14D4D",
"m@	c #BCB9B9",
"n@	c #CDAEAE",
"o@	c #D89696",
"p@	c #DDA3A3",
"q@	c #DDCBCB",
"r@	c #DDDFDF",
"s@	c #E0E0E0",
"t@	c #B98686",
"u@	c #B7A2A2",
"v@	c #ADA9A9",
"w@	c #CA8D8D",
"x@	c #C16F6F",
"y@	c #A19B9B",
"z@	c #C09797",
"A@	c #D97979",
"B@	c #DDA6A6",
"C@	c #DACECE",
"D@	c #D9D9D9",
"E@	c #A58181",
"F@	c #BBA5A5",
"G@	c #BDB5B5",
"H@	c #BCA1A1",
"I@	c #D18888",
"J@	c #BB6A6A",
"K@	c #363636",
"L@	c #746E6E",
"M@	c #976D6D",
"N@	c #C76868",
"O@	c #DA7171",
"P@	c #DA9898",
"Q@	c #D5C6C6",
"R@	c #D2D1D1",
"S@	c #A7A3A3",
"T@	c #BEB3B3",
"U@	c #C1B6B6",
"V@	c #C1A6A6",
"W@	c #D18282",
"X@	c #B26363",
"Y@	c #B97C7C",
"Z@	c #C9AAAA",
"`@	c #C8C5C5",
" #	c #CFCDCD",
".#	c #D7D2D2",
"+#	c #C2B1B1",
"@#	c #B07575",
"##	c #706363",
"$#	c #C0BFBF",
"%#	c #9F9B9B",
"&#	c #535151",
"*#	c #DEDEDE",
"=#	c #D0D0D0",
"-#	c #E1E1E1",
"                                                                                                                                ",
"                                            . + @                                                                               ",
"                                        @ @ # $ %                                                                               ",
"                                      & . + * = - ;                                                                             ",
"                                      > , ' ) ! ~ { ]                                                                           ",
"                                          ^ / ( _ : ]                                                                           ",
"                                          < [ } | 1 2 3                                                                         ",
"                                            4 5 6 7 8 9 0                                                                       ",
"                                  a b         c d e f g h i                                                                     ",
"                              j k l m n o p     q r s t u v w                                                                   ",
"                            x y z ; k A B C @ D E F G H I J K n                                                                 ",
"                          L @ ! - M N a m l N ! O O * P Q R S T -                                                               ",
"                          U V W O X Y Z C C Z - x ` @  ...@ +.@.X *                                                             ",
"                                  #.$.` R %.S X x &.# *.=.-.;.$ $.>. .          ,.'.                                            ",
"                                      ).;. ...!.` ..+ =.~.{.].O & O ' U       ^./.(.                                            ",
"                                        _.> :.<.) . [.& }.|.1.:.-.-.2.3.>.4.& 5.6.                                              ",
"                                            7.8.W 9.0.a.b.c.d.V 3.' :.].+ [.-.|.                                                ",
"                                                e.f.^ g.3.2.h.i.j.5.-.$ * :.k.l.                                                ",
"                                                    m.n.o.p., q.q.q.r.> p W s.U A Z X                                           ",
"                                                      t.u.v.w.x.#.q.#.y.z.D 1.= b X % =                                         ",
"                                                        _.A.B.y.#.o.p.n.n.C.) $ * # &.D.=                                       ",
"                                                          E.t.w.W |.i.h.5.+.& ' ~.. R %.% x                                     ",
"                                                        F.x.x.G.H.I.J.i.W K.d.2.1.9.L...X M       M.N.                          ",
"                                                        A.O.I.u.B.P.Q.8.r.R.S.d.g.:.;.* x T.    U.V.W.                          ",
"                                                        X.I.i.Y.Z.`. +A.v..+++@+^ |.#+. +.U D c.g.2.                            ",
"                                                          u.H.$+%+&+*+=+-+;+>+,+'+, ~.& p I.)+:.0.!+                            ",
"                                                                ~+{+]+^+n./+(+_+f., a.W :+, 1.L <+                              ",
"                                                              [+}+|+1+2+r.x.3+3+x.h.V R.w.d.O 4+=.                              ",
"                                                            5+6+7+8+9+0+t.a+b+_.f.q.s.R.c+s.=.0.C.C.                            ",
"                                                          d+e+f+g+h+i+j+k+l+m+n+< o+p.> :+s.b.{.g.].<+                          ",
"                                                          p+q+r+s+t+u+v+w+x+y+z+=+r.d.s.O.s.2.{.;.=.A+*                         ",
"                                                        B+C+D+h.E+F+G+H+I+J+K+L+_.R.g.:+o.q.h.3.a.4+*.D.M+                      ",
"                                                      N+O+P+Q+>.h.R+S+T+U+  V+q.W+_.z.E.n.q.i.V {.$.. D.b X+                    ",
"                                                    Y+Z+`+ @.@+@@@#@$@%@    &@)+D S.B.E+G., l.d.:.9.a.* M+C *@                  ",
"                                                    =@-@;@>@,@'@)@!@        n.).s.#.P.H.f.I.k.K.g.~.]. .b C 2 ~@                ",
"                                                  {@]@^@/@(@_@:@<@            A.[@}@  =+v.O.5.{.3.:.& 4.M+|@1@8 2@              ",
"                                                3@4@5@6@7@8@9@0@                        E.R.p ;.<.& 4+* % H a@b@c@d@            ",
"                                              e@f@g@h@i@j@k@l@                            X.j.-.[.$ $ 4.+ m@n@o@p@q@r@s@        ",
"                                              t@u@v@u@w@x@                                  w.#+. <+% D.=.y@z@A@7 B@C@A D@      ",
"                                            E@F@G@H@I@J@                                    K@c.* D.@.T.& L@M@N@O@P@Q@R@Y D.4.  ",
"                                          S@T@U@V@W@X@                                        R.[.D.x %.! ).  c Y@Z@`@x ..4. .  ",
"                                        >. #.#+#@#                                              }.D.b Z C <+    ##[  .* +.4.[.  ",
"                                      d.A+$#$#%#                                                s.4.%.X+B C g.    &#)+9. .$     ",
"                                    H.:.A+<.].                                                    & X X+A *#%         h.A++.    ",
"                                    S.3.{.K.                                                      D ..=#a k X+        [@~.      ",
"                                  c+r.s.H.                                                          O %.X+k A b                 ",
"                                    c+                                                              J.x Z k -#s@      ;.        ",
"                                                                                                      a.=#a m                   ",
"                                                                                                      )+o y Y                   ",
"                                                                                                      , + x                     ",
"                                                                                                      p 4+                      ",
"                                                                                                      ].                        ",
"                                                                                                    }.                          ",
"                                                                                                                                ",
"                                                                                                                                ",
"                                                                                                                                ",
"                                                                                                                                ",
"                                                                                                                                ",
"                                                                                                                                ",
"                                                                                                                                ",
"                                                                                                                                ",
"                                                                                                                                ",
"                                                                                                                                ",
"                                                                                                                                "};
