/* XPM */
static char * x_wing12_xpm[] = {
"64 64 360 2",
"  	c None",
". 	c #717171",
"+ 	c #9B9B9B",
"@ 	c #989898",
"# 	c #797979",
"$ 	c #999999",
"% 	c #A9A9A9",
"& 	c #B5B5B5",
"* 	c #BFBFBF",
"= 	c #9F9F9F",
"- 	c #737373",
"; 	c #B2B2B2",
"> 	c #B4B4B4",
", 	c #B6B6B6",
"' 	c #7F7F7F",
") 	c #D4D4D4",
"! 	c #D3D3D3",
"~ 	c #C9C9C9",
"{ 	c #A8A8A8",
"] 	c #8F8F8F",
"^ 	c #ADADAD",
"/ 	c #8A8A8A",
"( 	c #E3E3E3",
"_ 	c #E0E0E0",
": 	c #D9D9D9",
"< 	c #D2D2D2",
"[ 	c #BDBDBD",
"} 	c #919191",
"| 	c #696969",
"1 	c #CFCFCF",
"2 	c #C3C3C3",
"3 	c #A3A3A3",
"4 	c #DFDFDF",
"5 	c #DEDEDE",
"6 	c #D6D6D6",
"7 	c #E2E2E2",
"8 	c #D3D4D4",
"9 	c #CECDCD",
"0 	c #B8B5B5",
"a 	c #DDDDDD",
"b 	c #DBDBDB",
"c 	c #D1D1D1",
"d 	c #C6C6C6",
"e 	c #DBDCDC",
"f 	c #DBBCBC",
"g 	c #DE9595",
"h 	c #CB8B8B",
"i 	c #5C5353",
"j 	c #DCDCDC",
"k 	c #B8B8B8",
"l 	c #E5E5E5",
"m 	c #DDDFDF",
"n 	c #DDA6A6",
"o 	c #E46666",
"p 	c #D66C6C",
"q 	c #726060",
"r 	c #E7E7E7",
"s 	c #D8D8D8",
"t 	c #9E9E9E",
"u 	c #E8E8E8",
"v 	c #E1E0E0",
"w 	c #DEAFAF",
"x 	c #E16969",
"y 	c #D96B6B",
"z 	c #846767",
"A 	c #D5D5D5",
"B 	c #787878",
"C 	c #E1B0B0",
"D 	c #DDA0A0",
"E 	c #D89595",
"F 	c #CCA7A7",
"G 	c #8D8282",
"H 	c #5D5D5D",
"I 	c #C8C8C8",
"J 	c #B0B0B0",
"K 	c #E0A6A6",
"L 	c #DBA1A1",
"M 	c #D3AAAA",
"N 	c #C5C8C8",
"O 	c #969696",
"P 	c #C7C7C7",
"Q 	c #BCBCBC",
"R 	c #DAAAAA",
"S 	c #D1B1B1",
"T 	c #C5C6C6",
"U 	c #AAAAAA",
"V 	c #BBBBBB",
"W 	c #C2C2C2",
"X 	c #B1B1B1",
"Y 	c #727272",
"Z 	c #DFD3D3",
"` 	c #D7D0D0",
" .	c #CDCBCB",
"..	c #C4C4C4",
"+.	c #AFAFAF",
"@.	c #BABABA",
"#.	c #C0C0C0",
"$.	c #B7B7B7",
"%.	c #A1A1A1",
"&.	c #454545",
"*.	c #ABABAB",
"=.	c #848484",
"-.	c #B3B3B3",
";.	c #ACACAC",
">.	c #9D9D9D",
",.	c #A7A7A7",
"'.	c #9C9C9C",
").	c #616161",
"!.	c #A4A4A4",
"~.	c #959595",
"{.	c #4D4D4D",
"].	c #AEAEAE",
"^.	c #868686",
"/.	c #939393",
"(.	c #4F4F4F",
"_.	c #818181",
":.	c #8D8D8D",
"<.	c #858585",
"[.	c #686868",
"}.	c #515151",
"|.	c #929292",
"1.	c #838383",
"2.	c #7A7A7A",
"3.	c #828282",
"4.	c #636363",
"5.	c #7E7E7E",
"6.	c #7D7D7D",
"7.	c #5E5E5E",
"8.	c #464646",
"9.	c #949494",
"0.	c #6B6B6B",
"a.	c #676767",
"b.	c #4C4C4C",
"c.	c #A6A6A6",
"d.	c #8E8E8E",
"e.	c #777777",
"f.	c #6A6A6A",
"g.	c #757575",
"h.	c #7C7C7C",
"i.	c #A0A0A0",
"j.	c #A5A5A5",
"k.	c #6E6E6E",
"l.	c #555555",
"m.	c #747474",
"n.	c #B9B2B2",
"o.	c #929191",
"p.	c #898989",
"q.	c #9A9A9A",
"r.	c #808080",
"s.	c #7B7B7B",
"t.	c #8B8B8B",
"u.	c #3F3F3F",
"v.	c #656565",
"w.	c #B5ACAC",
"x.	c #858181",
"y.	c #6F6F6F",
"z.	c #434343",
"A.	c #6C6C6C",
"B.	c #666666",
"C.	c #606060",
"D.	c #747575",
"E.	c #585858",
"F.	c #4A4949",
"G.	c #4B4242",
"H.	c #3C2F2F",
"I.	c #B9B9B9",
"J.	c #A2A2A2",
"K.	c #525353",
"L.	c #524444",
"M.	c #733838",
"N.	c #7F3232",
"O.	c #813333",
"P.	c #833434",
"Q.	c #873434",
"R.	c #CECECE",
"S.	c #CACACA",
"T.	c #878787",
"U.	c #5A5A5A",
"V.	c #353131",
"W.	c #403636",
"X.	c #554545",
"Y.	c #684D4D",
"Z.	c #775050",
"`.	c #865555",
" +	c #935757",
".+	c #A25C5C",
"++	c #B15E5E",
"@+	c #BD5F5F",
"#+	c #C35F5F",
"$+	c #C15E5E",
"%+	c #BF5D5D",
"&+	c #BA5959",
"*+	c #C5C5C5",
"=+	c #626262",
"-+	c #5C5C5E",
";+	c #676768",
">+	c #4E4E4E",
",+	c #474747",
"'+	c #3C3C3C",
")+	c #343535",
"!+	c #373838",
"~+	c #3E3F3F",
"{+	c #4E5050",
"]+	c #949090",
"^+	c #ACA4A4",
"/+	c #948888",
"(+	c #A99595",
"_+	c #C2A2A2",
":+	c #C49999",
"<+	c #C69090",
"[+	c #C98B8B",
"}+	c #CC8686",
"|+	c #D38484",
"1+	c #D27F7F",
"2+	c #BB6F6F",
"3+	c #A27777",
"4+	c #9A9797",
"5+	c #84848C",
"6+	c #8F8F97",
"7+	c #525252",
"8+	c #202020",
"9+	c #0B0B0B",
"0+	c #080808",
"a+	c #2A2A2A",
"b+	c #C6C7C7",
"c+	c #B7B8B8",
"d+	c #D7D8D8",
"e+	c #CBCDCD",
"f+	c #C0C2C2",
"g+	c #B0ACAC",
"h+	c #AFA8A8",
"i+	c #C2B8B8",
"j+	c #C5B7B7",
"k+	c #C3B4B4",
"l+	c #D2CDCD",
"m+	c #979797",
"n+	c #8C8C8C",
"o+	c #8D8D96",
"p+	c #919199",
"q+	c #4A4A4A",
"r+	c #161616",
"s+	c #060606",
"t+	c #070707",
"u+	c #292929",
"v+	c #5B5B5B",
"w+	c #C7C8C8",
"x+	c #9C9D9D",
"y+	c #B5B7B7",
"z+	c #ADACAC",
"A+	c #ACA8A8",
"B+	c #BEB8B8",
"C+	c #C2BABA",
"D+	c #C0B7B7",
"E+	c #D3CECE",
"F+	c #CFCECE",
"G+	c #C1C1C1",
"H+	c #5E5E5F",
"I+	c #6C6C6D",
"J+	c #4B4B4B",
"K+	c #333333",
"L+	c #1C1C1C",
"M+	c #242525",
"N+	c #313232",
"O+	c #444646",
"P+	c #606262",
"Q+	c #9A9999",
"R+	c #B3ADAD",
"S+	c #999090",
"T+	c #A89B9B",
"U+	c #BDA7A7",
"V+	c #BE9C9C",
"W+	c #C19595",
"X+	c #C38E8E",
"Y+	c #C78B8B",
"Z+	c #CB8888",
"`+	c #C27F7F",
" @	c #AB6D6D",
".@	c #9B7777",
"+@	c #A4A1A1",
"@@	c #5F5F5F",
"#@	c #CDCDCD",
"$@	c #686867",
"%@	c #494747",
"&@	c #494343",
"*@	c #594F4F",
"=@	c #6D5B5B",
"-@	c #7E6161",
";@	c #8D6464",
">@	c #9A6666",
",@	c #AA6B6B",
"'@	c #B96C6C",
")@	c #C46C6C",
"!@	c #C86969",
"~@	c #C66666",
"{@	c #C26565",
"]@	c #BF6363",
"^@	c #B95F5F",
"/@	c #CCCCCC",
"(@	c #767676",
"_@	c #685D5D",
":@	c #744444",
"<@	c #7C3939",
"[@	c #813838",
"}@	c #853939",
"|@	c #8A3A3A",
"1@	c #903A3A",
"2@	c #525151",
"3@	c #514848",
"4@	c #453636",
"5@	c #B9ABAB",
"6@	c #898383",
"7@	c #616262",
"8@	c #757676",
"9@	c #B9B3B3",
"0@	c #949393",
"a@	c #545454",
"b@	c #6D6D6D",
"c@	c #909090",
"d@	c #888888",
"e@	c #505050",
"f@	c #646464",
"g@	c #BEBEBE",
"h@	c #DFD1D1",
"i@	c #D7CECE",
"j@	c #CECBCB",
"k@	c #E0A4A4",
"l@	c #DAA7A7",
"m@	c #D2B0B0",
"n@	c #E1A5A5",
"o@	c #DBA0A0",
"p@	c #D3ABAB",
"q@	c #CBCBCB",
"r@	c #E1B4B4",
"s@	c #DDA3A3",
"t@	c #DA9090",
"u@	c #CDA2A2",
"v@	c #8D8181",
"w@	c #D0D0D0",
"x@	c #494949",
"y@	c #E7E9E9",
"z@	c #E1E2E2",
"A@	c #DEB0B0",
"B@	c #E26767",
"C@	c #D96A6A",
"D@	c #E1E1E1",
"E@	c #E4E4E4",
"F@	c #DCDEDE",
"G@	c #DDA7A7",
"H@	c #E46767",
"I@	c #DADBDB",
"J@	c #DABFBF",
"K@	c #DD9A9A",
"L@	c #CB8E8E",
"M@	c #5A5151",
"N@	c #D0D2D2",
"O@	c #CBCCCC",
"P@	c #B6B3B3",
"Q@	c #D7D7D7",
"R@	c #DADADA",
"S@	c #969695",
"                                                                                                                                ",
"                                                      .                                                                         ",
"                                            + @                             #                                                   ",
"                                $ % & * = -                                                                                     ",
"                              ; > , & ; '             ) ! ~ { + @ ]                                                             ",
"                                > ; ^ { /         ( _ : < [ } |                                                                 ",
"                                ! 1 2 [ 3         4 5 6 1 =                                                                     ",
"                                7 : 8 9 0       1 a b c d -                                                                     ",
"                                ( e f g h i     5 j 6 1 k                                                                       ",
"                                l m n o p q   { r _ s 1 t                                                                       ",
"                                u v w x y z   ~ 4 A 1 2 B                                                                       ",
"                                  C D E F G H I A 1 ~ J                                                                         ",
"                                  K L M N @ O 2 P d Q @                                                                         ",
"                                  K R S T U V P W [ X Y                                                                         ",
"                                  Z `  ...+.@.#.V $.%.&.                                                                        ",
"                                  e < P Q { *.& X *.=.                                                                          ",
"                                  c d -.;.= >.*.,.'.).                                                                          ",
"                                  P #.!.~.O ] %.t / {.                                                                          ",
"                                  ..W ].>.O ^.O /.B (.                                                                          ",
"                                  { t !.'.} _.:.<.[.}.                                                                          ",
"                                  $.% % |.1.2.3.Y 4.{.                                                                          ",
"                                  >.|.3 /.5.B 6.7.4.8.                                                                          ",
"                                  <.5.9.|.B 0.0.{.a.b.                                                                          ",
"                                ; c.t ^ d.- e.f.(.}.4.g.f.                                                                      ",
"                          + h.i.& { J j.a.B k.g.2.l.2.B m.                                                                      ",
"                        n.o.p.O '.} q.r.8.' s.] t.u.v.' =.                                                                      ",
"                        w.x.y._.^.# s.y.z.A.m.e.B.{.C.D.[.                                                                      ",
"                                m.- m.# # 3.s.E.z.F.G.H.                                                                        ",
"                                A 2 I.].J.|.2.B.K.L.M.N.O.P.Q.Q.                                                                ",
"                              R.S.Q *.@ T.. 4.U.u.V.W.X.Y.Z.`. +.+++@+#+$+%+&+                                                  ",
"                              I.*+].+ ~.1.=+-+;+>+,+'+)+!+~+{+=+]+^+/+(+_+:+<+[+}+|+1+2+3+4++ T.B B.                            ",
"                              k P [ q.~._.r.5+6+| r.7+8+9+0+a+H 3 b+'.c+d+e+f+$.g+h+i+j+k+l+S.U U O h.[.                        ",
"                              $.d Q m+/.3.n+o+p+v.h.q+r+s+t+u+v+!.w+x+c+d+e+f+y+z+A+B+C+D+E+F+^ ;.9.e.B.                        ",
"                              @.G+% @ :._.B.H+I+l.J+K+L+M+N+O+P+Q+R+S+T+U+V+W+X+Y+Z+`+ @.@+@*.] e.@@8.                          ",
"                              < #@* +.t / e.$@4.7+%@&@*@=@-@;@>@,@'@)@!@~@{@]@^@                                                ",
"                                b /@..V X = =.(@[._@:@<@[@}@|@1@                                                                ",
"                                2.s.s.r.2.<.1.=+>+2@3@4@                                                                        ",
"                        5@6@g.^.:.r.1.(@z.A.g.6.y.}.7@8@f.                                                                      ",
"                        9@0@n+@ = 9.>.1.8.5.e.t.n+u.[.5.1.l.                                                                    ",
"                            6.c.Q +.$.;.a.m.k.m.m.a@e.g.-                                                                       ",
"                                X *.q.c.t.y.(@0.q+>+@@Y B.                                                                      ",
"                                  / 6.9.} 2.A.b@>+| q+                                                                          ",
"                                  + c@j./.' e.6.C.).,+                                                                          ",
"                                  J j.,.|.1.h.=.g.4.{.                                                                          ",
"                                  % '.3 '.|.r.d.d@| e@                                                                          ",
"                                  *+2 ].>.O T.@ ~.# J+                                                                          ",
"                                  I #.!.O m+} 3 i.n+(.                                                                          ",
"                                  ! I $.+.%.= ^ % = f@                                                                          ",
"                                  a 8 ~ g@% ].$.-.].d@                                                                          ",
"                                  h@i@j@..J Q W [ I.!.q+                                                                        ",
"                                  k@l@m@T % @.~ G+[ -.(@                                                                        ",
"                                  n@o@p@N m+|.*+q@I #.+                                                                         ",
"                                  r@s@t@u@v@v+I < w@S.X x@                                                                      ",
"                                y@z@A@B@C@z   I D@: c ..s.                                                                      ",
"                                E@F@G@H@p q   j.r _ s w@i.                                                                      ",
"                                7 I@J@K@L@M@    a j 6 w@@.                                                                      ",
"                                D@s N@O@P@      R.a b < P e.                                                                    ",
"                                w@q@* I.=         _ 4 Q@w@3                                                                     ",
"                                k ; *.j.T.        E@D@R@) * O m.                                                                ",
"                              J ; I.@.-.6.            < c ~ ].*.{ t                                                             ",
"                                  ;.-.* ;.=.                                                                                    ",
"                                            ^ ;.                            |.                                                  ",
"                                                      S@                                                                        ",
"                                                                                                                                "};
