/* XPM */
static char * x_wing1_xpm[] = {
"64 64 398 2",
"  	c None",
". 	c #595959",
"+ 	c #4D4D4D",
"@ 	c #737373",
"# 	c #707070",
"$ 	c #474747",
"% 	c #848484",
"& 	c #919191",
"* 	c #727272",
"= 	c #8A8A8A",
"- 	c #AAAAAA",
"; 	c #9F9F9F",
"> 	c #767676",
", 	c #828282",
"' 	c #AEAEAE",
") 	c #7F7F7F",
"! 	c #B2B2B2",
"~ 	c #CFCFCF",
"{ 	c #C2C1C1",
"] 	c #919292",
"^ 	c #ACACAC",
"/ 	c #D6D2D2",
"( 	c #CDC7C7",
"_ 	c #9B8585",
": 	c #978787",
"< 	c #C3B3B3",
"[ 	c #C3BABA",
"} 	c #AE8787",
"| 	c #BD9090",
"1 	c #C5BFBF",
"2 	c #C0ABAB",
"3 	c #BB7474",
"4 	c #CC7C7C",
"5 	c #C3B8B8",
"6 	c #B7B4B4",
"7 	c #C88D8D",
"8 	c #AF6666",
"9 	c #686868",
"0 	c #A5A5A5",
"a 	c #CB7575",
"b 	c #BF9C9C",
"c 	c #A9ACAC",
"d 	c #B99D9D",
"e 	c #C57F7F",
"f 	c #666666",
"g 	c #AFAFAF",
"h 	c #C1C1C1",
"i 	c #B06161",
"j 	c #CA8D8D",
"k 	c #B0B1B1",
"l 	c #B2B1B1",
"m 	c #C48F8F",
"n 	c #BF6666",
"o 	c #A0A0A0",
"p 	c #C7C7C7",
"q 	c #D1D1D1",
"r 	c #C98484",
"s 	c #BCB0B0",
"t 	c #BAC2C2",
"u 	c #C1A7A7",
"v 	c #C27E7E",
"w 	c #A1A1A1",
"x 	c #CACACA",
"y 	c #D7D7D7",
"z 	c #D8D8D8",
"A 	c #C37474",
"B 	c #C5A4A4",
"C 	c #C5CCCC",
"D 	c #C8C4C4",
"E 	c #BE9898",
"F 	c #C46262",
"G 	c #6B6B6B",
"H 	c #D2D2D2",
"I 	c #D9D9D9",
"J 	c #DEDEDE",
"K 	c #BF6060",
"L 	c #C49999",
"M 	c #D9DCDC",
"N 	c #C0B3B3",
"O 	c #C37979",
"P 	c #6A6A6A",
"Q 	c #B0B0B0",
"R 	c #D3D3D3",
"S 	c #DFDFDF",
"T 	c #E5E5E5",
"U 	c #B14D4D",
"V 	c #C28989",
"W 	c #C7BDBD",
"X 	c #C4C8C8",
"Y 	c #AFAEAE",
"Z 	c #A98888",
"` 	c #C36565",
" .	c #B1B1B1",
"..	c #C9C9C9",
"+.	c #D5D5D5",
"@.	c #DCDCDC",
"#.	c #ADADAD",
"$.	c #C16B6B",
"%.	c #A39797",
"&.	c #A1A2A2",
"*.	c #9C9D9D",
"=.	c #A29D9D",
"-.	c #BC7474",
";.	c #9B4A4A",
">.	c #7D7D7D",
",.	c #C5C5C5",
"'.	c #D0D0D0",
").	c #E2E2E2",
"!.	c #E0E0E0",
"~.	c #9D9D9D",
"{.	c #BE5A5A",
"].	c #9D8282",
"^.	c #C8CACA",
"/.	c #B9BBBB",
"(.	c #AA8A8A",
"_.	c #A65C5C",
":.	c #3F3F3F",
"<.	c #858585",
"[.	c #BCBCBC",
"}.	c #C8C8C8",
"|.	c #E6E6E6",
"1.	c #C3C3C3",
"2.	c #8B8B8B",
"3.	c #A04949",
"4.	c #AF7676",
"5.	c #949595",
"6.	c #787676",
"7.	c #9B6666",
"8.	c #903E3E",
"9.	c #313131",
"0.	c #7B7B7B",
"a.	c #B8B8B8",
"b.	c #BEBEBE",
"c.	c #CECECE",
"d.	c #D4D4D4",
"e.	c #BDBDBD",
"f.	c #A35C5C",
"g.	c #827D7D",
"h.	c #6C6D6D",
"i.	c #525151",
"j.	c #454A4A",
"k.	c #775E5E",
"l.	c #915353",
"m.	c #632424",
"n.	c #5A5B5B",
"o.	c #808080",
"p.	c #6F6F6F",
"q.	c #555555",
"r.	c #646464",
"s.	c #818181",
"t.	c #B7B7B7",
"u.	c #C2C2C2",
"v.	c #BFBFBF",
"w.	c #939494",
"x.	c #514E4E",
"y.	c #797979",
"z.	c #888888",
"A.	c #8C8C8C",
"B.	c #974F4F",
"C.	c #735B5B",
"D.	c #434747",
"E.	c #222222",
"F.	c #1E1F1F",
"G.	c #454141",
"H.	c #805F5F",
"I.	c #813535",
"J.	c #777777",
"K.	c #525252",
"L.	c #5D5D5D",
"M.	c #7C7C7C",
"N.	c #959595",
"O.	c #A4A4A4",
"P.	c #999999",
"Q.	c #737070",
"R.	c #7E6B6B",
"S.	c #9A6767",
"T.	c #BA7474",
"U.	c #C5A1A1",
"V.	c #BBBFBF",
"W.	c #A8A8A8",
"X.	c #BABABA",
"Y.	c #B4B4B4",
"Z.	c #8D3E3E",
"`.	c #7D5555",
" +	c #3F4242",
".+	c #080808",
"++	c #020202",
"@+	c #1F2121",
"#+	c #5D5353",
"$+	c #7C4242",
"%+	c #5C2D2D",
"&+	c #616060",
"*+	c #6D6F6F",
"=+	c #6D6D6D",
"-+	c #636363",
";+	c #545454",
">+	c #606060",
",+	c #757575",
"'+	c #989898",
")+	c #A2A2A2",
"!+	c #A9A9A9",
"~+	c #A3A4A4",
"{+	c #ABA8A8",
"]+	c #C89292",
"^+	c #DF6565",
"/+	c #E16868",
"(+	c #DC9A9A",
"_+	c #CECFCF",
":+	c #C0C0C0",
"<+	c #B3B3B3",
"[+	c #7E2F2F",
"}+	c #7C4D4D",
"|+	c #4B4444",
"1+	c #181A1A",
"2+	c #101111",
"3+	c #313030",
"4+	c #604848",
"5+	c #734141",
"6+	c #514D4D",
"7+	c #535454",
"8+	c #4B4B4B",
"9+	c #878787",
"0+	c #969696",
"a+	c #BBBBBB",
"b+	c #C4C6C6",
"c+	c #CBC3C3",
"d+	c #D79999",
"e+	c #E17171",
"f+	c #E28080",
"g+	c #DCB0B0",
"h+	c #D6D1D1",
"i+	c #CFD0D0",
"j+	c #571C1C",
"k+	c #7C4040",
"l+	c #534747",
"m+	c #2D2F2F",
"n+	c #282828",
"o+	c #333333",
"p+	c #464242",
"q+	c #685656",
"r+	c #565454",
"s+	c #5A5A5A",
"t+	c #717171",
"u+	c #D0BBBB",
"v+	c #D5A9A9",
"w+	c #DA9E9E",
"x+	c #DEAAAA",
"y+	c #DEC9C9",
"z+	c #DBD6D6",
"A+	c #DBDDDD",
"B+	c #DDDCDC",
"C+	c #7E7E7E",
"D+	c #6E6E6E",
"E+	c #7F8080",
"F+	c #666767",
"G+	c #7F3232",
"H+	c #4F3F3F",
"I+	c #3A3939",
"J+	c #565656",
"K+	c #484848",
"L+	c #5B5A5A",
"M+	c #5F5F5F",
"N+	c #5C5C5C",
"O+	c #868686",
"P+	c #838383",
"Q+	c #949494",
"R+	c #9A9A9A",
"S+	c #A7A7A7",
"T+	c #D6C5C5",
"U+	c #DCA3A3",
"V+	c #DFA3A3",
"W+	c #E1B5B5",
"X+	c #E3E7E7",
"Y+	c #E3E6E6",
"Z+	c #E4E4E4",
"`+	c #767878",
" @	c #4E4C4C",
".@	c #6C3939",
"+@	c #503535",
"@@	c #373636",
"#@	c #5E5F5F",
"$@	c #7A7A79",
"%@	c #626261",
"&@	c #585858",
"*@	c #5E5E5E",
"=@	c #787878",
"-@	c #939393",
";@	c #B6B6B6",
">@	c #D7D8D8",
",@	c #DDD4D4",
"'@	c #E1ABAB",
")@	c #E3A6A6",
"!@	c #676767",
"~@	c #5F6060",
"{@	c #4D4848",
"]@	c #4D4444",
"^@	c #393838",
"/@	c #4E4E4E",
"(@	c #747477",
"_@	c #8B8B91",
":@	c #737375",
"<@	c #636362",
"[@	c #8B8B8C",
"}@	c #7A7A7A",
"|@	c #9C9C9C",
"1@	c #C6C6C6",
"2@	c #DBDCDC",
"3@	c #505050",
"4@	c #616161",
"5@	c #454545",
"6@	c #525454",
"7@	c #515151",
"8@	c #7D7D83",
"9@	c #91919B",
"0@	c #7B7B81",
"a@	c #424242",
"b@	c #3C3C3C",
"c@	c #535353",
"d@	c #606062",
"e@	c #838386",
"f@	c #8E8E8E",
"g@	c #747474",
"h@	c #898989",
"i@	c #414141",
"j@	c #575757",
"k@	c #9B9B9B",
"l@	c #5B5B5B",
"m@	c #909090",
"n@	c #929292",
"o@	c #B9B9B9",
"p@	c #9E9E9E",
"q@	c #4F4F4F",
"r@	c #979797",
"s@	c #B5B5B5",
"t@	c #D6D6D6",
"u@	c #CDCDCD",
"v@	c #A6A6A6",
"w@	c #DBDBDB",
"x@	c #8D8D8D",
"y@	c #818080",
"z@	c #DADADA",
"A@	c #CCCCCC",
"B@	c #C4C4C4",
"C@	c #8F8F8F",
"D@	c #898787",
"E@	c #989696",
"F@	c #E1E1E1",
"G@	c #A3A3A3",
"H@	c #A79C9C",
"I@	c #B9B3B3",
"J@	c #969898",
"K@	c #6B6C6C",
"L@	c #ABABAB",
"M@	c #716565",
"N@	c #989191",
"O@	c #B2B8B8",
"P@	c #C3C4C4",
"Q@	c #555050",
"R@	c #986767",
"S@	c #C56F6F",
"T@	c #CDA8A8",
"U@	c #CDBEBE",
"V@	c #CFB4B4",
"W@	c #D0C8C8",
"X@	c #848383",
"Y@	c #BF8B8B",
"Z@	c #DB6F6F",
"`@	c #E26060",
" #	c #DB8585",
".#	c #D8A0A0",
"+#	c #D9A5A5",
"@#	c #DAB9B9",
"##	c #DBD7D7",
"$#	c #D9DADA",
"%#	c #D1D0D0",
"&#	c #908E8E",
"*#	c #656565",
"=#	c #999A9A",
"-#	c #D3B2B2",
";#	c #E28383",
">#	c #E18181",
",#	c #DEA6A6",
"'#	c #DEA2A2",
")#	c #DFA4A4",
"!#	c #E1A7A7",
"~#	c #E1D2D2",
"{#	c #B9B2B2",
"]#	c #D3D1D1",
"^#	c #DBBDBD",
"/#	c #DCC3C3",
"(#	c #E0DCDC",
"_#	c #E2BBBB",
":#	c #E3ADAD",
"<#	c #D4D5D5",
"[#	c #DEE4E4",
"}#	c #E4E9E9",
"|#	c #D8D7D7",
"1#	c #E3E3E3",
"                                                                                                                                ",
"                                                                                                                                ",
"                                                                                                                                ",
"                                                                                                                                ",
"                                                                                                                                ",
"                                                                                                                                ",
"                                                                                                                                ",
"                                                                                                                                ",
"                                                                                                                                ",
"                                                                                                                                ",
"                                                                                                                                ",
"                                                                                                                                ",
"                                                                                                                                ",
"                                                . +                                                                             ",
"                                                @ # $                                                                           ",
"                                                % & *                                                                           ",
"                                                = - ; >                                                                         ",
"                                                , - ' ;                                                                         ",
"                                                ) ! ~ { ]                                                                       ",
"                                                  ^ / ( _                                                                       ",
"                                                  : < [ }                                                                       ",
"                                                    | 1 2 3                                                       -             ",
"                                                    4 5 6 7 8                                                   9 0             ",
"                                                    a b c d e                                                   f g h           ",
"                                                    i j k l m n                                                 o p q           ",
"                                                      r s t u v                                               w x y z           ",
"                                                      A B C D E F                                         G ' x H I J           ",
"                                                      K L q M N O                                       P Q ~ R z S T           ",
"                                                      U V W X Y Z `                                   ,  ...+.I @.J I       #.  ",
"                                                        $.%.&.*.=.-.;.                              >.' ,.'.I ).!.'.        ~.  ",
"                                                        {.].g ^./.(._.                          :.<.#.[.}.q S |.1.          2.  ",
"                                                        3.4.^ #.5.6.7.8.                    9.+ 0.0 a.b.p c.d.e.            o   ",
"                                                          f.g.h.i.j.k.l.m.  n.o.@ p.    :.q.r.s.~.#.t.u...v.w.      x.y.z.A.! a.",
"                                                          B.C.D.E.F.G.H.I.  # s.J.# K.q.L.f M.N.O.' t.h h P.Q.R.S.T.U.V.Q W.X.Y.",
"                                                          Z.`. +.+++@+#+$+%+&+*+=+-+;+f >+,+A.'+; )+!+Y. .~+{+]+^+/+(+_+:+' a.<+",
"                                                          [+}+|+1+.+2+3+4+5+6+7+:.L.8++ P s.9+9+2.0+)+#.a+b+c+d+e+f+g+h+i+:+Y. .",
"                                                          j+k+l+m+n+o+o+p+q+r+s+s.9+P G t+y.>.= 0+0+!+e...u+v+w+x+y+z+A+B+'.a+ .",
"    C+                                              D+E+F+  G+H+I+J+# s+K+L+M+N+, O+# > # 0.P+Q+~.R+S+:+'.T+U+V+W+X+Y+Z+        ",
"                                                  G > , `+ @.@+@@@#@$@%@&@*@> p.=@J.,+p.M.A.-@~.O.! ;@}.>@,@'@)@                ",
"                                                  !@=@J.~@K.{@]@^@/@(@_@:@<@$@[@}@p.f =+Q+0+0 S+|@b.1@~ 2@                      ",
"                                                  3@4@*@:.q.5@6@7@*@8@9@0@M+C+)+y.a@;+P.- 2.z.o W.Y.                            ",
"            9+                              b@/@&@!@c@4@9+s.>+*@G *@d@e@A.# ,  .f@g@% - g N.h@w                                 ",
"            R+                        o+i@&@-+-+r.j@8+-+>.2.,+0.% t+f 0., <.f@g ' J.9+k@Q g                                     ",
"              |@s.M+l@r.>.M.P+m@h@f@f@<.z.O+s.C+@ t+G t+D+y.,+y.n@n@<.A.n@-@N.Q }.s.C+Q+Y.o@                                    ",
"              :+v.a+h 1.1.}.1.b.X.;@<+#.O.p@'+f@% >.D+* g@}@l@q@, - '+'+r@|@w s@H ' 0.& ; o                                     ",
"              ..R +.H q d.t@'.u@1@:+[.Y.' 0 N.O+C+0.0.>.s.f &@f g@S+! v@^ :+v.h R w@  ) x@y@                                    ",
"                y @.@.w@I S z@y A@,.B@[.^ R+f@C@& h@C@Q+w !+k@9+@ h@1@b.v.p u.a+~       D@E@                                    ",
"                  F@).J J |.Z+I x e.h X.!+; '+'+~.|@G@k@& v@' n@y.* A@c.1.a.;@;@        H@I@                                    ",
"                    q 1@:+W.0 J@K@z.W.g !  .)+|@L@G@W.& ) w L@; x@@   I 1@                                                      ",
"                                M@N@O@P@1@u.<+Q :+O.g S+2.~.;@!+-@y.                                                            ",
"                            Q@R@S@T@U@V@W@'.x 1@p a.          n@2.>                                                             ",
"                x@        X@Y@Z@`@ #.#+#@###$#%#                m@&#                                                            ",
"                |@    *#=#V.-#;#>#,#'#)#!#~#                      {#                                                            ",
"                  '+R+~.- P@]#^#/#(#_#:#                                                                                        ",
"                    :+t.^ h <#w@[#}#                                                                                            ",
"                    Q s@<+e.|#1#                                                                                                ",
"                      W.s@s@                                                                                                    ",
"                        Q <+                                                                                                    ",
"                                                                                                                                ",
"                                                                                                                                ",
"                                                                                                                                ",
"                                                                                                                                ",
"                                                                                                                                ",
"                                                                                                                                "};
