/* XPM */
static char * x_wing13_xpm[] = {
"64 64 398 2",
"  	c None",
". 	c #7E7E7E",
"+ 	c #9A9A9A",
"@ 	c #878787",
"# 	c #C9C9C9",
"$ 	c #C0C0C0",
"% 	c #9C9C9C",
"& 	c #8D8D8D",
"* 	c #D7D7D7",
"= 	c #D3D3D3",
"- 	c #BFBFBF",
"; 	c #818181",
"> 	c #989898",
", 	c #E1E1E1",
"' 	c #DCDCDC",
") 	c #D5D5D5",
"! 	c #BBBBBB",
"~ 	c #5F5F5F",
"{ 	c #B0B0B0",
"] 	c #D1D1D1",
"^ 	c #E2E2E2",
"/ 	c #D2D2D2",
"( 	c #C1C1C1",
"_ 	c #5B5B5B",
": 	c #A8A8A8",
"< 	c #B5B5B5",
"[ 	c #B7B7B7",
"} 	c #9D9D9D",
"| 	c #656565",
"1 	c #C6C6C6",
"2 	c #DEDEDE",
"3 	c #DBDBDB",
"4 	c #C3C3C3",
"5 	c #646464",
"6 	c #B3B3B3",
"7 	c #ACACAC",
"8 	c #AAAAAA",
"9 	c #999A9A",
"0 	c #D9D9D9",
"a 	c #D4D4D4",
"b 	c #7D7D7D",
"c 	c #BDBDBD",
"d 	c #C3C4C4",
"e 	c #BBBFBF",
"f 	c #848383",
"g 	c #E6E6E6",
"h 	c #DFDFDF",
"i 	c #D6D6D6",
"j 	c #C8C8C8",
"k 	c #7C7C7C",
"l 	c #D8D7D7",
"m 	c #D4D5D5",
"n 	c #D3D1D1",
"o 	c #D3B2B2",
"p 	c #BF8B8B",
"q 	c #555050",
"r 	c #A5A5A5",
"s 	c #E4E4E4",
"t 	c #DADADA",
"u 	c #D0D0D0",
"v 	c #838383",
"w 	c #E3E3E3",
"x 	c #DBBDBD",
"y 	c #E28383",
"z 	c #DB6F6F",
"A 	c #986767",
"B 	c #969898",
"C 	c #CDCDCD",
"D 	c #BEBEBE",
"E 	c #909090",
"F 	c #DEE4E4",
"G 	c #DCC3C3",
"H 	c #E18181",
"I 	c #E26060",
"J 	c #C56F6F",
"K 	c #716565",
"L 	c #6B6C6C",
"M 	c #CACACA",
"N 	c #CCCCCC",
"O 	c #BABABA",
"P 	c #898989",
"Q 	c #E4E9E9",
"R 	c #E0DCDC",
"S 	c #DEA6A6",
"T 	c #DB8585",
"U 	c #CDA8A8",
"V 	c #989191",
"W 	c #888888",
"X 	c #C5C5C5",
"Y 	c #B6B6B6",
"Z 	c #8E8E8E",
"` 	c #E2BBBB",
" .	c #DEA2A2",
"..	c #D8A0A0",
"+.	c #CDBEBE",
"@.	c #B2B8B8",
"#.	c #C4C4C4",
"$.	c #BCBCBC",
"%.	c #E3ADAD",
"&.	c #DFA4A4",
"*.	c #D9A5A5",
"=.	c #CFB4B4",
"-.	c #AFAFAF",
";.	c #B4B4B4",
">.	c #ADADAD",
",.	c #858585",
"'.	c #333333",
").	c #E1A7A7",
"!.	c #DAB9B9",
"~.	c #D0C8C8",
"{.	c #B2B2B2",
"].	c #A9A9A9",
"^.	c #AEAEAE",
"/.	c #A4A4A4",
"(.	c #414141",
"_.	c #E1D2D2",
":.	c #DBD7D7",
"<.	c #C2C2C2",
"[.	c #B1B1B1",
"}.	c #9F9F9F",
"|.	c #9E9E9E",
"1.	c #868686",
"2.	c #585858",
"3.	c #D9DADA",
"4.	c #A2A2A2",
"5.	c #959595",
"6.	c #636363",
"7.	c #3C3C3C",
"8.	c #D1D0D0",
"9.	c #8F8F8F",
"0.	c #4E4E4E",
"a.	c #C7C7C7",
"b.	c #ABABAB",
"c.	c #919191",
"d.	c #848484",
"e.	c #737373",
"f.	c #7F7F7F",
"g.	c #828282",
"h.	c #8A8A8A",
"i.	c #595959",
"j.	c #B8B8B8",
"k.	c #A3A3A3",
"l.	c #7B7B7B",
"m.	c #717171",
"n.	c #575757",
"o.	c #676767",
"p.	c #505050",
"q.	c #6B6B6B",
"r.	c #978787",
"s.	c #707070",
"t.	c #4D4D4D",
"u.	c #6E6E6E",
"v.	c #4B4B4B",
"w.	c #535353",
"x.	c #616161",
"y.	c #787878",
"z.	c #767676",
"A.	c #B06161",
"B.	c #CB7575",
"C.	c #CC7C7C",
"D.	c #BD9090",
"E.	c #C3B3B3",
"F.	c #D6D2D2",
"G.	c #CFCFCF",
"H.	c #727272",
"I.	c #474747",
"J.	c #A7A7A7",
"K.	c #9B9B9B",
"L.	c #949494",
"M.	c #5E5E5E",
"N.	c #777777",
"O.	c #7F8080",
"P.	c #B14D4D",
"Q.	c #BF6060",
"R.	c #C37474",
"S.	c #C98484",
"T.	c #CA8D8D",
"U.	c #BF9C9C",
"V.	c #C3B8B8",
"W.	c #C5BFBF",
"X.	c #C3BABA",
"Y.	c #CDC7C7",
"Z.	c #C2C1C1",
"`.	c #8B8B8B",
" +	c #A1A1A1",
".+	c #747474",
"++	c #3F3F3F",
"@+	c #5F6060",
"#+	c #767878",
"$+	c #666767",
"%+	c #A04949",
"&+	c #BE5A5A",
"*+	c #C16B6B",
"=+	c #C28989",
"-+	c #C49999",
";+	c #C5A4A4",
">+	c #BCB0B0",
",+	c #B0B1B1",
"'+	c #A9ACAC",
")+	c #B7B4B4",
"!+	c #C0ABAB",
"~+	c #AE8787",
"{+	c #9B8585",
"]+	c #919292",
"^+	c #A6A6A6",
"/+	c #666666",
"(+	c #7A7A7A",
"_+	c #797979",
":+	c #555555",
"<+	c #525252",
"[+	c #4E4C4C",
"}+	c #571C1C",
"|+	c #7E2F2F",
"1+	c #8D3E3E",
"2+	c #974F4F",
"3+	c #A35C5C",
"4+	c #AF7676",
"5+	c #9D8282",
"6+	c #A39797",
"7+	c #C7BDBD",
"8+	c #C5CCCC",
"9+	c #BAC2C2",
"0+	c #B2B1B1",
"a+	c #B99D9D",
"b+	c #C88D8D",
"c+	c #BB7474",
"d+	c #757575",
"e+	c #606060",
"f+	c #454545",
"g+	c #4D4848",
"h+	c #6C3939",
"i+	c #7F3232",
"j+	c #7C4040",
"k+	c #7C4D4D",
"l+	c #7D5555",
"m+	c #735B5B",
"n+	c #827D7D",
"o+	c #A1A2A2",
"p+	c #C4C8C8",
"q+	c #D9DCDC",
"r+	c #C8C4C4",
"s+	c #C1A7A7",
"t+	c #C48F8F",
"u+	c #C57F7F",
"v+	c #AF6666",
"w+	c #929292",
"x+	c #4F4F4F",
"y+	c #525454",
"z+	c #4D4444",
"A+	c #503535",
"B+	c #4F3F3F",
"C+	c #534747",
"D+	c #4B4444",
"E+	c #3F4242",
"F+	c #434747",
"G+	c #6C6D6D",
"H+	c #C8CACA",
"I+	c #9C9D9D",
"J+	c #AFAEAE",
"K+	c #C0B3B3",
"L+	c #BE9898",
"M+	c #C27E7E",
"N+	c #BF6666",
"O+	c #939393",
"P+	c #515151",
"Q+	c #393838",
"R+	c #373636",
"S+	c #3A3939",
"T+	c #2D2F2F",
"U+	c #181A1A",
"V+	c #080808",
"W+	c #222222",
"X+	c #525151",
"Y+	c #949595",
"Z+	c #B9BBBB",
"`+	c #A29D9D",
" @	c #A98888",
".@	c #C37979",
"+@	c #C46262",
"@@	c #B9B2B2",
"#@	c #908E8E",
"$@	c #5E5F5F",
"%@	c #565656",
"&@	c #282828",
"*@	c #020202",
"=@	c #1E1F1F",
"-@	c #454A4A",
";@	c #787676",
">@	c #AA8A8A",
",@	c #BC7474",
"'@	c #C36565",
")@	c #606062",
"!@	c #7D7D83",
"~@	c #747477",
"{@	c #7A7A79",
"]@	c #101111",
"^@	c #1F2121",
"/@	c #454141",
"(@	c #775E5E",
"_@	c #9B6666",
":@	c #A65C5C",
"<@	c #9B4A4A",
"[@	c #CECECE",
"}@	c #8C8C8C",
"|@	c #838386",
"1@	c #91919B",
"2@	c #8B8B91",
"3@	c #626261",
"4@	c #5A5A5A",
"5@	c #313030",
"6@	c #5D5353",
"7@	c #805F5F",
"8@	c #915353",
"9@	c #903E3E",
"0@	c #979797",
"a@	c #7B7B81",
"b@	c #737375",
"c@	c #484848",
"d@	c #464242",
"e@	c #604848",
"f@	c #7C4242",
"g@	c #813535",
"h@	c #632424",
"i@	c #636362",
"j@	c #5B5A5A",
"k@	c #685656",
"l@	c #734141",
"m@	c #5C2D2D",
"n@	c #565454",
"o@	c #514D4D",
"p@	c #616060",
"q@	c #5A5B5B",
"r@	c #8B8B8C",
"s@	c #6F6F6F",
"t@	c #5C5C5C",
"u@	c #535454",
"v@	c #6D6F6F",
"w@	c #808080",
"x@	c #6D6D6D",
"y@	c #424242",
"z@	c #5D5D5D",
"A@	c #545454",
"B@	c #6A6A6A",
"C@	c #999999",
"D@	c #A79C9C",
"E@	c #898787",
"F@	c #B9B3B3",
"G@	c #989696",
"H@	c #818080",
"I@	c #A0A0A0",
"J@	c #B9B9B9",
"K@	c #969696",
"L@	c #313131",
"M@	c #DBDCDC",
"N@	c #D7D8D8",
"O@	c #DDD4D4",
"P@	c #D6C5C5",
"Q@	c #D0BBBB",
"R@	c #C4C6C6",
"S@	c #A3A4A4",
"T@	c #E1ABAB",
"U@	c #DCA3A3",
"V@	c #D5A9A9",
"W@	c #CBC3C3",
"X@	c #ABA8A8",
"Y@	c #737070",
"Z@	c #939494",
"`@	c #E3A6A6",
" #	c #DFA3A3",
".#	c #DA9E9E",
"+#	c #D79999",
"@#	c #C89292",
"##	c #7E6B6B",
"$#	c #E1B5B5",
"%#	c #DEAAAA",
"&#	c #E17171",
"*#	c #DF6565",
"=#	c #9A6767",
"-#	c #E0E0E0",
";#	c #D8D8D8",
">#	c #686868",
",#	c #E3E7E7",
"'#	c #DEC9C9",
")#	c #E28080",
"!#	c #E16868",
"~#	c #BA7474",
"{#	c #E3E6E6",
"]#	c #DBD6D6",
"^#	c #DCB0B0",
"/#	c #DC9A9A",
"(#	c #C5A1A1",
"_#	c #514E4E",
":#	c #E5E5E5",
"<#	c #DBDDDD",
"[#	c #D6D1D1",
"}#	c #CECFCF",
"|#	c #DDDCDC",
"1#	c #CFD0D0",
"                                                                                                                                ",
"                                                                                                                                ",
"                                                    .                                                                           ",
"                                                                                                                                ",
"                                                                                                                                ",
"                                                                                                                                ",
"                                          + @                                                                                   ",
"                                    # $ %                                                                                       ",
"                      % &         * = - ;                                                                                       ",
"                    >           , ' ) ! ~                                                                                       ",
"                { $ +         ] ^ ' / ( _                                                                                       ",
"              : < [ } |       1 2 3 ] 4 5                                                                                       ",
"            { < 6 7 8 9       $ 2 0 a 4 b                                                                                       ",
"            6 < c ( d e f     : g h i j k                                                                                       ",
"                l m n o p q   r s t u 4 v                                                                                       ",
"                w 3 x y z A   B 0 * C D E                                                                                       ",
"                  F G H I J K L M N 1 O P                                                                                       ",
"                  Q R S T U V W c X $ Y Z                                                                                       ",
"                    `  ...+.@.: ( #.$.6 Z                                                                                       ",
"                    %.&.*.=.d -.O $.;.>.,.'.                                                                                    ",
"                      ).!.~.1 {.].7 ^./.W (.                                                                                    ",
"                      _.:.u <.[.}.+ r |.1.2.                                                                                    ",
"                        3.M 6 4.> Z 5.> ; 6.7.                                                                                  ",
"                        8.1 { % > 9.1.Z . 6.0.                                                                                  ",
"                          a.$ b.} c.. d.e.5 2.                                            f.g.h.d.e.i.                          ",
"                          j./.k.% P l.b m.n.o.p.o.q.                                  r.7 {.8 8 c.s.t.                          ",
"                            -.: k.9.l.u.q.v.w.x.y.z.u.                        A.B.C.D.E.F.G.^.}.H.I.                            ",
"                            J.c.K.L.b H.m.6.x.M.N.g.O.                P.Q.R.S.T.U.V.W.X.Y.Z.}.z.                                ",
"                            `.f.c. +; .+u.b @ ++@+#+$+          %+&+*+=+-+;+>+,+'+)+!+~+{+]+                                    ",
"                            }  +^+]./+(+_+`.; :+<+[+  }+|+1+2+3+4+5+6+7+] 8+9+0+a+b+c+                                          ",
"                            Y b.^.K.2._ d+d+e+f+g+h+i+j+k+l+m+n+7 -.o+p+q+r+s+t+u+v+                                            ",
"                          w+].}.w+@ /+x+_+l.M.y+z+A+B+C+D+E+F+G+>.H+I+J+K+L+M+N+                                                ",
"                        E `.O+& _+e..+g.w+d.q.P+Q+R+S+T+U+V+W+X+Y+Z+`+ @.@+@                                                    ",
"                      @@#@z._+e.H.P J.8 w+m.M.M.0.$@%@&@V+*@=@-@;@>@,@'@                                                        ",
"                                N 1 {.> ,./+)@!@~@{@s.'.]@^@/@(@_@:@<@                                                          ",
"                              0 [@D ^+> }@l.|@1@2@3@4@'.5@6@7@8@9@                                                              ",
"                              1 4 - 7 0@w+g.}@a@b@2.c@d@e@f@g@h@                                                                ",
"                                j.a.$ % O+,.s.~ i@M.j@k@l@m@                                                                    ",
"                                Y <.-  +5.Z g.. {@z.~ n@o@p@s.q@                                                                ",
"                                Y ! ( < { -.[.4.r@s@t@4@u@v@; w@                                                                ",
"                                  G.= / j ^.Z _+(+y.g.; ++x@N.e.                                                                ",
"                                    3 ^.; N..+y@s@N.1.@ z@6.s.s@                                                                ",
"                                      l.. @ d.A@/+d+s.B@v.A@<+                                                                  ",
"                                    f.c.L.K.8 C@x@s@z.q.t./+:+                                                                  ",
"                                D@E@& }.;.{ -.8 L.k s.m.B@e+z@++                                                                ",
"                                F@G@H@I@J@-.5.`.K@}@l._+; d+/+:+                                                                ",
"                                            P W r O+v b @ }@k 5 L@                                                              ",
"                                             +I@J.} L.h.@ > 5.; t.                                                              ",
"                                              : % /.} K@`.}./.} l.++                                                            ",
"                                              ;.D {.+ K@K@4.^.>.r ,.                                                            ",
"                                                1 Y J.].4.].[ [ j.>.b                                                           ",
"                                                G.j $ c >.;.( <.D $.^.g.                                                        ",
"                                                M@N@u # ! [.( # a.j X [.B@                                                      ",
"                                                  O@P@Q@R@S@C@- [@] u # { q.                                                    ",
"                                                  T@U@V@W@X@Y@Z@a h 0 ) G.^.                                                    ",
"                                                  `@ #.#+#@###  c g ^ 0 = M  +                                                  ",
"                                                    $#%#&#*#=#    4 -#' ;#/ M I@/+>#                                            ",
"                                                    ,#'#)#!#~#      u 2 h 0 * a.-.r 8                                           ",
"                                                    {#]#^#/#(#_#      0 :#2 ;#] (                                               ",
"                                                    s <#[#}#e _+                                                                ",
"                                                      |#1#$ { W                                                                 ",
"                                                      u $ ^.: }@                                                                ",
"                                                      ! ;.j.O {.I@`.} >.                                                        ",
"                                                      [.[.6 ;.j.                                                                "};
