/* XPM */
static char * x_wing14_xpm[] = {
"64 64 392 2",
"  	c None",
". 	c #929292",
"+ 	c #9A9A9A",
"@ 	c #A6A6A6",
"# 	c #888888",
"$ 	c #C2C2C2",
"% 	c #B1B1B1",
"& 	c #7E7E7E",
"* 	c #D3D3D3",
"= 	c #D4D4D4",
"- 	c #C1C1C1",
"; 	c #7C7C7C",
"> 	c #DCDCDC",
", 	c #D7D7D7",
"' 	c #D0D0D0",
") 	c #9F9F9F",
"! 	c #9D9D9D",
"~ 	c #E0E0E0",
"{ 	c #E1E1E1",
"] 	c #DADADA",
"^ 	c #D1D1D1",
"/ 	c #6C6C6C",
"( 	c #595959",
"_ 	c #CDCDCD",
": 	c #DDDDDD",
"< 	c #CBCBCB",
"[ 	c #A4A4A4",
"} 	c #676767",
"| 	c #7B7B7B",
"1 	c #727272",
"2 	c #969696",
"3 	c #6B6B6B",
"4 	c #D2D2D2",
"5 	c #B8B8B8",
"6 	c #7A7A7A",
"7 	c #858585",
"8 	c #959595",
"9 	c #8F8F8F",
"0 	c #737373",
"a 	c #AEAEAE",
"b 	c #A9A9A9",
"c 	c #7D7D7D",
"d 	c #BDBDBD",
"e 	c #DEDEDE",
"f 	c #DBDBDB",
"g 	c #C4C4C4",
"h 	c #9C9C9C",
"i 	c #9D9C9C",
"j 	c #A5A5A5",
"k 	c #949494",
"l 	c #B7B7B7",
"m 	c #B6B6B6",
"n 	c #878888",
"o 	c #E2E2E2",
"p 	c #B2B2B2",
"q 	c #777777",
"r 	c #9F9B9B",
"s 	c #C9C8C8",
"t 	c #C6C6C6",
"u 	c #818181",
"v 	c #A8A8A8",
"w 	c #AFAFAF",
"x 	c #B5B5B5",
"y 	c #A9AAAA",
"z 	c #5D5656",
"A 	c #C8C8C8",
"B 	c #BBBBBB",
"C 	c #B07575",
"D 	c #C2B1B1",
"E 	c #D7D2D2",
"F 	c #CFCDCD",
"G 	c #A7A7A7",
"H 	c #B4B4B4",
"I 	c #B3B3B3",
"J 	c #C3C3C3",
"K 	c #CCD0D0",
"L 	c #D0B0B0",
"M 	c #C48181",
"N 	c #7D6363",
"O 	c #686C6C",
"P 	c #C9C9C9",
"Q 	c #CACACA",
"R 	c #AAAAAA",
"S 	c #686868",
"T 	c #B26363",
"U 	c #D18282",
"V 	c #C5AEAE",
"W 	c #C4BCBC",
"X 	c #BEB3B3",
"Y 	c #A7A3A3",
"Z 	c #CCCCCC",
"` 	c #D2D1D1",
" .	c #D5C6C6",
"..	c #DA9898",
"+.	c #DA7171",
"@.	c #C76868",
"#.	c #976D6D",
"$.	c #746E6E",
"%.	c #A1A1A1",
"&.	c #C0C0C0",
"*.	c #B9B9B9",
"=.	c #838383",
"-.	c #404040",
";.	c #B86C6C",
">.	c #C48989",
",.	c #BCA1A1",
"'.	c #BDB5B5",
").	c #BBA5A5",
"!.	c #A58181",
"~.	c #D9D9D9",
"{.	c #DACECE",
"].	c #DDA6A6",
"^.	c #DF7A7A",
"/.	c #D97979",
"(.	c #C09797",
"_.	c #A19B9B",
":.	c #A3A3A3",
"<.	c #646464",
"[.	c #C16F6F",
"}.	c #CA8D8D",
"|.	c #B6A7A7",
"1.	c #A9ACAC",
"2.	c #B7A8A8",
"3.	c #C28282",
"4.	c #E4E4E4",
"5.	c #DFE5E5",
"6.	c #DED4D4",
"7.	c #DEA9A9",
"8.	c #DA9595",
"9.	c #CFB6B6",
"0.	c #BFC6C6",
"a.	c #ACADAD",
"b.	c #7F7F7F",
"c.	c #575757",
"d.	c #B14D4D",
"e.	c #C47575",
"f.	c #C69595",
"g.	c #B1B9B9",
"h.	c #B1A7A7",
"i.	c #CA8C8C",
"j.	c #AF6868",
"k.	c #E1D1D1",
"l.	c #DDAEAE",
"m.	c #D9A2A2",
"n.	c #D2ABAB",
"o.	c #CABCBC",
"p.	c #989898",
"q.	c #515151",
"r.	c #B95252",
"s.	c #C17777",
"t.	c #C6A4A4",
"u.	c #C9C4C4",
"v.	c #C1C9C9",
"w.	c #BCB6B6",
"x.	c #C49090",
"y.	c #BD7171",
"z.	c #E2AAAA",
"A.	c #DFA3A3",
"B.	c #D9AEAE",
"C.	c #D0C9C9",
"D.	c #C7C7C7",
"E.	c #A0A0A0",
"F.	c #8D8D8D",
"G.	c #616161",
"H.	c #4E4E4E",
"I.	c #4A4A4A",
"J.	c #5D5D5D",
"K.	c #B25353",
"L.	c #B36F6F",
"M.	c #AA9999",
"N.	c #CFCCCC",
"O.	c #D7DDDD",
"P.	c #C8C4C4",
"Q.	c #C19A9A",
"R.	c #C27676",
"S.	c #E1A9A9",
"T.	c #DDCCCC",
"U.	c #B0B0B0",
"V.	c #8A8A8A",
"W.	c #878787",
"X.	c #747474",
"Y.	c #606060",
"Z.	c #565656",
"`.	c #6F6F6F",
" +	c #696969",
".+	c #9C5252",
"++	c #AF7676",
"@+	c #9C9595",
"#+	c #9E9D9D",
"$+	c #BABDBD",
"%+	c #CECDCD",
"&+	c #C0A8A8",
"*+	c #C37A7A",
"=+	c #DCD6D6",
"-+	c #919191",
";+	c #828282",
">+	c #757575",
",+	c #5C5C5C",
"'+	c #545454",
")+	c #797979",
"!+	c #7A3636",
"~+	c #8C4E4E",
"{+	c #8D6464",
"]+	c #9B8F8F",
"^+	c #C2C3C3",
"/+	c #ACAEAE",
"(+	c #9E9F9F",
"_+	c #A99F9F",
":+	c #C37E7E",
"<+	c #B75656",
"[+	c #ADADAD",
"}+	c #848484",
"|+	c #787878",
"1+	c #707070",
"2+	c #656565",
"3+	c #5E5E5E",
"4+	c #696868",
"5+	c #545151",
"6+	c #4C2525",
"7+	c #713434",
"8+	c #7C4848",
"9+	c #705252",
"0+	c #625A5A",
"a+	c #C4C5C5",
"b+	c #A29D9D",
"c+	c #B97979",
"d+	c #BF5C5C",
"e+	c #717171",
"f+	c #505050",
"g+	c #524E4E",
"h+	c #583838",
"i+	c #6D3232",
"j+	c #6C4343",
"k+	c #5C4747",
"l+	c #403B3B",
"m+	c #383838",
"n+	c #525252",
"o+	c #A19696",
"p+	c #B78383",
"q+	c #BB6161",
"r+	c #898989",
"s+	c #6E6E6E",
"t+	c #4D4444",
"u+	c #5C3939",
"v+	c #583939",
"w+	c #4A3F3F",
"x+	c #343131",
"y+	c #161616",
"z+	c #131313",
"A+	c #353535",
"B+	c #615B5B",
"C+	c #926F6F",
"D+	c #A55F5F",
"E+	c #979797",
"F+	c #767676",
"G+	c #4F4F4F",
"H+	c #4B4646",
"I+	c #433838",
"J+	c #3E3838",
"K+	c #393737",
"L+	c #212121",
"M+	c #0B0B0B",
"N+	c #111111",
"O+	c #393535",
"P+	c #725959",
"Q+	c #925959",
"R+	c #8A4242",
"S+	c #8C8C8C",
"T+	c #9E9E9E",
"U+	c #4C4C4C",
"V+	c #403E3E",
"W+	c #4C4B4B",
"X+	c #313131",
"Y+	c #171717",
"Z+	c #272525",
"`+	c #5B4B4B",
" @	c #825555",
".@	c #7E3D3D",
"+@	c #666666",
"@@	c #59595A",
"#@	c #494949",
"$@	c #2D2B2B",
"%@	c #453E3E",
"&@	c #704D4D",
"*@	c #743A3A",
"=@	c #868686",
"-@	c #616164",
";@	c #89898F",
">@	c #727274",
",@	c #4B4B4B",
"'@	c #3E3D3D",
")@	c #614848",
"!@	c #7E3737",
"~@	c #909090",
"{@	c #6E6E6F",
"]@	c #78787B",
"^@	c #898992",
"/@	c #7D7D82",
"(@	c #5F5F60",
"_@	c #544C4C",
":@	c #644747",
"<@	c #5C3F3F",
"[@	c #585252",
"}@	c #5F5F5F",
"|@	c #8E8E8E",
"1@	c #8B8B8B",
"2@	c #808080",
"3@	c #848485",
"4@	c #7E7E82",
"5@	c #6C6C6E",
"6@	c #5E5B5B",
"7@	c #585050",
"8@	c #555252",
"9@	c #6A6A6A",
"0@	c #A4A1A1",
"a@	c #8F8E8E",
"b@	c #7C7B7B",
"c@	c #6D6D6D",
"d@	c #535353",
"e@	c #B6AEAE",
"f@	c #A09999",
"g@	c #CECECE",
"h@	c #ACACAC",
"i@	c #9B9B9B",
"j@	c #585858",
"k@	c #434343",
"l@	c #C5C5C5",
"m@	c #BCBCBC",
"n@	c #999999",
"o@	c #555555",
"p@	c #BFBFBF",
"q@	c #ABABAB",
"r@	c #5A5A5A",
"s@	c #626262",
"t@	c #393939",
"u@	c #939393",
"v@	c #484848",
"w@	c #807E7E",
"x@	c #A29999",
"y@	c #929090",
"z@	c #8B8A8A",
"A@	c #BABABA",
"B@	c #B7B0B0",
"C@	c #A5A0A0",
"D@	c #A2A2A2",
"E@	c #C5C4C4",
"F@	c #BEBDBD",
"G@	c #BEBEBE",
"H@	c #D5D5D5",
"I@	c #DFDFDF",
"J@	c #D6D5D5",
"K@	c #D3D0D0",
"L@	c #CFC2C2",
"M@	c #BBB9B9",
"N@	c #A09A9A",
"O@	c #736E6E",
"P@	c #D8D8D8",
"Q@	c #D6D6D6",
"R@	c #CFCFCF",
"S@	c #DDD7D7",
"T@	c #DBC4C4",
"U@	c #D8B0B0",
"V@	c #D3AAAA",
"W@	c #CEADAD",
"X@	c #C09595",
"Y@	c #986E6E",
"Z@	c #DFADAD",
"`@	c #DDA2A2",
" #	c #DAA2A2",
".#	c #D99494",
"+#	c #D97777",
"@#	c #C66868",
"##	c #895D5D",
"$#	c #E1AAAA",
"%#	c #DEB1B1",
"&#	c #DDA4A4",
"*#	c #DA7272",
"=#	c #B87E7E",
"-#	c #6F6161",
";#	c #8A8A89",
">#	c #E1D3D3",
",#	c #DCA7A7",
"'#	c #D99B9B",
")#	c #C9ABAB",
"!#	c #A09B9B",
"~#	c #DCDEDE",
"{#	c #D9CECE",
"]#	c #D4C6C6",
"^#	c #C5C3C3",
"/#	c #AEADAD",
"(#	c #D9DADA",
"_#	c #D0CFCF",
"                                                                                                                                ",
"                                                                                                                                ",
"                                                                                                                                ",
"                                                                                                                                ",
"                                                                                                                                ",
"                                                                                                                                ",
"                                                                                                                                ",
"                                                                                                                                ",
"                                                                                                                                ",
"                                                                                                                                ",
"                                                                                                                                ",
"                          .                                                                                                     ",
"                        +                                                                                                       ",
"                      @ #                                                                                                       ",
"                    $ % &                                                                                                       ",
"                  * = - ;                                                                                                       ",
"                  > , ' )                                                                                                       ",
"        !       ~ { ] ^ $ /                                                               (                                     ",
"                _ { : = < [                                                           } | 1 (                                   ",
"      2 3         4 ] , ' 5 6                                                       7 8 9 0                                     ",
"    a b c         d e f 4 g h                                                     i j b k }                                     ",
"    l m h n         e o 4 < p q                                                 r s t b u                                       ",
"  v m a w x y z     - f = A B .                                               C D E F G                                         ",
"  H I 5 J K L M N   O P Q g B R S                                         T U V W X Y                                           ",
"  p B Z `  ...+.@.#.$.%.&.- *.R =.-.                                    ;.>.,.'.).!.                                            ",
"      ~.f {.].^./.(._.:.B d m R . <.                                  [.}.|.1.2.3.                                              ",
"        4.5.6.7.8.9.0.a.x m I R h b.c.                            d.e.f.'.g.h.i.j.                                              ",
"            k.l.m.n.o.d w @ %.) p.7 S q.                        r.s.t.u.v.w.x.y.                                                ",
"              z.A.B.C.D.m E.k 9 8 F.1 G.H.  I.3 J.            K.L.M.N.O.P.Q.R.                                                  ",
"                S.T.= t U.+ 2 V.7 W.X.Y.} Z.`.q ;  +        .+++@+#+$+%+&+*+                                                    ",
"                  =+= J w ) + -+;+| >+,+'+c. +>+)+}     !+~+{+]+^+/+(+_+:+<+                                                    ",
"                    4 t B [+E.k }+|+1+2+,+G.( 3+4+5+6+7+8+9+0+c G a+b+c+d+                                                      ",
"                      J B v [ h F.c e+1+1+& 2+f+g+h+i+j+k+l+m+n+c o+p+q+                                                        ",
"                        w b :.! 8 r+q 1 q u s+H.t+u+v+w+x+y+z+A+B+C+D+                                                          ",
"                          a + V.8 E+q e+|+F+<.G+H+I+J+K+L+M+N+O+P+Q+R+                                                          ",
"                            S+S+T+:.q ( S q 1+Y.U+V+W+f+X+Y+Z+`+ @.@                                                            ",
"                              :.@ E.u 3+S =.c +@@@@@+@s+#@$@%@&@*@                                                              ",
"                              l [ -+& e+=@) & Y.-@;@>@ +,@'@)@!@                                                                ",
"                            ~@T+k ;+X.# %.2 & {@]@^@/@(@H._@:@<@[@} }@                                                          ",
"                            r+V.}+6 |@a [+p.1@2@3@4@5@G.J.6@7@8@9@)+X.c.                                                        ",
"                          0@a@b@    &.$ w ! k V.u 0 S s+c@,+Z.d@}@X.1 J.                                                        ",
"                          e@f@      g@g 5 h@i@-+r+u 7 =@)+/ X.} j@+@+@k@                                                        ",
"                                    l@m@D.l@[+2 n@%.a F.c )+1@=@3+f+o@                                                          ",
"                                      m B p@x w I q@S+ + +F+>+`.r@d@J.U+                                                        ",
"                                        m d g t m -+6 s@r@`.1+`.+@3+G.}@f+                                                      ",
"                                          g ^ l@8 ; }+7 6 >+>+e+1+>+>+0  +Z.                                                    ",
"                                                | W.k w I h F.b.)+c r+9 V.2@Y.t@                                                ",
"                                                1@+ @ h@! . 8 |@7 ;+=@u@+ + 8 =@c@v@                                            ",
"                                              w@F.%.p G 9 r+h h k -+1@. %.R [+q@j k |+U+                                        ",
"                                            x@y@z@      |@n@E.%.E.+ 8 2 :.% 5 A@*.5 U.! ;                                       ",
"                                            B@C@          G @ G [+) ! :.v x p@$ g A D.l@A@D@>+          %.                      ",
"                                                            w g - a H H U.H A@$ P ^ = = ^ D.*.E.=@=.k R                         ",
"                                                              l@D.l@l@E@F@w E.E.G@H@I@> , * g@P G@H [                           ",
"                                                                * J@K@L@o.M@N@O@6 H = : f ] P@Q@R@$                             ",
"                                                                  S@T@U@V@W@X@Y@    # m@* > I@] _                               ",
"                                                                    Z@`@ #.#+#@###        t ,                                   ",
"                                                                      $#%#&#^.*#=#-#                ;#                          ",
"                                                                        >#T.,#'#)#!#G+                                          ",
"                                                                          ~#{#]#^#/#2@                                          ",
"                                                                          ~#(#_#G@q@n@& |+                                      ",
"                                                                            P@P m w % [+%.                                      ",
"                                                                              d I x m H                                         ",
"                                                                              H % [+                                            ",
"                                                                                                                                "};
