/* XPM */
static char * x_wing10_xpm[] = {
"64 64 395 2",
"  	c None",
". 	c #B4B4B4",
"+ 	c #A8A8A8",
"@ 	c #BBBBBB",
"# 	c #B2B2B2",
"$ 	c #B3B3B3",
"% 	c #AEAEAE",
"& 	c #D9D9D9",
"* 	c #CCCCCC",
"= 	c #B8B8B8",
"- 	c #B0B0B0",
"; 	c #A9A9A9",
"> 	c #969696",
", 	c #E0E0E0",
"' 	c #DBDBDB",
") 	c #D2D1D1",
"! 	c #C2C2C2",
"~ 	c #AFAFAF",
"{ 	c #9B9B9B",
"] 	c #7D7D7D",
"^ 	c #6B6B6B",
"/ 	c #DDDFDF",
"( 	c #DACECE",
"_ 	c #D5C6C6",
": 	c #C8C5C5",
"< 	c #828282",
"[ 	c #E1D1D1",
"} 	c #DDCBCB",
"| 	c #DDA6A6",
"1 	c #DA9898",
"2 	c #C9AAAA",
"3 	c #A09B9B",
"4 	c #535151",
"5 	c #DFA9A9",
"6 	c #DDAEAE",
"7 	c #DDA3A3",
"8 	c #DF7A7A",
"9 	c #DA7171",
"0 	c #B97C7C",
"a 	c #706363",
"b 	c #DEAFAF",
"c 	c #DDA4A4",
"d 	c #D9A2A2",
"e 	c #D89696",
"f 	c #D97979",
"g 	c #C76868",
"h 	c #895D5D",
"i 	c #C6C6C6",
"j 	c #D7D7D7",
"k 	c #DCD6D6",
"l 	c #DBC6C6",
"m 	c #D8B2B2",
"n 	c #D2ABAB",
"o 	c #CDAEAE",
"p 	c #C09797",
"q 	c #976D6D",
"r 	c #8A8A8A",
"s 	c #BDBDBD",
"t 	c #D2D2D2",
"u 	c #DEDEDE",
"v 	c #DADADA",
"w 	c #D4D4D4",
"x 	c #D7D8D8",
"y 	c #D0C9C9",
"z 	c #CCBEBE",
"A 	c #BFC6C6",
"B 	c #999797",
"C 	c #625F5F",
"D 	c #686C6C",
"E 	c #C1C1C1",
"F 	c #E2E2E2",
"G 	c #DCDCDC",
"H 	c #DDDDDD",
"I 	c #CDCDCD",
"J 	c #C8C8C8",
"K 	c #C7C7C7",
"L 	c #ACADAD",
"M 	c #A1A1A1",
"N 	c #9C9C9C",
"O 	c #C9C9C9",
"P 	c #DFDFDF",
"Q 	c #D1D1D1",
"R 	c #D0D0D0",
"S 	c #B6B6B6",
"T 	c #9E9E9E",
"U 	c #ADADAD",
"V 	c #C3C3C3",
"W 	c #B5B5B5",
"X 	c #C5C5C5",
"Y 	c #CACACA",
"Z 	c #D5D5D5",
"` 	c #CBCBCB",
" .	c #9F9F9F",
"..	c #7C7C7C",
"+.	c #7A7A7A",
"@.	c #888888",
"#.	c #9A9A9A",
"$.	c #B6AEAE",
"%.	c #A4A1A1",
"&.	c #B7B7B7",
"*.	c #ABABAB",
"=.	c #A4A4A4",
"-.	c #9D9D9D",
";.	c #A0A0A0",
">.	c #A5A5A5",
",.	c #C4C4C4",
"'.	c #BFBFBF",
").	c #6C6C6C",
"!.	c #A09999",
"~.	c #8F8E8E",
"{.	c #898989",
"].	c #909090",
"^.	c #A7A7A7",
"/.	c #A6A6A6",
"(.	c #A2A2A2",
"_.	c #949494",
":.	c #6E6E6E",
"<.	c #7C7B7B",
"[.	c #AAAAAA",
"}.	c #838383",
"|.	c #959595",
"1.	c #8F8F8F",
"2.	c #929292",
"3.	c #777777",
"4.	c #848484",
"5.	c #999999",
"6.	c #989898",
"7.	c #818181",
"8.	c #858585",
"9.	c #686868",
"0.	c #757575",
"a.	c #808080",
"b.	c #919191",
"c.	c #8E8E8E",
"d.	c #797979",
"e.	c #7B7B7B",
"f.	c #878787",
"g.	c #8D8D8D",
"h.	c #7F7F7F",
"i.	c #5E5E5E",
"j.	c #363636",
"k.	c #CECECE",
"l.	c #868686",
"m.	c #6F6F6F",
"n.	c #7E7E7E",
"o.	c #707070",
"p.	c #747474",
"q.	c #727272",
"r.	c #575757",
"s.	c #737373",
"t.	c #595959",
"u.	c #717171",
"v.	c #656565",
"w.	c #5C5C5C",
"x.	c #606060",
"y.	c #5F5F5F",
"z.	c #515151",
"A.	c #C0C0C0",
"B.	c #787878",
"C.	c #545454",
"D.	c #4E4E4E",
"E.	c #BCBCBC",
"F.	c #ACACAC",
"G.	c #626262",
"H.	c #535353",
"I.	c #565656",
"J.	c #B7B0B0",
"K.	c #A29999",
"L.	c #8B8B8B",
"M.	c #646464",
"N.	c #696969",
"O.	c #4B4B4B",
"P.	c #A5A0A0",
"Q.	c #929090",
"R.	c #807E7E",
"S.	c #6E6E6F",
"T.	c #636364",
"U.	c #666666",
"V.	c #4F4F4F",
"W.	c #505050",
"X.	c #8B8A8A",
"Y.	c #848485",
"Z.	c #78787B",
"`.	c #67676A",
" +	c #59595A",
".+	c #4C4C4C",
"++	c #4B4646",
"@+	c #4D4444",
"#+	c #524E4E",
"$+	c #696868",
"%+	c #5A5A5A",
"&+	c #7E7E82",
"*+	c #898992",
"=+	c #7A7A7F",
"-+	c #3B3A3A",
";+	c #3E3434",
">+	c #6F3A3A",
",+	c #533232",
"'+	c #545555",
")+	c #6F7070",
"!+	c #8C8C8C",
"~+	c #646463",
"{+	c #646466",
"]+	c #8B8B92",
"^+	c #737376",
"/+	c #494949",
"(+	c #393636",
"_+	c #5B3C3C",
":+	c #813131",
"<+	c #616161",
"[+	c #5F5F60",
"}+	c #363737",
"|+	c #4C4444",
"1+	c #734848",
"2+	c #823333",
"3+	c #6D6D6D",
"4+	c #5D5D5D",
"5+	c #4E4D4D",
"6+	c #313131",
"7+	c #212121",
"8+	c #343131",
"9+	c #5C4747",
"0+	c #7C4848",
"a+	c #7A3636",
"b+	c #555555",
"c+	c #676464",
"d+	c #534C4C",
"e+	c #3E3D3D",
"f+	c #232323",
"g+	c #0F0F0F",
"h+	c #0B0B0B",
"i+	c #161616",
"j+	c #3F4141",
"k+	c #765757",
"l+	c #955050",
"m+	c #B1B1B1",
"n+	c #585050",
"o+	c #644747",
"p+	c #5C4444",
"q+	c #453E3E",
"r+	c #272525",
"s+	c #111111",
"t+	c #131313",
"u+	c #383838",
"v+	c #595C5C",
"w+	c #8D6464",
"x+	c #9C5252",
"y+	c #676767",
"z+	c #555252",
"A+	c #5C3F3F",
"B+	c #6E3A3A",
"C+	c #704D4D",
"D+	c #5B4B4B",
"E+	c #393535",
"F+	c #353535",
"G+	c #525252",
"H+	c #9B8F8F",
"I+	c #AF7676",
"J+	c #B25353",
"K+	c #D3D3D3",
"L+	c #585858",
"M+	c #6A6A6A",
"N+	c #585252",
"O+	c #502828",
"P+	c #743A3A",
"Q+	c #825555",
"R+	c #725959",
"S+	c #615B5B",
"T+	c #B2B0B0",
"U+	c #9C9595",
"V+	c #B36F6F",
"W+	c #B95252",
"X+	c #DDD7D7",
"Y+	c #D6D5D5",
"Z+	c #7E3D3D",
"`+	c #925959",
" @	c #926F6F",
".@	c #A19696",
"+@	c #B4B3B3",
"@@	c #ABACAC",
"#@	c #A29E9E",
"$@	c #AE9696",
"%@	c #BD7878",
"&@	c #AE5454",
"*@	c #E1A8A8",
"=@	c #DDCACA",
"-@	c #D5D4D4",
";@	c #C8C9C9",
">@	c #767676",
",@	c #8A4242",
"'@	c #A55F5F",
")@	c #B78383",
"!@	c #A29D9D",
"~@	c #9E9F9F",
"{@	c #BABDBD",
"]@	c #CFCCCC",
"^@	c #C6A4A4",
"/@	c #C47575",
"(@	c #E1AAAA",
"_@	c #DDA2A2",
":@	c #D8B0B0",
"<@	c #CFC2C2",
"[@	c #C5C4C4",
"}@	c #A3A3A3",
"|@	c #939393",
"1@	c #434343",
"2@	c #B36161",
"3@	c #B57A7A",
"4@	c #AF9B9B",
"5@	c #C5C0C0",
"6@	c #D1D2D2",
"7@	c #C7BCBC",
"8@	c #C29696",
"9@	c #BE7171",
"0@	c #E1D3D3",
"a@	c #DEB1B1",
"b@	c #DAA2A2",
"c@	c #D3AAAA",
"d@	c #CABCBC",
"e@	c #BEBDBD",
"f@	c #B75F5F",
"g@	c #BF7F7F",
"h@	c #C1A5A5",
"i@	c #C5BDBD",
"j@	c #C1C3C3",
"k@	c #BCADAD",
"l@	c #CA8D8D",
"m@	c #BB6A6A",
"n@	c #DCDEDE",
"o@	c #DDCCCC",
"p@	c #D99494",
"q@	c #CEADAD",
"r@	c #BBB9B9",
"s@	c #B75656",
"t@	c #C37A7A",
"u@	c #C19A9A",
"v@	c #BCB6B6",
"w@	c #B1B9B9",
"x@	c #B6A7A7",
"y@	c #D18888",
"z@	c #B26363",
"A@	c #D8D8D8",
"B@	c #D9DADA",
"C@	c #D9CECE",
"D@	c #DCA7A7",
"E@	c #D97777",
"F@	c #C09595",
"G@	c #A09A9A",
"H@	c #BABABA",
"I@	c #BD7777",
"J@	c #BD9191",
"K@	c #B4A3A3",
"L@	c #ADA9A9",
"M@	c #BCA1A1",
"N@	c #C38686",
"O@	c #D3D4D4",
"P@	c #D5CBCB",
"Q@	c #DF9999",
"R@	c #E16A6A",
"S@	c #D06666",
"T@	c #917070",
"U@	c #615E5E",
"V@	c #393939",
"W@	c #BD7171",
"X@	c #CA8C8C",
"Y@	c #B7A8A8",
"Z@	c #C0BFBF",
"`@	c #C5AEAE",
" #	c #B07575",
".#	c #BEBEBE",
"+#	c #C5C3C3",
"@#	c #C9ABAB",
"##	c #B87E7E",
"$#	c #B9B9B9",
"%#	c #AD6C6C",
"&#	c #B98686",
"*#	c #BBA5A5",
"=#	c #C1B6B6",
"-#	c #BEACAC",
";#	c #A59D9D",
">#	c #AEADAD",
",#	c #6F6161",
"'#	c #484848",
")#	c #A58181",
"!#	c #BBAEAE",
"~#	c #CDC7C7",
"{#	c #E4E4E4",
"]#	c #D6D6D6",
"^#	c #A7A3A3",
"/#	c #CFCDCD",
"(#	c #A6A4A4",
"_#	c #A9A8A8",
":#	c #E1E1E1",
"<#	c #E3E3E3",
"[#	c #CFCFCF",
"                                                                                                                                ",
"                                                                              . . +                                             ",
"                                                                              @ # # $ %                                         ",
"                                                                            & * = % - ; >                                       ",
"                                                                          , ' ) ! ~ { ] ^                                       ",
"                                                                          / ( _ : - <                                           ",
"                                                                        [ } | 1 2 3 4                                           ",
"                                                                      5 6 7 8 9 0 a                                             ",
"                                                                    b c d e f g h         i j                                   ",
"                                                                  k l m n o p q     r s t ' u v *                               ",
"                                                                w x w y z A B C D E u F G H v j w I                             ",
"                                                              J J i i K E L M N O ' F P j w Q R E S T                           ",
"                                                            U V E U - S % W E X Y w t w Z ` !  ...+.@.#.                        ",
"                                            $.%.          &.*.=.# -.#.;.>.S ! V ,.J ` J '.=.).                                  ",
"                                            !.~.{.].    r N ^./.(.{ > _.M $ &.@ @ @ # M :.                                      ",
"                                              <.r M &.[.{.}.(. .|._.r 1.>.[.U ~ [.2.3.                                          ",
"                                                4.5.=.*. .> 6.1.}.7.8.|.-.N 6.4.9.                                              ",
"                                                0.a.b.; ~ M c.] d.e.f.g.@.h.i.j.                                                ",
"                                          ! k.Z l.m.n.8.0.o.0.o.o.n.p.q.9.r.                                                    ",
"                                        S s ,.! % @.s.i.t.u.q.o.v.w.x.y.z.                                                      ",
"                                      S @ A.= ~ U M 8.9.9.B.3.o.w.C.i.D.                                                        ",
"                                    ,.E.X '.F.#.5.5. .@.+.3.c.r G.H.I.                                                          ",
"                          J.K.      Q ,.W [.{ _.L.n.] ] o.M.:.v.t.N.9.O.                                                        ",
"                          P.Q.R.    X i ~ #.b.r a.S.T.U.x.V.D.W.i.0.s.x.                                                        ",
"                            X.g.L.a.|.S $ 5.{.7.Y.Z.`. +.+++@+#+$+d.0.%+                                                        ",
"                              M #.@...b.*.T 7.s.&+*+=+r.-+;+>+,+'+)+N.                                                          ",
"                              s [._.l.d.!+% f.~+{+]+^+U./+(+_+:+                                                                ",
"                              ^.F./.8.G.N.@.l.:.<+[+v.:.W.}+|+1+2+                                                              ",
"                            c.1.-.>.+.%+N.+.d.3+4+D.5+/+6+7+8+9+0+a+                                                            ",
"                          - 5.< _.N :.3.e.d.^ b+c+d+e+f+g+h+i+j+k+l+                                                            ",
"                        m+/.;.N |.@.0.o.0.7.p.I.n+o+p+q+r+s+t+u+v+w+x+                                                          ",
"                      X E.^.M N c.h.u.m.m.e.y+H.z+A+B+C+D+E+F+G+] H+I+J+                                                        ",
"                    K+K @ U ;._.8.d.o.U.%+4+L+y.M+N+O+P+Q+R+S+] ^.T+U+V+W+                                                      ",
"                  X+Y+X -  .#.b.< ] 0.i.H.b+U.p.d.y+    Z+`+ @.@+@@@#@$@%@&@                                                    ",
"                *@=@-@;@. N > L.4.{.>@x.9.b+).0...N.      ,@'@)@!@~@{@]@^@/@                                                    ",
"              (@_@:@<@[@. }@> 2.|@r s.y..+  1@4+r.            2@3@4@5@6@7@8@9@                                                  ",
"            0@a@b@c@d@e@- + }@M #.l.N.W.                        f@g@h@i@j@k@l@m@                                                ",
"        n@n@o@c p@q@r@~ . W m+[.#...I.                            s@t@u@v@w@x@y@z@                                              ",
"      A@B@C@D@8 E@F@G@;.H@'.= U |.v.                                  I@J@K@L@M@N@                                              ",
"  . '.k.O@P@Q@R@S@T@U@#.K V s m+@.V@                                    W@X@Y@Z@`@ #                                            ",
"  m+$ S .#+#@###h   +..#O ,.$#>.3+                                        %#&#*#=#-#;#                                          ",
"  U W ~ *.>#3 ,#    . Z Q J = _.'#                                            )#!#~#Z@#.                                        ",
"    S = 5.4.        u {#]#* W +.                                                ^#/#i >.a.                                      ",
"    ~ U n.        E.H G w X -..+                                                  (#_#; |.m.                                    ",
"      M B.        K+' j Q H@..                                                      l._.1.3.                                    ",
"                i G v K+K (.                                                          y+s.:.                                    ",
"                :#<#' t ,.m.                                                              t.                                    ",
"                  v ]#O ;.                                                                                                      ",
"                  I [#.#l.                                                                                                      ",
"                    ! . }.                                                                                                      ",
"                      =.c.                                                                                                      ",
"                        [.                                                                                                      ",
"                                                                                                                                ",
"                                                                                                                                ",
"                                                                                                                                ",
"                                                                                                                                ",
"                                                                                                                                ",
"                                                                                                                                ",
"                                                                                                                                ",
"                                                                                                                                ",
"                                                                                                                                ",
"                                                                                                                                ",
"                                                                                                                                ",
"                                                                                                                                "};
