/* XPM */
static char * x_wing9_xpm[] = {
"64 64 398 2",
"  	c None",
". 	c #B3B3B3",
"+ 	c #B0B0B0",
"@ 	c #B5B5B5",
"# 	c #A8A8A8",
"$ 	c #E3E3E3",
"% 	c #D8D7D7",
"& 	c #BDBDBD",
"* 	c #E4E9E9",
"= 	c #DEE4E4",
"- 	c #DBDBDB",
"; 	c #D4D5D5",
"> 	c #C1C1C1",
", 	c #ACACAC",
"' 	c #B7B7B7",
") 	c #C0C0C0",
"! 	c #E3ADAD",
"~ 	c #E2BBBB",
"{ 	c #E0DCDC",
"] 	c #DCC3C3",
"^ 	c #DBBDBD",
"/ 	c #D3D1D1",
"( 	c #C3C4C4",
"_ 	c #AAAAAA",
": 	c #9D9D9D",
"< 	c #9A9A9A",
"[ 	c #989898",
"} 	c #B9B2B2",
"| 	c #E1D2D2",
"1 	c #E1A7A7",
"2 	c #DFA4A4",
"3 	c #DEA2A2",
"4 	c #DEA6A6",
"5 	c #E18181",
"6 	c #E28383",
"7 	c #D3B2B2",
"8 	c #BBBFBF",
"9 	c #999A9A",
"0 	c #656565",
"a 	c #9C9C9C",
"b 	c #908E8E",
"c 	c #909090",
"d 	c #D1D0D0",
"e 	c #D9DADA",
"f 	c #DBD7D7",
"g 	c #DAB9B9",
"h 	c #D9A5A5",
"i 	c #D8A0A0",
"j 	c #DB8585",
"k 	c #E26060",
"l 	c #DB6F6F",
"m 	c #BF8B8B",
"n 	c #848383",
"o 	c #8D8D8D",
"p 	c #767676",
"q 	c #8B8B8B",
"r 	c #929292",
"s 	c #B8B8B8",
"t 	c #C7C7C7",
"u 	c #C6C6C6",
"v 	c #CACACA",
"w 	c #D0D0D0",
"x 	c #D0C8C8",
"y 	c #CFB4B4",
"z 	c #CDBEBE",
"A 	c #CDA8A8",
"B 	c #C56F6F",
"C 	c #986767",
"D 	c #555050",
"E 	c #797979",
"F 	c #939393",
"G 	c #A9A9A9",
"H 	c #B6B6B6",
"I 	c #A7A7A7",
"J 	c #AFAFAF",
"K 	c #A4A4A4",
"L 	c #C2C2C2",
"M 	c #B2B8B8",
"N 	c #989191",
"O 	c #716565",
"P 	c #D9D9D9",
"Q 	c #737373",
"R 	c #9F9F9F",
"S 	c #ABABAB",
"T 	c #A1A1A1",
"U 	c #7F7F7F",
"V 	c #919191",
"W 	c #A3A3A3",
"X 	c #A2A2A2",
"Y 	c #B1B1B1",
"Z 	c #B2B2B2",
"` 	c #888888",
" .	c #6B6C6C",
"..	c #969898",
"+.	c #A5A5A5",
"@.	c #D1D1D1",
"#.	c #B9B3B3",
"$.	c #A79C9C",
"%.	c #C3C3C3",
"&.	c #CECECE",
"*.	c #CCCCCC",
"=.	c #727272",
"-.	c #AEAEAE",
";.	c #A6A6A6",
">.	c #9B9B9B",
",.	c #BABABA",
"'.	c #E4E4E4",
").	c #E6E6E6",
"!.	c #DEDEDE",
"~.	c #E2E2E2",
"{.	c #E1E1E1",
"].	c #989696",
"^.	c #898787",
"/.	c #CFCFCF",
"(.	c #BBBBBB",
"_.	c #BFBFBF",
":.	c #BEBEBE",
"<.	c #898989",
"[.	c #878787",
"}.	c #949494",
"|.	c #8F8F8F",
"1.	c #8E8E8E",
"2.	c #BCBCBC",
"3.	c #C4C4C4",
"4.	c #C5C5C5",
"5.	c #D7D7D7",
"6.	c #DADADA",
"7.	c #DFDFDF",
"8.	c #DCDCDC",
"9.	c #818080",
"0.	c #D3D3D3",
"a.	c #747474",
"b.	c #666666",
"c.	c #585858",
"d.	c #818181",
"e.	c #7D7D7D",
"f.	c #7B7B7B",
"g.	c #7E7E7E",
"h.	c #868686",
"i.	c #959595",
"j.	c #B4B4B4",
"k.	c #CDCDCD",
"l.	c #D6D6D6",
"m.	c #D4D4D4",
"n.	c #D2D2D2",
"o.	c #D5D5D5",
"p.	c #C9C9C9",
"q.	c #A0A0A0",
"r.	c #979797",
"s.	c #828282",
"t.	c #4F4F4F",
"u.	c #5B5B5B",
"v.	c #7A7A7A",
"w.	c #6E6E6E",
"x.	c #848484",
"y.	c #9E9E9E",
"z.	c #ADADAD",
"A.	c #C8C8C8",
"B.	c #B9B9B9",
"C.	c #8C8C8C",
"D.	c #858585",
"E.	c #757575",
"F.	c #717171",
"G.	c #6B6B6B",
"H.	c #838383",
"I.	c #7C7C7C",
"J.	c #646464",
"K.	c #5F5F5F",
"L.	c #777777",
"M.	c #636363",
"N.	c #4B4B4B",
"O.	c #575757",
"P.	c #414141",
"Q.	c #333333",
"R.	c #707070",
"S.	c #838386",
"T.	c #606062",
"U.	c #5E5E5E",
"V.	c #606060",
"W.	c #616161",
"X.	c #535353",
"Y.	c #676767",
"Z.	c #4E4E4E",
"`.	c #3C3C3C",
" +	c #999999",
".+	c #545454",
"++	c #424242",
"@+	c #7B7B81",
"#+	c #91919B",
"$+	c #7D7D83",
"%+	c #515151",
"&+	c #525454",
"*+	c #454545",
"=+	c #555555",
"-+	c #3F3F3F",
";+	c #505050",
">+	c #DBDCDC",
",+	c #969696",
"'+	c #6D6D6D",
")+	c #6F6F6F",
"!+	c #8B8B8C",
"~+	c #7A7A79",
"{+	c #636362",
"]+	c #737375",
"^+	c #8B8B91",
"/+	c #747477",
"(+	c #393838",
"_+	c #4D4444",
":+	c #4D4848",
"<+	c #525252",
"[+	c #5F6060",
"}+	c #787878",
"|+	c #E3A6A6",
"1+	c #E1ABAB",
"2+	c #DDD4D4",
"3+	c #D7D8D8",
"4+	c #626261",
"5+	c #5E5F5F",
"6+	c #373636",
"7+	c #503535",
"8+	c #6C3939",
"9+	c #4E4C4C",
"0+	c #767878",
"a+	c #E3E6E6",
"b+	c #E3E7E7",
"c+	c #E1B5B5",
"d+	c #DFA3A3",
"e+	c #DCA3A3",
"f+	c #D6C5C5",
"g+	c #5C5C5C",
"h+	c #5B5A5A",
"i+	c #484848",
"j+	c #5A5A5A",
"k+	c #565656",
"l+	c #3A3939",
"m+	c #4F3F3F",
"n+	c #7F3232",
"o+	c #666767",
"p+	c #7F8080",
"q+	c #DDDCDC",
"r+	c #DBDDDD",
"s+	c #DBD6D6",
"t+	c #DEC9C9",
"u+	c #DEAAAA",
"v+	c #DA9E9E",
"w+	c #D5A9A9",
"x+	c #D0BBBB",
"y+	c #8A8A8A",
"z+	c #6A6A6A",
"A+	c #565454",
"B+	c #685656",
"C+	c #464242",
"D+	c #282828",
"E+	c #2D2F2F",
"F+	c #534747",
"G+	c #7C4040",
"H+	c #571C1C",
"I+	c #CFD0D0",
"J+	c #D6D1D1",
"K+	c #DCB0B0",
"L+	c #E28080",
"M+	c #E17171",
"N+	c #D79999",
"O+	c #CBC3C3",
"P+	c #C4C6C6",
"Q+	c #4D4D4D",
"R+	c #5D5D5D",
"S+	c #535454",
"T+	c #514D4D",
"U+	c #734141",
"V+	c #604848",
"W+	c #313030",
"X+	c #101111",
"Y+	c #080808",
"Z+	c #181A1A",
"`+	c #4B4444",
" @	c #7C4D4D",
".@	c #7E2F2F",
"+@	c #CECFCF",
"@@	c #DC9A9A",
"#@	c #E16868",
"$@	c #DF6565",
"%@	c #C89292",
"&@	c #ABA8A8",
"*@	c #A3A4A4",
"=@	c #6D6F6F",
"-@	c #616060",
";@	c #5C2D2D",
">@	c #7C4242",
",@	c #5D5353",
"'@	c #1F2121",
")@	c #020202",
"!@	c #3F4242",
"~@	c #7D5555",
"{@	c #8D3E3E",
"]@	c #C5A1A1",
"^@	c #BA7474",
"/@	c #9A6767",
"(@	c #7E6B6B",
"_@	c #737070",
":@	c #813535",
"<@	c #805F5F",
"[@	c #454141",
"}@	c #1E1F1F",
"|@	c #222222",
"1@	c #434747",
"2@	c #735B5B",
"3@	c #974F4F",
"4@	c #514E4E",
"5@	c #939494",
"6@	c #808080",
"7@	c #5A5B5B",
"8@	c #632424",
"9@	c #915353",
"0@	c #775E5E",
"a@	c #454A4A",
"b@	c #525151",
"c@	c #6C6D6D",
"d@	c #827D7D",
"e@	c #A35C5C",
"f@	c #313131",
"g@	c #903E3E",
"h@	c #9B6666",
"i@	c #787676",
"j@	c #949595",
"k@	c #AF7676",
"l@	c #A04949",
"m@	c #A65C5C",
"n@	c #AA8A8A",
"o@	c #B9BBBB",
"p@	c #C8CACA",
"q@	c #9D8282",
"r@	c #BE5A5A",
"s@	c #E0E0E0",
"t@	c #9B4A4A",
"u@	c #BC7474",
"v@	c #A29D9D",
"w@	c #9C9D9D",
"x@	c #A1A2A2",
"y@	c #A39797",
"z@	c #C16B6B",
"A@	c #C36565",
"B@	c #A98888",
"C@	c #AFAEAE",
"D@	c #C4C8C8",
"E@	c #C7BDBD",
"F@	c #C28989",
"G@	c #B14D4D",
"H@	c #E5E5E5",
"I@	c #D8D8D8",
"J@	c #C37979",
"K@	c #C0B3B3",
"L@	c #D9DCDC",
"M@	c #C49999",
"N@	c #BF6060",
"O@	c #C46262",
"P@	c #BE9898",
"Q@	c #C8C4C4",
"R@	c #C5CCCC",
"S@	c #C5A4A4",
"T@	c #C37474",
"U@	c #C27E7E",
"V@	c #C1A7A7",
"W@	c #BAC2C2",
"X@	c #BCB0B0",
"Y@	c #C98484",
"Z@	c #BF6666",
"`@	c #C48F8F",
" #	c #B2B1B1",
".#	c #B0B1B1",
"+#	c #CA8D8D",
"@#	c #B06161",
"##	c #C57F7F",
"$#	c #B99D9D",
"%#	c #A9ACAC",
"&#	c #BF9C9C",
"*#	c #CB7575",
"=#	c #686868",
"-#	c #AF6666",
";#	c #C88D8D",
">#	c #B7B4B4",
",#	c #C3B8B8",
"'#	c #CC7C7C",
")#	c #BB7474",
"!#	c #C0ABAB",
"~#	c #C5BFBF",
"{#	c #BD9090",
"]#	c #AE8787",
"^#	c #C3BABA",
"/#	c #C3B3B3",
"(#	c #978787",
"_#	c #9B8585",
":#	c #CDC7C7",
"<#	c #D6D2D2",
"[#	c #919292",
"}#	c #C2C1C1",
"|#	c #474747",
"1#	c #595959",
"                                                                                                                                ",
"                                                                                                                                ",
"                                                                                                                                ",
"                                                                                                                                ",
"                                                                                                                                ",
"                                                                                                                                ",
"                                                                                                    . +                         ",
"                                                                                                    @ @ #                       ",
"                                                                                                $ % & . @ +                     ",
"                                                                                            * = - ; > , ' )                     ",
"                                                                                        ! ~ { ] ^ / ( _ : < [                   ",
"                                                            }                       | 1 2 3 4 5 6 7 8 9 0     a                 ",
"                                                            b c                 d e f g h i j k l m n         o                 ",
"                                                            p q r           s t u v w x y z A B C D                             ",
"                                                            E F G H : q I J K ) + . L u ( M N O                                 ",
"                                                      u P   Q o R S T U V # W S a X Y Z J # `  ...+.# ) u @.                    ",
"                                    #.$.        H H s %.&.*.=.E r -.;.V >.W a : [ [ R G ,.> & v P '.).!.!.~.{.                  ",
"                                    ].^.      /.(.L t _.:.u <.Q [.>.G T }.|.<.V |.1.< , 2.3.4.*.5.6.7.P - 8.8.5.                ",
"                                    9.o U   - 0.> _.) , ;.Z I a.b.c.b.d.e.f.f.g.h.i.+.-.j.2.) u k.w l.m.@.n.o.0.p.              ",
"                                    q.R V f.-.n.@ T a r.[ [ _ s.t.u.v.a.=.w.e.x.1.[ y.K z.. H ,.:.%.A.%.%.> (._.)               ",
"                                    B.j.}.g.d.A.+ i.F r C.D.r r E E.E w.F.G.F.Q g.d.h.` D.1.1.<.c H.I.e.J.u.K.d.a               ",
"                                    J + >.[.L.-.J 1.D.s.f.b.F.x.f.E.q e.M.N.O.J.M.M.c.P.Q.                        <             ",
"                                T <.i.J _ x.a.1.Y s.R.C.S.T.U.G.U.V.d.[.W.X.Y.c.Z.`.                              [.            ",
"                            j.# q.` q _  +.+++E X g.K.@+#+$+U.%+&+*+=+-+U.W.;+                                                  ",
"                      >+/.u :.a I +.,+}.'+b.)+v.!+~+{+]+^+/+Z.(+_+:+<+[+L.}+Y.                                                  ",
"                |+1+2+3+A.H Z K : F C.I.)+E.L.}+)+p U.c.4+~+5+6+7+8+9+0+s.p G.                                                  ",
"        '.a+b+c+d+e+f+w ) I < : }.H.f.R.p R.h.s.g+K.h+i+j+R.k+l+m+n+  o+p+w.                                              g.    ",
"Y (.w q+r+s+t+u+v+w+x+p.& G ,+,+y+e.E F.G.z+[.d.j+A+B+C+Q.Q.D+E+F+G+H+                                                          ",
"Y j.) I+J+K+L+M+N+O+P+(.z.X ,+q [.[.d.z+Q+N.R+-+S+T+U+V+W+X+Y+Z+`+ @.@                                                          ",
". s -.) +@@@#@$@%@&@*@Y j.G X R [ C.E.V.b..+M.'+=@-@;@>@,@'@)@Y+!@~@{@                                                          ",
"j.,.# + 8 ]@^@/@(@_@ +> > ' -.K i.I.b.R+=+<+R.L.d.R.  :@<@[@}@|@1@2@3@                                                          ",
"s Z C.` E 4@      5@_.p.L ' z.: d.J.=+-+    )+Q 6@7@  8@9@0@a@b@c@d@e@                                                          ",
"  q.            & m.&.t :.s +.f.Q+f@                    g@h@i@j@z., k@l@                                                        ",
"  q           %.).7.@.A.2.z.D.-+                          m@n@o@p@J q@r@                                                        ",
"  :         w s@~.P w 4.-.e.                              t@u@v@w@x@y@z@                                                        ",
"  z.      P !.8.P o.p.Y s.                                  A@B@C@D@E@F@G@                                                      ",
"          H@7.I@0./.+ z+                                      J@K@L@@.M@N@                                                      ",
"          !.P n.v -.G.                                        O@P@Q@R@S@T@                                                      ",
"          I@5.v T                                               U@V@W@X@Y@                                                      ",
"          @.t q.                                                Z@`@ #.#+#@#                                                    ",
"          > J b.                                                  ##$#%#&#*#                                                    ",
"            +.=#                                                  -#;#>#,#'#                                                    ",
"            _                                                       )#!#~#{#                                                    ",
"                                                                      ]#^#/#(#                                                  ",
"                                                                      _#:#<#,                                                   ",
"                                                                      [#}#/.Z U                                                 ",
"                                                                        R -._ s.                                                ",
"                                                                        p R _ y+                                                ",
"                                                                          =.V x.                                                ",
"                                                                          |#R.Q                                                 ",
"                                                                            Q+1#                                                ",
"                                                                                                                                ",
"                                                                                                                                ",
"                                                                                                                                ",
"                                                                                                                                ",
"                                                                                                                                ",
"                                                                                                                                ",
"                                                                                                                                ",
"                                                                                                                                ",
"                                                                                                                                ",
"                                                                                                                                ",
"                                                                                                                                ",
"                                                                                                                                ",
"                                                                                                                                "};
