/* XPM */
static char * x_wing0_xpm[] = {
"64 64 360 2",
"  	c None",
". 	c #686868",
"+ 	c #666666",
"@ 	c #7C7C7C",
"# 	c #777777",
"$ 	c #464646",
"% 	c #969696",
"& 	c #949494",
"* 	c #5F5F5F",
"= 	c #787878",
"- 	c #AAAAAA",
"; 	c #ACACAC",
"> 	c #878787",
", 	c #ADADAD",
"' 	c #8F8F8F",
") 	c #9B9B9B",
"! 	c #CACACA",
"~ 	c #CFCECE",
"{ 	c #ABABAB",
"] 	c #9A9797",
"^ 	c #D2CDCD",
"/ 	c #D3CECE",
"( 	c #A4A1A1",
"_ 	c #A27777",
": 	c #C3B4B4",
"< 	c #C0B7B7",
"[ 	c #9B7777",
"} 	c #BB6F6F",
"| 	c #C5B7B7",
"1 	c #C2BABA",
"2 	c #AB6D6D",
"3 	c #D27F7F",
"4 	c #C2B8B8",
"5 	c #BEB8B8",
"6 	c #C27F7F",
"7 	c #D38484",
"8 	c #AFA8A8",
"9 	c #ACA8A8",
"0 	c #CB8888",
"a 	c #CC8686",
"b 	c #B0ACAC",
"c 	c #ADACAC",
"d 	c #C78B8B",
"e 	c #C98B8B",
"f 	c #B7B7B7",
"g 	c #B5B7B7",
"h 	c #C38E8E",
"i 	c #B95F5F",
"j 	c #797979",
"k 	c #BA5959",
"l 	c #C69090",
"m 	c #C0C2C2",
"n 	c #C19595",
"o 	c #BF6363",
"p 	c #929292",
"q 	c #BF5D5D",
"r 	c #C49999",
"s 	c #CBCDCD",
"t 	c #BE9C9C",
"u 	c #C26565",
"v 	c #C15E5E",
"w 	c #C2A2A2",
"x 	c #D7D8D8",
"y 	c #BDA7A7",
"z 	c #C66666",
"A 	c #C35F5F",
"B 	c #A99595",
"C 	c #B7B8B8",
"D 	c #A89B9B",
"E 	c #C86969",
"F 	c #BD5F5F",
"G 	c #948888",
"H 	c #9C9C9C",
"I 	c #9C9D9D",
"J 	c #999090",
"K 	c #C46C6C",
"L 	c #B15E5E",
"M 	c #ACA4A4",
"N 	c #C6C7C7",
"O 	c #C7C8C8",
"P 	c #B3ADAD",
"Q 	c #B96C6C",
"R 	c #9E9E9E",
"S 	c #989898",
"T 	c #A25C5C",
"U 	c #949090",
"V 	c #A3A3A3",
"W 	c #A4A4A4",
"X 	c #9A9999",
"Y 	c #AA6B6B",
"Z 	c #A8A8A8",
"` 	c #696969",
" .	c #873434",
"..	c #935757",
"+.	c #626262",
"@.	c #5D5D5D",
"#.	c #5B5B5B",
"$.	c #606262",
"%.	c #9A6666",
"&.	c #903A3A",
"*.	c #747474",
"=.	c #919191",
"-.	c #865555",
";.	c #4E5050",
">.	c #2A2A2A",
",.	c #292929",
"'.	c #444646",
").	c #8D6464",
"!.	c #8A3A3A",
"~.	c #AEAEAE",
"{.	c #C9C9C9",
"].	c #BDBDBD",
"^.	c #9F9F9F",
"/.	c #737373",
"(.	c #833434",
"_.	c #775050",
":.	c #3E3F3F",
"<.	c #080808",
"[.	c #070707",
"}.	c #313232",
"|.	c #7E6161",
"1.	c #853939",
"2.	c #555555",
"3.	c #BFBFBF",
"4.	c #D3D3D3",
"5.	c #D2D2D2",
"6.	c #CFCFCF",
"7.	c #C6C6C6",
"8.	c #B8B8B8",
"9.	c #6A6A6A",
"0.	c #848484",
"a.	c #813333",
"b.	c #684D4D",
"c.	c #373838",
"d.	c #0B0B0B",
"e.	c #060606",
"f.	c #242525",
"g.	c #6D5B5B",
"h.	c #813838",
"i.	c #838383",
"j.	c #494949",
"k.	c #7B7B7B",
"l.	c #A0A0A0",
"m.	c #BABABA",
"n.	c #C7C7C7",
"o.	c #D0D0D0",
"p.	c #D4D4D4",
"q.	c #D1D1D1",
"r.	c #717171",
"s.	c #D9D9D9",
"t.	c #D6D6D6",
"u.	c #C3C3C3",
"v.	c #B0B0B0",
"w.	c #727272",
"x.	c #454545",
"y.	c #757575",
"z.	c #7F7F7F",
"A.	c #747575",
"B.	c #3C2F2F",
"C.	c #7F3232",
"D.	c #554545",
"E.	c #343535",
"F.	c #202020",
"G.	c #161616",
"H.	c #1C1C1C",
"I.	c #594F4F",
"J.	c #7C3939",
"K.	c #453636",
"L.	c #757676",
"M.	c #7E7E7E",
"N.	c #4A4A4A",
"O.	c #767676",
"P.	c #B1B1B1",
"Q.	c #C4C4C4",
"R.	c #D7D7D7",
"S.	c #DADADA",
"T.	c #969695",
"U.	c #E0E0E0",
"V.	c #DEDEDE",
"W.	c #DBDBDB",
"X.	c #D8D8D8",
"Y.	c #BCBCBC",
"Z.	c #A1A1A1",
"`.	c #616161",
" +	c #4D4D4D",
".+	c #4F4F4F",
"++	c #515151",
"@+	c #4C4C4C",
"#+	c #636363",
"$+	c #7A7A7A",
"%+	c #656565",
"&+	c #606060",
"*+	c #4B4242",
"=+	c #733838",
"-+	c #403636",
";+	c #3C3C3C",
">+	c #525252",
",+	c #333333",
"'+	c #494343",
")+	c #744444",
"!+	c #514848",
"~+	c #616262",
"{+	c #474747",
"]+	c #505050",
"^+	c #4B4B4B",
"/+	c #646464",
"(+	c #888888",
"_+	c #B3B3B3",
":+	c #C0C0C0",
"<+	c #DFDFDF",
"[+	c #E1E1E1",
"}+	c #E3E3E3",
"|+	c #DDDDDD",
"1+	c #DCDCDC",
"2+	c #D5D5D5",
"3+	c #8A8A8A",
"4+	c #676767",
"5+	c #3F3F3F",
"6+	c #4A4949",
"7+	c #524444",
"8+	c #353131",
"9+	c #808080",
"0+	c #494747",
"a+	c #685D5D",
"b+	c #525151",
"c+	c #545454",
"d+	c #4E4E4E",
"e+	c #8C8C8C",
"f+	c #B9B9B9",
"g+	c #C8C8C8",
"h+	c #E4E4E4",
"i+	c #E7E7E7",
"j+	c #C2C2C2",
"k+	c #BBBBBB",
"l+	c #A7A7A7",
"m+	c #939393",
"n+	c #858585",
"o+	c #5E5E5E",
"p+	c #8B8B8B",
"q+	c #434343",
"r+	c #525353",
"s+	c #6F6F6F",
"t+	c #959595",
"u+	c #A9A9A9",
"v+	c #C1C1C1",
"w+	c #CBCBCB",
"x+	c #CECECE",
"y+	c #B5B5B5",
"z+	c #8D8D8D",
"A+	c #828282",
"B+	c #7D7D7D",
"C+	c #6B6B6B",
"D+	c #585858",
"E+	c #5A5A5A",
"F+	c #676768",
"G+	c #8F8F97",
"H+	c #919199",
"I+	c #6C6C6D",
"J+	c #6D6D6D",
"K+	c #8E8E8E",
"L+	c #C5C5C5",
"M+	c #A5A5A5",
"N+	c #9D9D9D",
"O+	c #868686",
"P+	c #818181",
"Q+	c #6E6E6E",
"R+	c #5C5C5E",
"S+	c #84848C",
"T+	c #8D8D96",
"U+	c #5E5E5F",
"V+	c #686867",
"W+	c #6C6C6C",
"X+	c #5C5353",
"Y+	c #726060",
"Z+	c #846767",
"`+	c #8D8282",
" @	c #AFAFAF",
".@	c #979797",
"+@	c #8D8181",
"@@	c #5A5151",
"#@	c #B8B5B5",
"$@	c #CB8B8B",
"%@	c #D66C6C",
"&@	c #D96B6B",
"*@	c #CCA7A7",
"=@	c #C5C8C8",
"-@	c #C5C6C6",
";@	c #A2A2A2",
">@	c #BEBEBE",
",@	c #CDA2A2",
"'@	c #D96A6A",
")@	c #CB8E8E",
"!@	c #B6B3B3",
"~@	c #B2B2B2",
"{@	c #CECDCD",
"]@	c #DE9595",
"^@	c #E46666",
"/@	c #E16969",
"(@	c #D89595",
"_@	c #D3AAAA",
":@	c #D1B1B1",
"<@	c #CDCBCB",
"[@	c #A6A6A6",
"}@	c #CECBCB",
"|@	c #D2B0B0",
"1@	c #D3ABAB",
"2@	c #DA9090",
"3@	c #E26767",
"4@	c #E46767",
"5@	c #DD9A9A",
"6@	c #CBCCCC",
"7@	c #D3D4D4",
"8@	c #DBBCBC",
"9@	c #DDA6A6",
"0@	c #DEAFAF",
"a@	c #DDA0A0",
"b@	c #DBA1A1",
"c@	c #DAAAAA",
"d@	c #D7D0D0",
"e@	c #9A9A9A",
"f@	c #909090",
"g@	c #D7CECE",
"h@	c #DAA7A7",
"i@	c #DBA0A0",
"j@	c #DDA3A3",
"k@	c #DEB0B0",
"l@	c #DDA7A7",
"m@	c #DABFBF",
"n@	c #D0D2D2",
"o@	c #B6B6B6",
"p@	c #DBDCDC",
"q@	c #DDDFDF",
"r@	c #E1E0E0",
"s@	c #E1B0B0",
"t@	c #E0A6A6",
"u@	c #DFD3D3",
"v@	c #CCCCCC",
"w@	c #DFD1D1",
"x@	c #E0A4A4",
"y@	c #E1A5A5",
"z@	c #E1B4B4",
"A@	c #E1E2E2",
"B@	c #DCDEDE",
"C@	c #DADBDB",
"D@	c #999999",
"E@	c #B4B4B4",
"F@	c #E2E2E2",
"G@	c #E5E5E5",
"H@	c #E8E8E8",
"I@	c #CDCDCD",
"J@	c #E7E9E9",
"K@	c #898989",
"L@	c #929191",
"M@	c #858181",
"N@	c #898383",
"O@	c #949393",
"P@	c #B9B2B2",
"Q@	c #B5ACAC",
"R@	c #B9ABAB",
"S@	c #B9B3B3",
"                                                                                                                                ",
"                                                                                                                                ",
"                                                                                                                                ",
"                                                                                                                                ",
"                                                                                                                                ",
"                                                                                                                                ",
"                                                                                                                                ",
"                                                                                                                                ",
"                                                                                                                                ",
"                                                                                                                                ",
"                                                                                                                                ",
"                                                                                                                                ",
"                                                              . +                                                               ",
"                                                              @ # $                                                             ",
"                                                            + % & *                                                             ",
"                                                            = - ; #                                                             ",
"                                                            > - , '                                                             ",
"                                                            ) ! ~ {                                                             ",
"                                                            ] ^ / (                                                             ",
"                                                            _ : < [                                                             ",
"                                                            } | 1 2                                                             ",
"                                                            3 4 5 6                                                             ",
"                                                            7 8 9 0                                                             ",
"                                                            a b c d                                                             ",
"                                                            e f g h i                                                           ",
"    j                                                     k l m m n o                                                     p     ",
"                                                          q r s s t u                                                           ",
"                                                          v w x x y z                                                           ",
"                                                          A B C C D E                                                           ",
"                                                          F G H I J K                                                           ",
"        '                                                 L M N O P Q                                                 R         ",
"        S                                                 T U V W X Y                                                 Z         ",
"        ) `                                              ...+.@.#.$.%.&.                                            *.{         ",
"        Z =.                                             .-.;.>.,.'.).!.                                            % ~.        ",
"        {.].^./.                                        (._.:.<.[.}.|.1.    2.                                  # V 3.{.        ",
"        4.5.6.7.8.R =                         9.*.0..   a.b.c.d.e.f.g.h.  9.i./.+                       j.k.l.m.n.o.p.q.        ",
"  r.    p.s.t.q.6.6.u.v.S w.x.                y.= z.A.B.C.D.E.F.G.H.I.J.K.L.M.y.w.                N.O.) P.Q.o.o.5.R.S.5.    T.  ",
"          U.V.W.t.X.6.{.Y.P.Z.0.`. +.+++ +$ @+#+$+%+&+*+=+-+;+>+N.,+'+)+!+~+. # * N.{+ +]+^+.+/+(+W _+:+! q.X.t.W.<+[+          ",
"          }+<+|+1+U.2+6.7.].f { H 3+= . #+#+4+++2.5+ +6+7+8+{+9+@ ^+0+a+b+++5+c+d+` `.#+` j e+^.~.f+].g+o.s.U.1+|+U.h+          ",
"              6.V.i+<+2+n.j+k+P.l+R m+n+w.o+ +.+$+p++ q+r+5+d+` %+2.>+. d+s+e+*.N.d+&+y.(+t+l.u+_+].v+w+5.[+i+|+x+              ",
"    S             Z {.g+u.n.:+y+{ Z.% z+A+B+C+9.y.' # D++ E+F+G+H+I+#+O.+.B+p+*.C+J+B+0.K+S V , f j+{.L+g+g+M+            ;     ",
"    )                 @.% k+m.{ N+' O+P+$+= C+# Q+k.*.k.$+#+R+S+T+U+V+0.i.y.# Q+O.W+# @ 9+> =.^.~.Y.m.p #.                ,     ",
"      /.        X+Y+Z+`+S -  @Z ^.% % =.i.M.= /.= z.W+A+p r.+.9+e++ # ^.n+W+M.*.s+$+z.i.p % .@Z.u+v.u+.@+@Z+Y+@@        0.      ",
"      ^.z.3+V #@$@%@&@*@=@-@Q.Y.; t+N+H p m+p K+4+$ q+j ;@> i.P+A+P+3+P.$+q+$ 4+p+=.m+p H N+%  @>@Q.-@=@,@'@%@)@!@^.> B+;       ",
"      3.~@Z ].{@]@^@/@(@_@:@<@n._+W ~.W u+V & , M+9+s+j ~.S t+t+m+z+R k+9+O.i.; [@& M+l+V ~.W f {.}@|@1@2@3@4@5@6@f+M+_+3.      ",
"      y+y+, u.7@8@9@0@a@b@c@d@5.7.:+j+R u+p M.R v.e@k.*.f+{ ) e@.@S  @Q.k.i.N+f e@B+f@M+H u.:+g+7@g@h@i@j@k@l@m@n@3.{ m._+      ",
"      u+o@~@6.s.p@q@r@s@t@t@u@p@q.n.Q.Z f N+n+[@Z =.j /.u.Y.~.].Y.u+3.v@k.9+&  @{ 3+) v.u+L+g+4.|+w@x@y@z@A@B@C@X.w+~@f+;       ",
"      D@E@E@4.F@}+G@H@                        ~@y+H O+*.2+! L+n.7.v+I@W.$+z+^.Y.P.                        J@h+F@[+o.8.~@        ",
"        ~@                                      l.% P+    x+f+8.f m.5.    O+S [@                                      v.        ",
"                                                @ K@s+                    y.e+B+                                                ",
"                                                ) L@M@                    N@O@                                                  ",
"                                                  P@Q@                    R@S@                                                  ",
"                                                                                                                                ",
"                                                                                                                                ",
"                                                                                                                                ",
"                                                                                                                                ",
"                                                                                                                                ",
"                                                                                                                                ",
"                                                                                                                                ",
"                                                                                                                                ",
"                                                                                                                                ",
"                                                                                                                                ",
"                                                                                                                                ",
"                                                                                                                                "};
