/* XPM */
static char * x_wing2_xpm[] = {
"64 64 391 2",
"  	c None",
". 	c #AAAAAA",
"+ 	c #8E8E8E",
"@ 	c #A4A4A4",
"# 	c #8A8A89",
"$ 	c #838383",
"% 	c #B4B4B4",
"& 	c #C2C2C2",
"* 	c #868686",
"= 	c #BEBEBE",
"- 	c #CFCFCF",
"; 	c #CDCDCD",
"> 	c #A2A2A2",
", 	c #D1D1D1",
"' 	c #D9D9D9",
") 	c #DDDDDD",
"! 	c #595959",
"~ 	c #757575",
"{ 	c #B9B9B9",
"] 	c #CECECE",
"^ 	c #D8D8D8",
"/ 	c #DFDFDF",
"( 	c #D7D7D7",
"_ 	c #727272",
": 	c #747474",
"< 	c #606060",
"[ 	c #C7C7C7",
"} 	c #D3D3D3",
"| 	c #DADADA",
"1 	c #DCDCDC",
"2 	c #C6C6C6",
"3 	c #777777",
"4 	c #8F8F8F",
"5 	c #949494",
"6 	c #7C7C7C",
"7 	c #BABABA",
"8 	c #DBDBDB",
"9 	c #7B7B7B",
"0 	c #A7A7A7",
"a 	c #6F6F6F",
"b 	c #959595",
"c 	c #A9A9A9",
"d 	c #A9A8A8",
"e 	c #A6A4A4",
"f 	c #4C4C4C",
"g 	c #9D9D9D",
"h 	c #C5C5C5",
"i 	c #D4D4D4",
"j 	c #BCBCBC",
"k 	c #7E7E7E",
"l 	c #B6B6B6",
"m 	c #808080",
"n 	c #A5A5A5",
"o 	c #CFCDCD",
"p 	c #A7A3A3",
"q 	c #787878",
"r 	c #B0B0B0",
"s 	c #888888",
"t 	c #4F4F4F",
"u 	c #999999",
"v 	c #B1B1B1",
"w 	c #9D9C9C",
"x 	c #C0BFBF",
"y 	c #CDC7C7",
"z 	c #BBAEAE",
"A 	c #A58181",
"B 	c #484848",
"C 	c #B8B8B8",
"D 	c #C8C8C8",
"E 	c #D5D5D5",
"F 	c #6F6161",
"G 	c #A09B9B",
"H 	c #AEADAD",
"I 	c #ABABAB",
"J 	c #AFAFAF",
"K 	c #B5B5B5",
"L 	c #ADADAD",
"M 	c #A59D9D",
"N 	c #BEACAC",
"O 	c #C1B6B6",
"P 	c #BBA5A5",
"Q 	c #B98686",
"R 	c #AD6C6C",
"S 	c #6D6D6D",
"T 	c #C4C4C4",
"U 	c #C9C9C9",
"V 	c #7A7A7A",
"W 	c #895D5D",
"X 	c #B87E7E",
"Y 	c #C9ABAB",
"Z 	c #C5C3C3",
"` 	c #B3B3B3",
" .	c #AE8282",
"..	c #C1A6A6",
"+.	c #BDB5B5",
"@.	c #B7A2A2",
"#.	c #BF8D8D",
"$.	c #B87474",
"%.	c #414141",
"&.	c #A0A0A0",
"*.	c #736E6E",
"=.	c #986E6E",
"-.	c #C66868",
";.	c #DA7272",
">.	c #D99B9B",
",.	c #D4C6C6",
"'.	c #D0CFCF",
").	c #BDBDBD",
"!.	c #C38686",
"~.	c #BCA1A1",
"{.	c #ADA9A9",
"].	c #B4A3A3",
"^.	c #BD9191",
"/.	c #BD7777",
"(.	c #656565",
"_.	c #BFBFBF",
":.	c #A09A9A",
"<.	c #C09595",
"[.	c #D97777",
"}.	c #DF7A7A",
"|.	c #DCA7A7",
"1.	c #D9CECE",
"2.	c #D9DADA",
"3.	c #B26363",
"4.	c #D18888",
"5.	c #B6A7A7",
"6.	c #B1B9B9",
"7.	c #BCB6B6",
"8.	c #C19A9A",
"9.	c #C37A7A",
"0.	c #B75656",
"a.	c #545454",
"b.	c #9E9E9E",
"c.	c #ACACAC",
"d.	c #BBB9B9",
"e.	c #CEADAD",
"f.	c #D99494",
"g.	c #DDA4A4",
"h.	c #DDCCCC",
"i.	c #DCDEDE",
"j.	c #B86C6C",
"k.	c #C28F8F",
"l.	c #BCADAD",
"m.	c #C1C3C3",
"n.	c #C5BDBD",
"o.	c #C1A5A5",
"p.	c #BF7F7F",
"q.	c #B75F5F",
"r.	c #505050",
"s.	c #696969",
"t.	c #9A9A9A",
"u.	c #A1A1A1",
"v.	c #A3A3A3",
"w.	c #A8A8A8",
"x.	c #BEBDBD",
"y.	c #CABCBC",
"z.	c #D3AAAA",
"A.	c #DAA2A2",
"B.	c #DEB1B1",
"C.	c #E1D3D3",
"D.	c #BE7171",
"E.	c #C29696",
"F.	c #C7BCBC",
"G.	c #D1D2D2",
"H.	c #C5C0C0",
"I.	c #AF9B9B",
"J.	c #B57A7A",
"K.	c #B36161",
"L.	c #575757",
"M.	c #5D5D5D",
"N.	c #434343",
"O.	c #5F5F5F",
"P.	c #737373",
"Q.	c #8A8A8A",
"R.	c #939393",
"S.	c #929292",
"T.	c #969696",
"U.	c #C5C4C4",
"V.	c #CFC2C2",
"W.	c #D8B0B0",
"X.	c #DDA2A2",
"Y.	c #E1AAAA",
"Z.	c #BF7777",
"`.	c #C5A3A3",
" +	c #C6BFBF",
".+	c #B8B9B9",
"++	c #A3A0A0",
"@+	c #A79797",
"#+	c #B08080",
"$+	c #A55F5F",
"%+	c #8A4242",
"&+	c #666666",
"*+	c #616161",
"=+	c #848484",
"-+	c #8B8B8B",
";+	c #9C9C9C",
">+	c #D3D0D0",
",+	c #DBC4C4",
"'+	c #DFADAD",
")+	c #AE5454",
"!+	c #BD7878",
"~+	c #AE9696",
"{+	c #A29E9E",
"]+	c #ABACAC",
"^+	c #B4B3B3",
"/+	c #A19696",
"(+	c #926F6F",
"_+	c #925959",
":+	c #7E3D3D",
"<+	c #676767",
"[+	c #797979",
"}+	c #555555",
"|+	c #535353",
"1+	c #5E5E5E",
"2+	c #7D7D7D",
"3+	c #828282",
"4+	c #919191",
"5+	c #9F9F9F",
"6+	c #D6D5D5",
"7+	c #DDD7D7",
"8+	c #B95252",
"9+	c #B36F6F",
"0+	c #9C9595",
"a+	c #C2C3C3",
"b+	c #B0B1B1",
"c+	c #7F8080",
"d+	c #555959",
"e+	c #775E5E",
"f+	c #8D5D5D",
"g+	c #833737",
"h+	c #585757",
"i+	c #707272",
"j+	c #515151",
"k+	c #6B6B6B",
"l+	c #707070",
"m+	c #BBBBBB",
"n+	c #AA5555",
"o+	c #AA7575",
"p+	c #9B8F8F",
"q+	c #525252",
"r+	c #353535",
"s+	c #393535",
"t+	c #5B4B4B",
"u+	c #704D4D",
"v+	c #6E3A3A",
"w+	c #5C3F3F",
"x+	c #555252",
"y+	c #717171",
"z+	c #7F7F7F",
"A+	c #9C5252",
"B+	c #8D6464",
"C+	c #625A5A",
"D+	c #383838",
"E+	c #131313",
"F+	c #111111",
"G+	c #272525",
"H+	c #453E3E",
"I+	c #5C4444",
"J+	c #644747",
"K+	c #585050",
"L+	c #565656",
"M+	c #818181",
"N+	c #A6A6A6",
"O+	c #955050",
"P+	c #765757",
"Q+	c #3F4141",
"R+	c #0D0E0E",
"S+	c #040404",
"T+	c #0F0F0F",
"U+	c #232323",
"V+	c #3E3D3D",
"W+	c #534C4C",
"X+	c #676464",
"Y+	c #6E6E6E",
"Z+	c #7A3636",
"`+	c #7C4848",
" @	c #5C4747",
".@	c #343131",
"+@	c #212121",
"@@	c #313131",
"#@	c #494949",
"$@	c #4E4D4D",
"%@	c #4E4E4E",
"&@	c #5A5A5A",
"*@	c #823333",
"=@	c #734848",
"-@	c #4C4444",
";@	c #363737",
">@	c #636363",
",@	c #6E6E6D",
"'@	c #8D8D8D",
")@	c #4C2525",
"!@	c #6D3232",
"~@	c #583939",
"{@	c #3E3838",
"]@	c #4C4B4B",
"^@	c #737376",
"/@	c #7D7D82",
"(@	c #6C6C6E",
"_@	c #686868",
":@	c #858585",
"<@	c #8C8C8C",
"[@	c #B2B2B2",
"}@	c #545151",
"|@	c #583838",
"1@	c #5C3939",
"2@	c #433838",
"3@	c #403E3E",
"4@	c #59595A",
"5@	c #7A7A7F",
"6@	c #898992",
"7@	c #7E7E82",
"8@	c #696868",
"9@	c #524E4E",
"0@	c #4D4444",
"a@	c #4B4646",
"b@	c #67676A",
"c@	c #78787B",
"d@	c #848485",
"e@	c #898989",
"f@	c #8B8A8A",
"g@	c #636364",
"h@	c #6E6E6F",
"i@	c #807E7E",
"j@	c #929090",
"k@	c #A5A0A0",
"l@	c #4A4A4A",
"m@	c #979797",
"n@	c #A29999",
"o@	c #B7B0B0",
"p@	c #767676",
"q@	c #989898",
"r@	c #5C5C5C",
"s@	c #C0C0C0",
"t@	c #AEAEAE",
"u@	c #585858",
"v@	c #363636",
"w@	c #878787",
"x@	c #464646",
"y@	c #6A6A6A",
"z@	c #909090",
"A@	c #7C7B7B",
"B@	c #B7B7B7",
"C@	c #9B9B9B",
"D@	c #8F8E8E",
"E@	c #A09999",
"F@	c #C1C1C1",
"G@	c #A4A1A1",
"H@	c #B6AEAE",
"I@	c #CBCBCB",
"J@	c #D2D2D2",
"K@	c #CACACA",
"L@	c #C3C3C3",
"M@	c #DEDEDE",
"N@	c #746E6E",
"O@	c #A19B9B",
"P@	c #BCB9B9",
"Q@	c #CEC3C3",
"R@	c #D2D0D0",
"S@	c #E1E1E1",
"T@	c #917171",
"U@	c #C5A4A4",
"V@	c #CFB6B6",
"W@	c #D4A9A9",
"X@	c #D9AEAE",
"Y@	c #DFDDDD",
"Z@	c #C76868",
"`@	c #D97979",
" #	c #D89696",
".#	c #D9A2A2",
"+#	c #DEAFAF",
"@#	c #5D5656",
"##	c #C48181",
"$#	c #E16969",
"%#	c #E36E6E",
"&#	c #DEA9A9",
"*#	c #E0ABAB",
"=#	c #E2AAAA",
"-#	c #535151",
";#	c #C9AAAA",
">#	c #DA9898",
",#	c #DDA6A6",
"'#	c #DDCBCB",
")#	c #E1D1D1",
"!#	c #C8C5C5",
"~#	c #D5C6C6",
"{#	c #DACECE",
"]#	c #DDDFDF",
"^#	c #D2D1D1",
"/#	c #E0E0E0",
"(#	c #CCCCCC",
"                                                                                                                                ",
"                                                                                                                                ",
"                                                                                                                                ",
"                                                                                                                                ",
"                                                                                                                                ",
"                                                                                                                                ",
"                                                                                                                                ",
"                                                                                                                                ",
"                                                                                                                                ",
"                                                                                                                                ",
"                                                                                                                                ",
"                                                                                                                                ",
"                                                                                                      .                         ",
"                                                                                                      + @       #               ",
"                                                                                                      $ % &                     ",
"                                                                                                      * = - ;                   ",
"                                                                                                      > , ' )                   ",
"                                    !                                                               ~ { ] ^ / (                 ",
"                                  ! _ : <                                                           > [ } | 1 2                 ",
"                                    3 4 5 *                                                       6 7 , ( 8 }         9 0       ",
"                                    a b c d e                                                   f g h i 1 ) j         k l %     ",
"                                      m n 2 o p                                                 q r [ i / i s     t m u v %     ",
"                                        w x y z A                                             B 5 C D , E %     F G H I J K L   ",
"                                          M N O P Q R                                         S n { T U = V   W X Y Z = l ` v   ",
"                                             ...+.@.#.$.                                    %.* I 7 & & &.*.=.-.;.>.,.'.U ).%   ",
"                                              !.~.{.].^./.                                  (.b L C _.7 &.:.<.[.}.|.1.2.^       ",
"                                              3.4.5.6.7.8.9.0.                            a.m b.c.v K % J d.e.f.g.h.i.i.        ",
"                                                j.k.l.m.n.o.p.q.                        r.s.* t.u.v.w.r x.y.z.A.B.C.            ",
"                                                  D.E.F.G.H.I.J.K.            L.M.N.  f O.P.Q.R.S.T.v.% U.V.W.X.Y.              ",
"                                                    Z.`. +.+++@+#+$+%+      O.: _ &+a.M.*+~ =+* -+b ;+% h >+,+'+                ",
"                                                    )+!+~+{+]+^+/+(+_+:+    <+[+: &+}+|+1+~ 2+3+4+t.5+r h 6+7+                  ",
"                                                      8+9+0+a+b+c+d+e+f+g+  h+i+*+f 1+j+k+l+[+$ b > L m+[ }                     ",
"                                                        n+o+p+2+q+r+s+t+u+v+w+x+|+<+9 a a y+z++ ;+u.0 j h                       ",
"                                                          A+B+C+D+E+F+G+H+I+J+K+L+: M+~ l+~ s b ;+&.N+v                         ",
"                                                            O+P+Q+R+S+T+U+V+W+X+}+k+[+9 3 Y+;+5 3+u r                           ",
"                                                            Z+`+ @.@+@@@#@$@%@M.S [+V s.&@V n g 4 +                             ",
"                                                              *@=@-@;@L+3+s.M.>@,@4 '@< ! s J v J                               ",
"                                                              )@!@~@{@]@&+^@/@(@_@:@;+<@V =+5 N+[@                              ",
"                                                          < <+}@|@1@2@3@4@5@6@7@P.M+b.I 4+6 s t.u.                              ",
"                                                        &@~ [+8@9@0@a@f 4@b@c@d@M+e@u ` l b m -+'@f@                            ",
"                                                        < P.~ 1+r.%@t < &+g@h@m Q.4+t.J 2 h     i@j@k@                          ",
"                                                        l@a P.f _@_ >@_ =+k z++ m@m@L [@U ,       n@o@                          ",
"                                                          L+L.*+k M+p@3 $ S.T.q@g c._._.).T                                     ",
"                                                        %@1+a.r@l+3 q _@_@:@u.L J C s@m+l                                       ",
"                                                      j+O.< r@(.l+_ y+! 1+P.s t@& T ).l                                         ",
"                                                    u@_@y+P.~ l+y+3 3 3 M+2+: + s@] &                                           ",
"                                                v@1+z+s '@w@9 [+2++ u.J c 4+m ~                                                 ",
"                                            x@y@$ S.q@q@4+:@3+=+'@b b b.N+u.5 =+                                                ",
"                                          ~ z@v.. . w.5+z@-+4+5 ;+g Q.<@v.L b.Q.A@                                              ",
"                                      Y+u.[@m+m+m+B@` u.5 T.C@> N+0 ;+Q.    z@e@D@E@                                            ",
"                                  P.&.C T [ 2 & F@).` N+u.;+5+L w.c t@          G@H@                                            ",
"                        t.s V 6 5+& I@E i J@i K@h F@K t@l r L F@L@L                                                             ",
"                          b.v j D ] J@( 8 ) i = u.v.v ).L@L@L@2 L@                                                              ",
"                            & - E ^ | | M@i B@6 N@O@P@y.Q@R@i J@                                                                ",
"                              } 1 S@S@' 2       T@U@V@W@X@h.Y@                                                                  ",
"                                  ( 2         W Z@`@ #.#g.+#                                                                    ",
"                                            @###$#%#&#*#=#                                                                      ",
"                                          -#G ;#>#,#'#)#                                                                        ",
"                                          3+r !#~#{#]#                                                                          ",
"                                      k+2+C@J & ^#8 /#                                                                          ",
"                                      T.c r t@C (#'                                                                             ",
"                                        ` B@l ` j                                                                               ",
"                                            . r [@                                                                              ",
"                                                                                                                                "};
