/* XPM */
static char * x_wing3_xpm[] = {
"64 64 397 2",
"  	c None",
". 	c #959595",
"+ 	c #AAAAAA",
"@ 	c #787878",
"# 	c #A3A3A3",
"$ 	c #C2C2C2",
"% 	c #C7C7C7",
"& 	c #858585",
"* 	c #C1C1C1",
"= 	c #D5D5D5",
"- 	c #D6D6D6",
"; 	c #9F9F9F",
"> 	c #636363",
", 	c #BDBDBD",
"' 	c #D7D7D7",
") 	c #DCDCDC",
"! 	c #E2E2E2",
"~ 	c #A6A6A6",
"{ 	c #606060",
"] 	c #D3D3D3",
"^ 	c #DDDDDD",
"/ 	c #E3E3E3",
"( 	c #D2D2D2",
"_ 	c #A1A1A1",
": 	c #BFBFBF",
"< 	c #AEAEAE",
"[ 	c #676767",
"} 	c #C5C5C5",
"| 	c #DBDBDB",
"1 	c #DFDFDF",
"2 	c #C6C6C6",
"3 	c #626262",
"4 	c #9B9B9B",
"5 	c #BABABA",
"6 	c #B8B8B8",
"7 	c #ADADAD",
"8 	c #7E7E7E",
"9 	c #D9D9D9",
"0 	c #959696",
"a 	c #ABABAB",
"b 	c #B4B4B4",
"c 	c #B5B5B5",
"d 	c #B0B0B0",
"e 	c #7F7F7F",
"f 	c #C9C9C9",
"g 	c #E6E6E6",
"h 	c #A5A5A5",
"i 	c #828080",
"j 	c #B8BBBB",
"k 	c #BFC0C0",
"l 	c #BCBCBC",
"m 	c #B9B9B9",
"n 	c #B7B7B7",
"o 	c #C4C4C4",
"p 	c #E5E5E5",
"q 	c #A2A2A2",
"r 	c #544E4E",
"s 	c #BF8D8D",
"t 	c #D2B4B4",
"u 	c #D0D0D0",
"v 	c #D2D3D3",
"w 	c #939393",
"x 	c #C0C0C0",
"y 	c #CECECE",
"z 	c #939696",
"A 	c #986767",
"B 	c #DB7171",
"C 	c #E18787",
"D 	c #DAC0C0",
"E 	c #DADADA",
"F 	c #8D8D8D",
"G 	c #BEBEBE",
"H 	c #C8C8C8",
"I 	c #CACACA",
"J 	c #6A6B6B",
"K 	c #706464",
"L 	c #C56E6E",
"M 	c #E35F5F",
"N 	c #E28282",
"O 	c #DCC3C3",
"P 	c #DDE2E2",
"Q 	c #919191",
"R 	c #838383",
"S 	c #989090",
"T 	c #CEA3A3",
"U 	c #DD8080",
"V 	c #DEA8A8",
"W 	c #E0DEDE",
"X 	c #E4EAEA",
"Y 	c #929292",
"Z 	c #A7A7A7",
"` 	c #B1B8B8",
" .	c #CDBFBF",
"..	c #D89F9F",
"+.	c #DEA6A6",
"@.	c #E2BFBF",
"#.	c #363636",
"$.	c #888888",
"%.	c #AFAFAF",
"&.	c #B6B6B6",
"*.	c #C2C4C4",
"=.	c #D0B3B3",
"-.	c #D9A3A3",
";.	c #E0A2A2",
">.	c #E3ACAC",
",.	c #434343",
"'.	c #8B8B8B",
").	c #B3B3B3",
"!.	c #D1C7C7",
"~.	c #DAB6B6",
"{.	c #E1A5A5",
"].	c #565656",
"^.	c #A0A0A0",
"/.	c #9C9C9C",
"(.	c #D1D1D1",
"_.	c #DBD6D6",
":.	c #E1D0D0",
"<.	c #3B3B3B",
"[.	c #9A9A9A",
"}.	c #979797",
"|.	c #8F8F8F",
"1.	c #999999",
"2.	c #CBCCCC",
"3.	c #DBDCDC",
"4.	c #444444",
"5.	c #4E4E4E",
"6.	c #646464",
"7.	c #818181",
"8.	c #909090",
"9.	c #868686",
"0.	c #989898",
"a.	c #595959",
"b.	c #717171",
"c.	c #8A8A8A",
"d.	c #575757",
"e.	c #767676",
"f.	c #9D9D9D",
"g.	c #ACACAC",
"h.	c #9C8E8E",
"i.	c #845757",
"j.	c #4D4D4D",
"k.	c #696969",
"l.	c #727272",
"m.	c #7D7D7D",
"n.	c #7C7C7C",
"o.	c #898989",
"p.	c #797979",
"q.	c #CFCECE",
"r.	c #D8D3D3",
"s.	c #BFB5B5",
"t.	c #B39090",
"u.	c #BC7B7B",
"v.	c #C27979",
"w.	c #B66A6A",
"x.	c #6D6D6D",
"y.	c #747474",
"z.	c #757575",
"A.	c #5D5D5D",
"B.	c #505050",
"C.	c #4A4A4A",
"D.	c #6F6F6F",
"E.	c #949595",
"F.	c #B9B8B8",
"G.	c #CDC5C5",
"H.	c #C5B9B9",
"I.	c #C5C1C1",
"J.	c #BFB8B8",
"K.	c #BA9D9D",
"L.	c #C59292",
"M.	c #C48787",
"N.	c #C37B7B",
"O.	c #C26868",
"P.	c #B85757",
"Q.	c #7E7F7F",
"R.	c #818080",
"S.	c #777777",
"T.	c #949494",
"U.	c #9B8181",
"V.	c #B88888",
"W.	c #C7AAAA",
"X.	c #BAB4B4",
"Y.	c #A9ACAC",
"Z.	c #ADB0B0",
"`.	c #B9B1B1",
" +	c #C2A7A7",
".+	c #BE9C9C",
"++	c #C08E8E",
"@+	c #C57373",
"#+	c #C56767",
"$+	c #AC5656",
"%+	c #777878",
"&+	c #626363",
"*+	c #3F3F3F",
"=+	c #7B7B7B",
"-+	c #707070",
";+	c #8E8E8E",
">+	c #808080",
",+	c #CB7474",
"'+	c #D28A8A",
")+	c #B5B1B1",
"!+	c #BAC2C2",
"~+	c #C5CCCC",
"{+	c #C4C0C0",
"]+	c #A39D9D",
"^+	c #A48B8B",
"/+	c #B78383",
"(+	c #AB6B6B",
"_+	c #9F5C5C",
":+	c #924747",
"<+	c #803333",
"[+	c #5A1F1F",
"}+	c #3D2727",
"|+	c #535050",
"1+	c #555555",
"2+	c #5B5A5A",
"3+	c #878787",
"4+	c #C77878",
"5+	c #CA8C8C",
"6+	c #C5A4A4",
"7+	c #C9C3C3",
"8+	c #D9DCDC",
"9+	c #C4C8C8",
"0+	c #A1A3A3",
"a+	c #B1B2B2",
"b+	c #B1B4B4",
"c+	c #868484",
"d+	c #746060",
"e+	c #826262",
"f+	c #835E5E",
"g+	c #7F4A4A",
"h+	c #7C3939",
"i+	c #6D4343",
"j+	c #585353",
"k+	c #5B5B5B",
"l+	c #B2B2B2",
"m+	c #B85D5D",
"n+	c #C37878",
"o+	c #C49494",
"p+	c #C4AFAF",
"q+	c #AFACAC",
"r+	c #C8CACA",
"s+	c #ADAEAE",
"t+	c #3D4141",
"u+	c #333535",
"v+	c #403C3C",
"w+	c #504949",
"x+	c #554A4A",
"y+	c #5B4747",
"z+	c #655E5E",
"A+	c #666666",
"B+	c #6B6B6B",
"C+	c #8C8C8C",
"D+	c #969797",
"E+	c #BF5A5A",
"F+	c #C07272",
"G+	c #A68080",
"H+	c #9C9595",
"I+	c #B4B5B5",
"J+	c #535353",
"K+	c #222222",
"L+	c #070707",
"M+	c #0D0E0E",
"N+	c #151616",
"O+	c #2F2F2F",
"P+	c #414141",
"Q+	c #4D4C4C",
"R+	c #616161",
"S+	c #7A7A7A",
"T+	c #908F8F",
"U+	c #BC5858",
"V+	c #B46767",
"W+	c #A37E7E",
"X+	c #767272",
"Y+	c #4C5151",
"Z+	c #222424",
"`+	c #040404",
" @	c #080808",
".@	c #212121",
"+@	c #5E5E5E",
"@@	c #656565",
"#@	c #787877",
"$@	c #7B7A7A",
"%@	c #939090",
"&@	c #9D4F4F",
"*@	c #945757",
"=@	c #765757",
"-@	c #4F4848",
";@	c #313333",
">@	c #232424",
",@	c #3E3E3E",
"'@	c #737373",
")@	c #737375",
"!@	c #828288",
"~@	c #636365",
"{@	c #9D9292",
"]@	c #8A3737",
"^@	c #8B4747",
"/@	c #794E4E",
"(@	c #5D4B4B",
"_@	c #403D3D",
":@	c #3C3C3C",
"<@	c #656564",
"[@	c #8A8A91",
"}@	c #92929C",
"|@	c #8E8E91",
"1@	c #DEDEDE",
"2@	c #803131",
"3@	c #7C3A3A",
"4@	c #5B3C3C",
"5@	c #393333",
"6@	c #3A3838",
"7@	c #6F6F71",
"8@	c #737379",
"9@	c #A9A9A9",
"0@	c #C3C3C3",
"a@	c #582525",
"b@	c #733737",
"c@	c #553F3F",
"d@	c #444242",
"e@	c #505150",
"f@	c #5C5C5D",
"g@	c #6E6E6D",
"h@	c #9E9E9E",
"i@	c #595A5A",
"j@	c #6E6E6E",
"k@	c #4C4949",
"l@	c #4A4848",
"m@	c #4D4E4E",
"n@	c #828282",
"o@	c #6C6C6C",
"p@	c #515151",
"q@	c #525252",
"r@	c #969696",
"s@	c #BBBBBB",
"t@	c #CCCCCC",
"u@	c #CFCFCF",
"v@	c #CBCBCB",
"w@	c #5F5F5F",
"x@	c #424242",
"y@	c #545454",
"z@	c #6A6A6A",
"A@	c #797A7A",
"B@	c #686868",
"C@	c #A39C9C",
"D@	c #979696",
"E@	c #B9B2B2",
"F@	c #353535",
"G@	c #4B4B4B",
"H@	c #A4A4A4",
"I@	c #CDCDCD",
"J@	c #B1B1B1",
"K@	c #D5D6D6",
"L@	c #D9DBDB",
"M@	c #A4A5A5",
"N@	c #C4C6C6",
"O@	c #CFBBBB",
"P@	c #D6C8C8",
"Q@	c #DDD6D6",
"R@	c #D4D4D4",
"S@	c #939494",
"T@	c #757272",
"U@	c #ABA9A9",
"V@	c #CBC3C3",
"W@	c #D5A9A9",
"X@	c #DCA6A6",
"Y@	c #E1ADAD",
"Z@	c #7E6B6B",
"`@	c #C79696",
" #	c #D59E9E",
".#	c #DA9E9E",
"+#	c #DFA4A4",
"@#	c #E2A6A6",
"##	c #D8D8D8",
"$#	c #E1E1E1",
"%#	c #9A6767",
"&#	c #DF6666",
"*#	c #E07474",
"=#	c #DEA7A7",
"-#	c #E1B0B0",
";#	c #BA7373",
">#	c #E26767",
",#	c #E18080",
"'#	c #DEC8C8",
")#	c #E4E5E5",
"!#	c #E4E4E4",
"~#	c #555252",
"{#	c #C6A0A0",
"]#	c #DD9595",
"^#	c #DDADAD",
"/#	c #DCD7D7",
"(#	c #E4E7E7",
"_#	c #7C7D7D",
":#	c #BFC2C2",
"<#	c #D2D0D0",
"[#	c #D8D1D1",
"}#	c #DCDEDE",
"|#	c #8B8C8C",
"                                                                                                                                ",
"                                                                                                                                ",
"                                                                                                                                ",
"                                                                                                                                ",
"                                                                                                                                ",
"                                                                                                                                ",
"                                                                                  . +                                           ",
"                                                                                    @ # $ %                                     ",
"                                                                                      & * = -         ;                         ",
"                                                                                      > , ' ) !         & ~                     ",
"                                                                                      { $ ] ^ / (         _ : <                 ",
"                                                                                      [ } ( | 1 2       3 4 5 6 7               ",
"                                                                                      8 } = 9 ^ ,       0 ~ a b c d             ",
"                                                                                      e f - 1 g h     i j k , l m n             ",
"                                                                                      & o ( ^ p q   r s t u v =                 ",
"                                                                                      w x y - 9 z   A B C D E !                 ",
"                                                                                      F G H y I J K L M N O P                   ",
"                                                                                      Q 6 : % G R S T U V W X                   ",
"                                                                                      Y c , 2 $ Z `  ...+.@.                    ",
"                                                                                    #.$.%.&.G l %.*.=.-.;.>.                    ",
"                                                                                    ,.'.~ d %.a ).% !.~.{.                      ",
"                                                                                    ].$.^.Z /._ ).o (._.:.                      ",
"                                                                                  <.3 R [.}.|.1.h n 2.3.                        ",
"                              4.                                                  5.6.7.8.9.|.0./.d % ]                         ",
"                          a.b.e & R c.                                            d.6.e.& e Y f.+ * H                           ",
"                            e.Y a g.6 n h.i.                                [ 3 j.k.a.l.m.n.o./.q # 5                           ",
"                              p.; a q.r.s.t.u.v.w.                        x.y.z.A.B.C.x.D.n.|.# h +                             ",
"                                l.E.F.G.H.I.J.K.L.M.N.O.P.                Q.R.S.A.A.{ l.l.8 T./.|.#                             ",
"                                      U.V.W.X.Y.Z.`. +.+++@+#+$+          k.%+&+*+& =+D.-+m./.;+>+;+                            ",
"                                          ,+'+.+)+!+~+(.{+]+^+/+(+_+:+<+[+}+|+1+2+9.3+e.S.[ g.# h                               ",
"                                              4+5+6+7+8+9+0+a+b+c+d+e+f+g+h+i+j+5.k.p.y.k+a._ b l+5                             ",
"                                                m+n+o+p+q+/.r+s+J t+u+v+w+x+y+z+A+B+R =+5.B+C+. # %.D+                          ",
"                                                    E+F+G+H+I+T.J+K+L+M+N+O+P+Q+R+e.|.4 & =+S+>+Y . ;+T+                        ",
"                                                        U+V+W+X+Y+Z+`+ @.@j.+@1+@@3 #@f.6 l+Y p.S+Q.$@%@X.                      ",
"                                                            &@*@=@-@;@>@,@'@#@)@!@~@k.& f.m y ]       {@                        ",
"                                                              ]@^@/@(@_@:@k+<@[@}@|@7.3+Y h : ] 1@                              ",
"                                                                  2@3@4@5@6@B.7@8@>+7.Y T.9@5 0@f                               ",
"                                                                    a@b@c@d@e@+@f@g@$.}.h@x 2 6                                 ",
"                                                                i@j@+@k@l@m@A+b.e.>+8.1.h * 0@&.                                ",
"                                                                >+n@o@p@q@q@@@R r@# h a c o s@c                                 ",
"                                                              p@z.S+o@*+m.8 z.@ @ 3+q G t@u@v@                                  ",
"                                                                l.'@A+w@c.c.S+-+x@x.-+p.Z =                                     ",
"                                                                  1+d.B.o@D.S.[ J+>+>+S.y.                                      ",
"                                                                  y@@@j.z@S.'@D.w h 0.8.F A@                                    ",
"                                                                ,@+@{ B@b.j@n.}.%.g.9@%./.c.c+C@                                ",
"                                                                1+@@l.e S+S+C+r@;+. a c [.>+D@E@                                ",
"                                                              F@@@S+o.9.n.R w # o.9.                                            ",
"                                                              G@>+w r@9.c.T.h@+ H@#                                             ",
"                                                            :@@ 4 q f.o.r@f.h h@g.                                              ",
"                                                            7._ + g.^.T.. [.l+, l+                                              ",
"                                                          p.+ &.c c Z ^.~ H@&.2                                                 ",
"                                                        e a s@G x G l+g.s@l 2 I@                                                ",
"                                                      A+d $ 2 o % x J@s@H u@K@L@                                                ",
"                                                    z@< f u@(.y G f.M@N@O@P@Q@                                                  ",
"                                                    a y R@- ^ = S@T@U@V@W@X@Y@                                                  ",
"                                                  ; H ( 9 ! p G   Z@`@ #.#+#@#                                                  ",
"                                              > /.f (.##) $#}     %#&#*#=#-#                                                    ",
"                                          [.4 g.} = ##1@1@(.      ;#>#,#'#)#                                                    ",
"                                              x ( ##^ !###      ~#{#]#^#/#(#                                                    ",
"                                                                _#:#<#[#}#p                                                     ",
"                                                                |#b o v 1@                                                      ",
"                                                                ;++ d 0@]                                                       ",
"                                                        1.'.  Q d n b ).c                                                       ",
"                                                                n &.d J@).                                                      "};
