/* XPM */
static char * x_wing15_xpm[] = {
"64 64 397 2",
"  	c None",
". 	c #595959",
"+ 	c #767676",
"@ 	c #717171",
"# 	c #797979",
"$ 	c #929292",
"% 	c #7F7F7F",
"& 	c #444444",
"* 	c #727272",
"= 	c #9F9F9F",
"- 	c #ABABAB",
"; 	c #858585",
"> 	c #949595",
", 	c #ACACAC",
"' 	c #838383",
") 	c #B9B8B8",
"! 	c #CFCECE",
"~ 	c #B8B8B8",
"{ 	c #8A8A8A",
"] 	c #9B8181",
"^ 	c #CDC5C5",
"/ 	c #D8D3D3",
"( 	c #B7B7B7",
"_ 	c #B88888",
": 	c #C5B9B9",
"< 	c #BFB5B5",
"[ 	c #9C8E8E",
"} 	c #9A9A9A",
"| 	c #CB7474",
"1 	c #C7AAAA",
"2 	c #C5C1C1",
"3 	c #B39090",
"4 	c #845757",
"5 	c #9B9B9B",
"6 	c #D28A8A",
"7 	c #BAB4B4",
"8 	c #BFB8B8",
"9 	c #BC7B7B",
"0 	c #C0C0C0",
"a 	c #636363",
"b 	c #C77878",
"c 	c #BE9C9C",
"d 	c #A9ACAC",
"e 	c #BA9D9D",
"f 	c #C27979",
"g 	c #D2D2D2",
"h 	c #C5C5C5",
"i 	c #9C9C9C",
"j 	c #B85D5D",
"k 	c #CA8C8C",
"l 	c #B5B1B1",
"m 	c #ADB0B0",
"n 	c #C59292",
"o 	c #B66A6A",
"p 	c #D8D8D8",
"q 	c #D5D5D5",
"r 	c #C9C9C9",
"s 	c #C37878",
"t 	c #C5A4A4",
"u 	c #BAC2C2",
"v 	c #B9B1B1",
"w 	c #C48787",
"x 	c #DDDDDD",
"y 	c #D1D1D1",
"z 	c #C8C8C8",
"A 	c #6A6A6A",
"B 	c #BF5A5A",
"C 	c #C49494",
"D 	c #C9C3C3",
"E 	c #C5CCCC",
"F 	c #C2A7A7",
"G 	c #C37B7B",
"H 	c #E4E4E4",
"I 	c #DEDEDE",
"J 	c #CECECE",
"K 	c #AEAEAE",
"L 	c #666666",
"M 	c #C07272",
"N 	c #C4AFAF",
"O 	c #D9DCDC",
"P 	c #C26868",
"Q 	c #999999",
"R 	c #DCDCDC",
"S 	c #D9D9D9",
"T 	c #D4D4D4",
"U 	c #B0B0B0",
"V 	c #BC5858",
"W 	c #A68080",
"X 	c #AFACAC",
"Y 	c #C4C8C8",
"Z 	c #C4C0C0",
"` 	c #C08E8E",
" .	c #B85757",
"..	c #8B8B8B",
"+.	c #E1E1E1",
"@.	c #E2E2E2",
"#.	c #D6D6D6",
"$.	c #CFCFCF",
"%.	c #C2C2C2",
"&.	c #B46767",
"*.	c #9C9595",
"=.	c #A1A3A3",
"-.	c #A39D9D",
";.	c #C57373",
">.	c #E5E5E5",
",.	c #C6C6C6",
"'.	c #BBBBBB",
").	c #AAAAAA",
"!.	c #818181",
"~.	c #3C3C3C",
"{.	c #9D4F4F",
"].	c #A37E7E",
"^.	c #B4B5B5",
"/.	c #C8CACA",
"(.	c #B1B2B2",
"_.	c #A48B8B",
":.	c #C56767",
"<.	c #919191",
"[.	c #BEBEBE",
"}.	c #C4C4C4",
"|.	c #B6B6B6",
"1.	c #A1A1A1",
"2.	c #787878",
"3.	c #4B4B4B",
"4.	c #353535",
"5.	c #515151",
"6.	c #8A3737",
"7.	c #945757",
"8.	c #767272",
"9.	c #949494",
"0.	c #ADAEAE",
"a.	c #B1B4B4",
"b.	c #B78383",
"c.	c #AC5656",
"d.	c #8E8E8E",
"e.	c #8B8C8C",
"f.	c #7C7D7D",
"g.	c #555252",
"h.	c #939494",
"i.	c #C7C7C7",
"j.	c #B5B5B5",
"k.	c #808080",
"l.	c #656565",
"m.	c #555555",
"n.	c #3E3E3E",
"o.	c #757575",
"p.	c #595A5A",
"q.	c #8B4747",
"r.	c #765757",
"s.	c #4C5151",
"t.	c #535353",
"u.	c #6A6B6B",
"v.	c #868484",
"w.	c #AB6B6B",
"x.	c #B4B4B4",
"y.	c #BFC2C2",
"z.	c #C6A0A0",
"A.	c #BA7373",
"B.	c #9A6767",
"C.	c #7E6B6B",
"D.	c #757272",
"E.	c #9D9D9D",
"F.	c #A2A2A2",
"G.	c #939393",
"H.	c #7A7A7A",
"I.	c #5E5E5E",
"J.	c #545454",
"K.	c #737373",
"L.	c #828282",
"M.	c #6E6E6E",
"N.	c #803131",
"O.	c #794E4E",
"P.	c #4F4848",
"Q.	c #222424",
"R.	c #222222",
"S.	c #3D4141",
"T.	c #746060",
"U.	c #9F5C5C",
"V.	c #D2D0D0",
"W.	c #DD9595",
"X.	c #E26767",
"Y.	c #DF6666",
"Z.	c #C79696",
"`.	c #ABA9A9",
" +	c #A4A5A5",
".+	c #B1B1B1",
"++	c #B2B2B2",
"@+	c #A7A7A7",
"#+	c #A0A0A0",
"$+	c #969696",
"%+	c #898989",
"&+	c #606060",
"*+	c #575757",
"=+	c #6C6C6C",
"-+	c #582525",
";+	c #7C3A3A",
">+	c #5D4B4B",
",+	c #313333",
"'+	c #040404",
")+	c #070707",
"!+	c #333535",
"~+	c #826262",
"{+	c #924747",
"]+	c #B3B3B3",
"^+	c #C3C3C3",
"/+	c #D2D3D3",
"(+	c #D8D1D1",
"_+	c #DDADAD",
":+	c #E18080",
"<+	c #E07474",
"[+	c #D59E9E",
"}+	c #CBC3C3",
"|+	c #C4C6C6",
"1+	c #868686",
"2+	c #686868",
"3+	c #4D4D4D",
"4+	c #505050",
"5+	c #5F5F5F",
"6+	c #3F3F3F",
"7+	c #4C4949",
"8+	c #733737",
"9+	c #5B3C3C",
"0+	c #403D3D",
"a+	c #232424",
"b+	c #080808",
"c+	c #0D0E0E",
"d+	c #403C3C",
"e+	c #835E5E",
"f+	c #803333",
"g+	c #D3D3D3",
"h+	c #DCDEDE",
"i+	c #DCD7D7",
"j+	c #DEC8C8",
"k+	c #DEA7A7",
"l+	c #DA9E9E",
"m+	c #D5A9A9",
"n+	c #CFBBBB",
"o+	c #A6A6A6",
"p+	c #959595",
"q+	c #7C7C7C",
"r+	c #7D7D7D",
"s+	c #525252",
"t+	c #4A4848",
"u+	c #553F3F",
"v+	c #393333",
"w+	c #212121",
"x+	c #151616",
"y+	c #504949",
"z+	c #7F4A4A",
"A+	c #5A1F1F",
"B+	c #E4E7E7",
"C+	c #E4E5E5",
"D+	c #E1B0B0",
"E+	c #DFA4A4",
"F+	c #DCA6A6",
"G+	c #D6C8C8",
"H+	c #BCBCBC",
"I+	c #A4A4A4",
"J+	c #777777",
"K+	c #6F6F6F",
"L+	c #7E7E7E",
"M+	c #4D4E4E",
"N+	c #444242",
"O+	c #3A3838",
"P+	c #5B5B5B",
"Q+	c #2F2F2F",
"R+	c #554A4A",
"S+	c #7C3939",
"T+	c #3D2727",
"U+	c #696969",
"V+	c #7E7F7F",
"W+	c #6D6D6D",
"X+	c #E2A6A6",
"Y+	c #E1ADAD",
"Z+	c #DDD6D6",
"`+	c #D5D6D6",
" @	c #A5A5A5",
".@	c #9E9E9E",
"+@	c #8C8C8C",
"@@	c #505150",
"#@	c #656564",
"$@	c #787877",
"%@	c #414141",
"&@	c #5B4747",
"*@	c #6D4343",
"=@	c #535050",
"-@	c #777878",
";@	c #818080",
">@	c #747474",
",@	c #676767",
"'@	c #D9DBDB",
")@	c #CDCDCD",
"!@	c #BDBDBD",
"~@	c #A3A3A3",
"{@	c #979797",
"]@	c #707070",
"^@	c #6F6F71",
"/@	c #8A8A91",
"(@	c #737375",
"_@	c #4D4C4C",
":@	c #655E5E",
"<@	c #585353",
"[@	c #626363",
"}@	c #626262",
"|@	c #AFAFAF",
"1@	c #424242",
"2@	c #5C5C5D",
"3@	c #737379",
"4@	c #92929C",
"5@	c #828288",
"6@	c #616161",
"7@	c #4E4E4E",
"8@	c #5B5A5A",
"9@	c #5D5D5D",
"0@	c #878787",
"a@	c #6E6E6D",
"b@	c #8E8E91",
"c@	c #636365",
"d@	c #6B6B6B",
"e@	c #3B3B3B",
"f@	c #A9A9A9",
"g@	c #989898",
"h@	c #909090",
"i@	c #888888",
"j@	c #8F8F8F",
"k@	c #7B7B7B",
"l@	c #4A4A4A",
"m@	c #646464",
"n@	c #565656",
"o@	c #434343",
"p@	c #363636",
"q@	c #8D8D8D",
"r@	c #CCCCCC",
"s@	c #C1C1C1",
"t@	c #797A7A",
"u@	c #B9B9B9",
"v@	c #BFBFBF",
"w@	c #D7D7D7",
"x@	c #979696",
"y@	c #CBCBCB",
"z@	c #BABABA",
"A@	c #DFDFDF",
"B@	c #DBDBDB",
"C@	c #B9B2B2",
"D@	c #A39C9C",
"E@	c #CACACA",
"F@	c #E6E6E6",
"G@	c #E3E3E3",
"H@	c #939696",
"I@	c #C2C4C4",
"J@	c #B1B8B8",
"K@	c #989090",
"L@	c #706464",
"M@	c #7B7A7A",
"N@	c #969797",
"O@	c #CBCCCC",
"P@	c #D1C7C7",
"Q@	c #D0B3B3",
"R@	c #CDBFBF",
"S@	c #CEA3A3",
"T@	c #C56E6E",
"U@	c #986767",
"V@	c #544E4E",
"W@	c #9D9292",
"X@	c #939090",
"Y@	c #908F8F",
"Z@	c #DBDCDC",
"`@	c #DBD6D6",
" #	c #DAB6B6",
".#	c #D9A3A3",
"+#	c #D89F9F",
"@#	c #DD8080",
"##	c #E35F5F",
"$#	c #DB7171",
"%#	c #BF8D8D",
"&#	c #828080",
"*#	c #E1D0D0",
"=#	c #E1A5A5",
"-#	c #E0A2A2",
";#	c #DEA6A6",
">#	c #DEA8A8",
",#	c #E28282",
"'#	c #E18787",
")#	c #D2B4B4",
"!#	c #B8BBBB",
"~#	c #959696",
"{#	c #E3ACAC",
"]#	c #E2BFBF",
"^#	c #E0DEDE",
"/#	c #DCC3C3",
"(#	c #DAC0C0",
"_#	c #D0D0D0",
":#	c #BFC0C0",
"<#	c #E4EAEA",
"[#	c #DDE2E2",
"}#	c #DADADA",
"|#	c #ADADAD",
"                                                                                                                                ",
"                                                                                                                                ",
"                                                                                                                                ",
"                                                                                                                                ",
"                                                                                                                                ",
"                                                                                                                                ",
"                                                                                                                                ",
"                                                                                                                                ",
"                                                                                                                                ",
"                                                                                                                                ",
"                                                                                                                                ",
"                                                                                                                                ",
"                                                                                                                                ",
"                                                                              .                                                 ",
"                                                                            + @                                                 ",
"                                                                          # $ % &                                               ",
"                                                                        * = - ;                                                 ",
"                                                                        > - , '                                                 ",
"                                                                        ) ! ~ {                                                 ",
"                                                                      ] ^ / (                                                   ",
"                                                                      _ : < [                                                   ",
"            }                                                       | 1 2 3 4                                                   ",
"            5                                                       6 7 8 9                                                     ",
"          0 , a                                                   b c d e f                                                     ",
"          g h i                                                 j k l m n o                                                     ",
"          p q r =                                               s t u v w                                                       ",
"          x p y z - A                                         B C D E F G                                                       ",
"          H I p g J K L                                       M N O y c P                                                       ",
"  Q       p I R S T r U %                                   V W X Y Z `  .                                                      ",
"  ..        y +.@.#.$.%.- #                                 &.*.i =.-.;.                                                        ",
"              h >.x y ,.'.).!.~.                          {.].^./.(._.:.                                                        ",
"  <.            [.q J }.[.|.1.2.3.4.          5.        6.7.8.9.0.a.b.c.                                                        ",
"( U d.e.f.g.      h.[.i.0 j.).5 k.l.m.n.    * o.k.p.    q.r.s.t.u.v.w.                                                          ",
"|.( ).x.y.z.A.B.C.D.E.0 [.j., F.G.H.l.I.J.m.K.H.L.M.  N.O.P.Q.R.S.T.U.                                                          ",
"U x.U }.V.W.X.Y.Z.`. +.+++@+#+E.$+%+* &+l.*+L =+=+I.-+;+>+,+'+)+!+~+{+                                                          ",
".+]+^+/+(+_+:+<+[+}+|+'., #+9.%+1+1+% 2+3+4+5+6+5.7+8+9+0+a+b+c+d+e+f+                                                          ",
"]+j.g+I h+i+j+k+l+m+n+z '.o+p+$+{ q+H.@ A =+{ r+s+t+u+v+~.n.w+x+y+z+A+                                                          ",
"        >.B+C+D+E+F+G+$.H+I+} E.9.' H.M.J+K+{ L+s+M+N+O+P+K.3+Q+R+S+T+U+V+W+                                                    ",
"                X+Y+Z+`+,.|.++ @.@G.+@q+K.J+H.o.l.L @@4+#@$@I.%@&@*@=@-@;@>@,@                                                  ",
"                      '@)@,.!@.@).~@$+{@K+,@]@2.' @ I.^@/@(@m._@:@<@m.[@J+o.}@                                                  ",
"                            ++, I+%+d.|@G.t.1@2.$++ 2@3@4@5@l.6@L 7@8@6+9@9@3+                                                  ",
"                                ~@1+p+,  @k.W+0@~@k.a@k.b@c@}@+ d@U+1+; 9@4+U+*+7@e@                              p+            ",
"                                    - f@g@k.]@F. @h@i@!.!.U+$@j@' # 0@k@&+l@. m@m@}@n@o@p@                      2.).            ",
"                                    j.|@h@J+# [.- Q {@$ 0@; E.5 k@>@+ K+* W+* + !.' i@..i@$ <.q@G.; % L+,@&+a ; ~@              ",
"                                    } i q@>@@+r@j. @.@9.$ E.~ ; 7@P+J+]@* K+r+; h@} #+o+|@j.~ [.0 }.r h h %.!@s@%.              ",
"                                    k.{ t@  q $.}.s@0 f@ @u@++k@d@. ,@r+L+q+q+% 1+{@@+U |.!@v@z J g #.q g g+w@q i.              ",
"                                    x@v.      y@'.^+,.z@v@J $ H.+@1., i 9.j@%+$ j@j@i |@[.,.i.J #.x A@S B@x R #.                ",
"                                    C@D@        j.|.~ ^+g+g+# k.p+x.~@d.i ~@i E.g@Q 1.- H+%.[.E@S >.F@x A@G@@.                  ",
"                                                      r I   H.$ ~@++ @k.j@ @F.).i  @]+]+|@@+' u.H@F. @!@,.g                     ",
"                                                            V+p+|@z@  d.~@).~@s@U ( }.i.I@J@K@L@                                ",
"                                                            M@d.N@          z@z i.O@y P@Q@R@S@T@U@V@                            ",
"                                                          W@X@Y@                g+Z@`@ #.#+#@###$#%#&#        =                 ",
"                                                            7                       *#=#-#;#>#,#'#)#!#~#}@  ;                   ",
"                                                                                        {#]#^#/#(#_#:#o+5 1.o+                  ",
"                                                                                            <#[#}#/+!@- z@v@                    ",
"                                                                                                @.q H+x.~ K                     ",
"                                                                                                    u@j.|#                      ",
"                                                                                                    ( U                         ",
"                                                                                                                                ",
"                                                                                                                                ",
"                                                                                                                                ",
"                                                                                                                                ",
"                                                                                                                                ",
"                                                                                                                                "};
