/* XPM */
static char * x_wing8_xpm[] = {
"64 64 360 2",
"  	c None",
". 	c #B9B3B3",
"+ 	c #B9ABAB",
"@ 	c #B5ACAC",
"# 	c #B9B2B2",
"$ 	c #949393",
"% 	c #898383",
"& 	c #858181",
"* 	c #929191",
"= 	c #9B9B9B",
"- 	c #7D7D7D",
"; 	c #8C8C8C",
"> 	c #757575",
", 	c #6F6F6F",
"' 	c #898989",
") 	c #7C7C7C",
"! 	c #B0B0B0",
"~ 	c #A6A6A6",
"{ 	c #989898",
"] 	c #868686",
"^ 	c #D2D2D2",
"/ 	c #BABABA",
"( 	c #B7B7B7",
"_ 	c #B8B8B8",
": 	c #B9B9B9",
"< 	c #CECECE",
"[ 	c #818181",
"} 	c #969696",
"| 	c #A0A0A0",
"1 	c #B2B2B2",
"2 	c #D0D0D0",
"3 	c #E1E1E1",
"4 	c #E2E2E2",
"5 	c #E4E4E4",
"6 	c #E7E9E9",
"7 	c #B1B1B1",
"8 	c #BCBCBC",
"9 	c #9F9F9F",
"0 	c #8D8D8D",
"a 	c #7A7A7A",
"b 	c #DBDBDB",
"c 	c #CDCDCD",
"d 	c #C1C1C1",
"e 	c #C6C6C6",
"f 	c #C7C7C7",
"g 	c #C5C5C5",
"h 	c #CACACA",
"i 	c #D5D5D5",
"j 	c #747474",
"k 	c #9C9C9C",
"l 	c #B5B5B5",
"m 	c #E8E8E8",
"n 	c #E5E5E5",
"o 	c #E3E3E3",
"p 	c #D3D3D3",
"q 	c #B4B4B4",
"r 	c #999999",
"s 	c #ACACAC",
"t 	c #CBCBCB",
"u 	c #D8D8D8",
"v 	c #DADBDB",
"w 	c #DCDEDE",
"x 	c #E1E2E2",
"y 	c #E1B4B4",
"z 	c #E1A5A5",
"A 	c #E0A4A4",
"B 	c #DFD1D1",
"C 	c #DDDDDD",
"D 	c #C8C8C8",
"E 	c #A9A9A9",
"F 	c #8A8A8A",
"G 	c #ABABAB",
"H 	c #AFAFAF",
"I 	c #949494",
"J 	c #808080",
"K 	c #7B7B7B",
"L 	c #CCCCCC",
"M 	c #BFBFBF",
"N 	c #BDBDBD",
"O 	c #AEAEAE",
"P 	c #C3C3C3",
"Q 	c #737373",
"R 	c #797979",
"S 	c #919191",
"T 	c #A8A8A8",
"U 	c #858585",
"V 	c #9D9D9D",
"W 	c #C4C4C4",
"X 	c #D1D1D1",
"Y 	c #DBDCDC",
"Z 	c #DFD3D3",
"` 	c #E0A6A6",
" .	c #E1B0B0",
"..	c #E1E0E0",
"+.	c #DDDFDF",
"@.	c #D9D9D9",
"#.	c #CFCFCF",
"$.	c #B6B6B6",
"%.	c #B3B3B3",
"&.	c #D0D2D2",
"*.	c #DABFBF",
"=.	c #DDA7A7",
"-.	c #DEB0B0",
";.	c #DDA3A3",
">.	c #DBA0A0",
",.	c #DAA7A7",
"'.	c #D7CECE",
").	c #D3D4D4",
"!.	c #C0C0C0",
"~.	c #A5A5A5",
"{.	c #909090",
"].	c #9A9A9A",
"^.	c #838383",
"/.	c #979797",
"(.	c #9E9E9E",
"_.	c #7E7E7E",
":.	c #929292",
"<.	c #C2C2C2",
"[.	c #D7D0D0",
"}.	c #DAAAAA",
"|.	c #DBA1A1",
"1.	c #DDA0A0",
"2.	c #DEAFAF",
"3.	c #DDA6A6",
"4.	c #DBBCBC",
"5.	c #ADADAD",
"6.	c #CBCCCC",
"7.	c #DD9A9A",
"8.	c #E46767",
"9.	c #E26767",
"0.	c #DA9090",
"a.	c #D3ABAB",
"b.	c #D2B0B0",
"c.	c #CECBCB",
"d.	c #C9C9C9",
"e.	c #A4A4A4",
"f.	c #A3A3A3",
"g.	c #A7A7A7",
"h.	c #767676",
"i.	c #BBBBBB",
"j.	c #939393",
"k.	c #959595",
"l.	c #CDCBCB",
"m.	c #D1B1B1",
"n.	c #D3AAAA",
"o.	c #D89595",
"p.	c #E16969",
"q.	c #E46666",
"r.	c #DE9595",
"s.	c #CECDCD",
"t.	c #878787",
"u.	c #B6B3B3",
"v.	c #CB8E8E",
"w.	c #D66C6C",
"x.	c #D96A6A",
"y.	c #CDA2A2",
"z.	c #C5C8C8",
"A.	c #C5C6C6",
"B.	c #BEBEBE",
"C.	c #8B8B8B",
"D.	c #676767",
"E.	c #464646",
"F.	c #434343",
"G.	c #828282",
"H.	c #A2A2A2",
"I.	c #8E8E8E",
"J.	c #CCA7A7",
"K.	c #D96B6B",
"L.	c #CB8B8B",
"M.	c #B8B5B5",
"N.	c #7F7F7F",
"O.	c #848484",
"P.	c #5A5151",
"Q.	c #726060",
"R.	c #846767",
"S.	c #8D8181",
"T.	c #A1A1A1",
"U.	c #6C6C6C",
"V.	c #777777",
"W.	c #666666",
"X.	c #626262",
"Y.	c #717171",
"Z.	c #787878",
"`.	c #AAAAAA",
" +	c #8D8282",
".+	c #5C5353",
"++	c #5B5B5B",
"@+	c #6E6E6E",
"#+	c #686867",
"$+	c #5E5E5F",
"%+	c #8D8D96",
"&+	c #84848C",
"*+	c #5C5C5E",
"=+	c #636363",
"-+	c #6B6B6B",
";+	c #8F8F8F",
">+	c #5D5D5D",
",+	c #6D6D6D",
"'+	c #6C6C6D",
")+	c #919199",
"!+	c #8F8F97",
"~+	c #676768",
"{+	c #5A5A5A",
"]+	c #585858",
"^+	c #6A6A6A",
"/+	c #E7E7E7",
"(+	c #888888",
"_+	c #606060",
":+	c #4E4E4E",
"<+	c #4A4A4A",
"[+	c #686868",
"}+	c #525252",
"|+	c #555555",
"1+	c #656565",
"2+	c #696969",
"3+	c #3F3F3F",
"4+	c #525353",
"5+	c #4F4F4F",
"6+	c #4D4D4D",
"7+	c #5E5E5E",
"8+	c #727272",
"9+	c #DFDFDF",
"0+	c #DEDEDE",
"a+	c #E0E0E0",
"b+	c #DCDCDC",
"c+	c #616161",
"d+	c #545454",
"e+	c #515151",
"f+	c #525151",
"g+	c #685D5D",
"h+	c #494747",
"i+	c #4B4B4B",
"j+	c #474747",
"k+	c #353131",
"l+	c #524444",
"m+	c #4A4949",
"n+	c #D6D6D6",
"o+	c #646464",
"p+	c #505050",
"q+	c #5F5F5F",
"r+	c #616262",
"s+	c #514848",
"t+	c #744444",
"u+	c #494343",
"v+	c #333333",
"w+	c #3C3C3C",
"x+	c #403636",
"y+	c #733838",
"z+	c #4B4242",
"A+	c #4C4C4C",
"B+	c #969695",
"C+	c #DADADA",
"D+	c #D7D7D7",
"E+	c #757676",
"F+	c #453636",
"G+	c #7C3939",
"H+	c #594F4F",
"I+	c #1C1C1C",
"J+	c #161616",
"K+	c #202020",
"L+	c #343535",
"M+	c #554545",
"N+	c #7F3232",
"O+	c #3C2F2F",
"P+	c #747575",
"Q+	c #454545",
"R+	c #D4D4D4",
"S+	c #494949",
"T+	c #813838",
"U+	c #6D5B5B",
"V+	c #242525",
"W+	c #060606",
"X+	c #0B0B0B",
"Y+	c #373838",
"Z+	c #684D4D",
"`+	c #813333",
" @	c #853939",
".@	c #7E6161",
"+@	c #313232",
"@@	c #070707",
"#@	c #080808",
"$@	c #3E3F3F",
"%@	c #775050",
"&@	c #833434",
"*@	c #8A3A3A",
"=@	c #8D6464",
"-@	c #444646",
";@	c #292929",
">@	c #2A2A2A",
",@	c #4E5050",
"'@	c #865555",
")@	c #873434",
"!@	c #903A3A",
"~@	c #9A6666",
"{@	c #606262",
"]@	c #935757",
"^@	c #AA6B6B",
"/@	c #9A9999",
"(@	c #949090",
"_@	c #A25C5C",
":@	c #B96C6C",
"<@	c #B3ADAD",
"[@	c #C7C8C8",
"}@	c #C6C7C7",
"|@	c #ACA4A4",
"1@	c #B15E5E",
"2@	c #C46C6C",
"3@	c #999090",
"4@	c #9C9D9D",
"5@	c #948888",
"6@	c #BD5F5F",
"7@	c #C86969",
"8@	c #A89B9B",
"9@	c #B7B8B8",
"0@	c #A99595",
"a@	c #C35F5F",
"b@	c #C66666",
"c@	c #BDA7A7",
"d@	c #D7D8D8",
"e@	c #C2A2A2",
"f@	c #C15E5E",
"g@	c #C26565",
"h@	c #BE9C9C",
"i@	c #CBCDCD",
"j@	c #C49999",
"k@	c #BF5D5D",
"l@	c #BF6363",
"m@	c #C19595",
"n@	c #C0C2C2",
"o@	c #C69090",
"p@	c #BA5959",
"q@	c #B95F5F",
"r@	c #C38E8E",
"s@	c #B5B7B7",
"t@	c #C98B8B",
"u@	c #C78B8B",
"v@	c #ADACAC",
"w@	c #B0ACAC",
"x@	c #CC8686",
"y@	c #CB8888",
"z@	c #ACA8A8",
"A@	c #AFA8A8",
"B@	c #D38484",
"C@	c #C27F7F",
"D@	c #BEB8B8",
"E@	c #C2B8B8",
"F@	c #D27F7F",
"G@	c #AB6D6D",
"H@	c #C2BABA",
"I@	c #C5B7B7",
"J@	c #BB6F6F",
"K@	c #9B7777",
"L@	c #C0B7B7",
"M@	c #C3B4B4",
"N@	c #A27777",
"O@	c #A4A1A1",
"P@	c #D3CECE",
"Q@	c #D2CDCD",
"R@	c #9A9797",
"S@	c #CFCECE",
"                                                                                                                                ",
"                                                                                                                                ",
"                                                                                                                                ",
"                                                                                                                                ",
"                                                                                                                                ",
"                                                                                                                                ",
"                                                                                                                                ",
"                                                                                                                                ",
"                                                                                                                                ",
"                                                                                                                                ",
"                                                                                                                                ",
"                                                                                                                                ",
"                                                  . +                     @ #                                                   ",
"                                                  $ %                     & * =                                                 ",
"                                                - ; >                     , ' )                                                 ",
"        !                                       ~ { ]     ^ / ( _ : <     [ } |                                       1         ",
"        1 _ 2 3 4 5 6                         7 8 9 0 a b c d e f g h i j ] k l 1                         m n o 4 p q q r       ",
"      s : 1 t u v w x y z A B C p D g E ! = F G H I J K L M E 8 N O 8 P Q R S T ~ U V ( T W f X Y Z ` `  ...+.Y @.#.1 $.E       ",
"      %./ G M &.*.=.-.;.>.,.'.).D !.P k ~.{.- ].( V ^.K W H { /.].= G : j K ].! (._.:.E (.<.!.e ^ [.}.|.1.2.3.4.).P 5.l l       ",
"      M %.~.: 6.7.8.9.0.a.b.c.d.( e.O f.g.~.I ~ s ^.h.J i.(.0 j.k.k.{ O R , J ~.5.I f.E e.O e.%.f l.m.n.o.p.q.r.s.N T 1 M       ",
"      s - t.9 u.v.w.x.y.z.A.W B.H } V k :.j.S C.D.E.F.a 7 F [ G.[ ^.t.H.R F.E.D.I.:.j.:.k V k.s 8 W A.z.J.K.w.L.M.f.F N.9       ",
"      O.        P.Q.R.S./.E ! E T./.} :.^.N.a , j _.U.U 9 V.W.; J X.Y.:.G.U.N.Z.Q Z._.^.S } } 9 T H `.{  +R.Q..+        Q       ",
"    5.                ++:./ 8 O 9 S t.J ) V.U.h.@+V.> ^.O.#+$+%+&+*+=+a K j K @+V.-+Z.a [ ] ;+V G / i.} >+                =     ",
"    s             ~.D D g d.<.( 5.f.{ I.O.- ,+-+j C.- X.h.=+'+)+!+~+{+W.]+V.;+> ^+-+- G.0 } T.G l !.f P D d.T             {     ",
"              < C /+3 ^ t d N %.E | k.(+> _+:+<+j ; , :+[+}+|+1+2+:+3+4+F.W.C.a 5+6+7+8+U j.(.g.7 i.<.f i 9+/+0+#.              ",
"          5 a+C b+a+@.2 D N : O 9 ; R 2+=+c+2+:+d+3+e+f+g+h+i+) J j+k+l+m+6+3+|+e+D.=+=+[+Z.F k G ( N e #.i a+b+C 9+o           ",
"          3 9+b n+u X h !.%.e.(+o+5+i+p+6+j+<+q+V.[+r+s+t+u+v+<+}+w+x+y+z+_+1+a =+A+E.6+e+5+6+c+O.T.7 8 d.#.u n+b 0+a+          ",
"  B+    ^ C+D+^ 2 2 W 7 = h.<+                8+> _.E+F+G+H+I+J+K+L+M+N+O+P+N.Z.>                 Q+8+{ ! P #.#.X n+@.R+    Y.  ",
"        X R+2 f / | K S+                      W.Q ^.^+  T+U+V+W+X+Y+Z+`+  [+O.j ^+                        Z.(._ e #.^ p         ",
"        d.M f.V.                                  |+     @.@+@@@#@$@%@&@                                        Q 9 N d.        ",
"        O }                                             *@=@-@;@>@,@'@)@                                            S T         ",
"        G j                                             !@~@{@++>+X.]@)@                                            2+=         ",
"        T                                                 ^@/@e.f.(@_@                                                {         ",
"        (.                                                :@<@[@}@|@1@                                                ;+        ",
"                                                          2@3@4@k 5@6@                                                          ",
"                                                          7@8@9@9@0@a@                                                          ",
"                                                          b@c@d@d@e@f@                                                          ",
"                                                          g@h@i@i@j@k@                                                          ",
"    :.                                                    l@m@n@n@o@p@                                                    R     ",
"                                                          q@r@s@( t@                                                            ",
"                                                            u@v@w@x@                                                            ",
"                                                            y@z@A@B@                                                            ",
"                                                            C@D@E@F@                                                            ",
"                                                            G@H@I@J@                                                            ",
"                                                            K@L@M@N@                                                            ",
"                                                            O@P@Q@R@                                                            ",
"                                                            G S@h =                                                             ",
"                                                            ;+5.`.t.                                                            ",
"                                                            V.s `.Z.                                                            ",
"                                                            q+I } W.                                                            ",
"                                                            E.V.)                                                               ",
"                                                              W.[+                                                              ",
"                                                                                                                                ",
"                                                                                                                                ",
"                                                                                                                                ",
"                                                                                                                                ",
"                                                                                                                                ",
"                                                                                                                                ",
"                                                                                                                                ",
"                                                                                                                                ",
"                                                                                                                                ",
"                                                                                                                                ",
"                                                                                                                                ",
"                                                                                                                                "};
